<svg xmlns="http://www.w3.org/2000/svg" width="59" height="51" viewBox="0 0 59 51">
  <g id="Grupo_1137112" data-name="Grupo 1137112" transform="translate(-495.051 -8812)">
    <rect id="Rectángulo_414868" data-name="Rectángulo 414868" width="59" height="51" transform="translate(495.051 8812)" fill="#91b3fa"/>
    <path id="Trazado_960501" data-name="Trazado 960501" d="M11.064-6.173A7.563,7.563,0,0,1,9.782-1.436,4.474,4.474,0,0,1,6.029.205,4.505,4.505,0,0,1,2.3-1.4,7.342,7.342,0,0,1,.974-6.019V-8.767a7.464,7.464,0,0,1,1.3-4.748,4.507,4.507,0,0,1,3.738-1.62,4.512,4.512,0,0,1,3.732,1.6,7.319,7.319,0,0,1,1.323,4.609ZM8.1-9.194a5.467,5.467,0,0,0-.508-2.7,1.715,1.715,0,0,0-1.584-.847,1.685,1.685,0,0,0-1.543.806,5.116,5.116,0,0,0-.528,2.52v3.633a5.739,5.739,0,0,0,.5,2.715,1.693,1.693,0,0,0,1.594.888A1.664,1.664,0,0,0,7.6-3.036a5.6,5.6,0,0,0,.5-2.607ZM20.262,0H17.3V-11.423l-3.538,1.1v-2.41l6.183-2.215h.318Z" transform="translate(512.051 8845)" fill="#12263f"/>
  </g>
</svg>
