<svg xmlns="http://www.w3.org/2000/svg" width="59" height="51" viewBox="0 0 59 51">
  <g id="Grupo_1137114" data-name="Grupo 1137114" transform="translate(-915.051 -8812)">
    <rect id="Rectángulo_414870" data-name="Rectángulo 414870" width="59" height="51" transform="translate(915.051 8812)" fill="#91b3fa"/>
    <path id="Trazado_960503" data-name="Trazado 960503" d="M11.064-6.173A7.563,7.563,0,0,1,9.782-1.436,4.474,4.474,0,0,1,6.029.205,4.505,4.505,0,0,1,2.3-1.4,7.342,7.342,0,0,1,.974-6.019V-8.767a7.464,7.464,0,0,1,1.3-4.748,4.507,4.507,0,0,1,3.738-1.62,4.512,4.512,0,0,1,3.732,1.6,7.319,7.319,0,0,1,1.323,4.609ZM8.1-9.194a5.467,5.467,0,0,0-.508-2.7,1.715,1.715,0,0,0-1.584-.847,1.685,1.685,0,0,0-1.543.806,5.116,5.116,0,0,0-.528,2.52v3.633a5.739,5.739,0,0,0,.5,2.715,1.693,1.693,0,0,0,1.594.888A1.664,1.664,0,0,0,7.6-3.036a5.6,5.6,0,0,0,.5-2.607Zm7.978.417h1.579a2.225,2.225,0,0,0,1.671-.564,2.067,2.067,0,0,0,.543-1.5,1.827,1.827,0,0,0-.538-1.4,2.086,2.086,0,0,0-1.482-.5,2.187,2.187,0,0,0-1.425.467,1.492,1.492,0,0,0-.574,1.215H12.889a3.644,3.644,0,0,1,.631-2.1,4.2,4.2,0,0,1,1.764-1.451,5.886,5.886,0,0,1,2.5-.523A5.582,5.582,0,0,1,21.492-14a3.866,3.866,0,0,1,1.343,3.122,3.141,3.141,0,0,1-.625,1.887A4.064,4.064,0,0,1,20.569-7.67a3.71,3.71,0,0,1,1.882,1.354,3.672,3.672,0,0,1,.62,2.133A3.93,3.93,0,0,1,21.62-.995a5.834,5.834,0,0,1-3.84,1.2A5.531,5.531,0,0,1,14.125-.974,3.851,3.851,0,0,1,12.7-4.091h2.963A1.717,1.717,0,0,0,16.3-2.717a2.324,2.324,0,0,0,1.553.533,2.335,2.335,0,0,0,1.656-.559,1.929,1.929,0,0,0,.6-1.482q0-2.235-2.461-2.235H16.078Z" transform="translate(930.051 8845)" fill="#12263f"/>
  </g>
</svg>
