<svg xmlns="http://www.w3.org/2000/svg" xmlns:xlink="http://www.w3.org/1999/xlink" width="382.079" height="205.755" viewBox="0 0 382.079 205.755">
  <defs>
    <clipPath id="clip-path">
      <rect id="Rectángulo_352791" data-name="Rectángulo 352791" width="188.946" height="96.391" fill="#12263f"/>
    </clipPath>
    <clipPath id="clip-path-2">
      <rect id="Rectángulo_358430" data-name="Rectángulo 358430" width="365.31" height="205.755" fill="none"/>
    </clipPath>
  </defs>
  <g id="Grupo_1136867" data-name="Grupo 1136867" transform="translate(8047.602 7550.755)">
    <g id="Grupo_1020694" data-name="Grupo 1020694" transform="translate(-8047.602 -7532.795)">
      <g id="Enmascarar_grupo_1018593" data-name="Enmascarar grupo 1018593" transform="translate(186.465 0)" clip-path="url(#clip-path)">
        <path id="Trazado_151731" data-name="Trazado 151731" d="M89.964,142.048a52.084,52.084,0,1,1,52.084-52.084,52.143,52.143,0,0,1-52.084,52.084m0,37.879A89.963,89.963,0,1,0,0,89.963,89.963,89.963,0,0,0,89.964,179.927Z" transform="translate(3.903 6.428)" fill="#4adbd1"/>
      </g>
      <g id="Grupo_1018971" data-name="Grupo 1018971" transform="translate(0 0)">
        <path id="Trazado_145969" data-name="Trazado 145969" d="M53.282,0A53.282,53.282,0,1,1,0,53.282,53.282,53.282,0,0,1,53.282,0Z" transform="translate(0 2.704)" fill="#ffca28" opacity="0.444" style="mix-blend-mode: multiply;isolation: isolate"/>
        <rect id="Rectángulo_34812" data-name="Rectángulo 34812" width="375.411" height="158.124" transform="translate(0)" fill="none"/>
        <path id="Trazado_145971" data-name="Trazado 145971" d="M6.081,0A6.081,6.081,0,1,1,0,6.081,6.081,6.081,0,0,1,6.081,0Z" transform="translate(24.024 133.911)" fill="#31313c" opacity="0.444" style="mix-blend-mode: multiply;isolation: isolate"/>
        <g id="Grupo_80270" data-name="Grupo 80270" transform="translate(255.784 46.652)">
          <path id="Trazado_145968" data-name="Trazado 145968" d="M59.814,0A59.814,59.814,0,1,1,0,59.814,59.814,59.814,0,0,1,59.814,0Z" transform="translate(0)" fill="#31313c" opacity="0.444" style="mix-blend-mode: multiply;isolation: isolate"/>
          <g id="Grupo_78276" data-name="Grupo 78276" transform="translate(23.353 24.727)">
            <g id="Grupo_53306" data-name="Grupo 53306">
              <path id="Trazado_99200" data-name="Trazado 99200" d="M415.839,51a.813.813,0,1,1-.813-.776A.8.8,0,0,1,415.839,51Z" transform="translate(-414.214 -50.224)" fill="#fff"/>
              <path id="Trazado_99201" data-name="Trazado 99201" d="M424.284,51a.813.813,0,1,1-.812-.776A.795.795,0,0,1,424.284,51Z" transform="translate(-415.351 -50.224)" fill="#fff"/>
              <path id="Trazado_99202" data-name="Trazado 99202" d="M432.73,51a.813.813,0,1,1-.812-.776A.795.795,0,0,1,432.73,51Z" transform="translate(-416.487 -50.224)" fill="#fff"/>
              <path id="Trazado_99203" data-name="Trazado 99203" d="M441.177,51a.813.813,0,1,1-.813-.776A.8.8,0,0,1,441.177,51Z" transform="translate(-417.624 -50.224)" fill="#fff"/>
              <path id="Trazado_99204" data-name="Trazado 99204" d="M449.624,51a.813.813,0,1,1-.812-.776A.795.795,0,0,1,449.624,51Z" transform="translate(-418.76 -50.224)" fill="#fff"/>
              <path id="Trazado_99205" data-name="Trazado 99205" d="M458.069,51a.813.813,0,1,1-.812-.776A.795.795,0,0,1,458.069,51Z" transform="translate(-419.897 -50.224)" fill="#fff"/>
              <path id="Trazado_99206" data-name="Trazado 99206" d="M466.516,51a.813.813,0,1,1-.813-.776A.8.8,0,0,1,466.516,51Z" transform="translate(-421.033 -50.224)" fill="#fff"/>
              <path id="Trazado_99207" data-name="Trazado 99207" d="M474.963,51a.813.813,0,1,1-.812-.776A.795.795,0,0,1,474.963,51Z" transform="translate(-422.17 -50.224)" fill="#fff"/>
              <path id="Trazado_99208" data-name="Trazado 99208" d="M483.408,51a.813.813,0,1,1-.812-.776A.795.795,0,0,1,483.408,51Z" transform="translate(-423.306 -50.224)" fill="#fff"/>
              <path id="Trazado_99209" data-name="Trazado 99209" d="M491.855,51a.813.813,0,1,1-.813-.776A.8.8,0,0,1,491.855,51Z" transform="translate(-424.443 -50.224)" fill="#fff"/>
              <path id="Trazado_99210" data-name="Trazado 99210" d="M500.3,51a.813.813,0,1,1-.813-.776A.8.8,0,0,1,500.3,51Z" transform="translate(-425.579 -50.224)" fill="#fff"/>
            </g>
            <g id="Grupo_53307" data-name="Grupo 53307" transform="translate(0 6.214)">
              <path id="Trazado_99211" data-name="Trazado 99211" d="M415.839,58.508a.813.813,0,1,1-.813-.776A.8.8,0,0,1,415.839,58.508Z" transform="translate(-414.214 -57.732)" fill="#fff"/>
              <path id="Trazado_99212" data-name="Trazado 99212" d="M424.284,58.508a.813.813,0,1,1-.812-.776A.795.795,0,0,1,424.284,58.508Z" transform="translate(-415.351 -57.732)" fill="#fff"/>
              <path id="Trazado_99213" data-name="Trazado 99213" d="M432.73,58.508a.813.813,0,1,1-.812-.776A.795.795,0,0,1,432.73,58.508Z" transform="translate(-416.487 -57.732)" fill="#fff"/>
              <path id="Trazado_99214" data-name="Trazado 99214" d="M441.177,58.508a.813.813,0,1,1-.813-.776A.8.8,0,0,1,441.177,58.508Z" transform="translate(-417.624 -57.732)" fill="#fff"/>
              <path id="Trazado_99215" data-name="Trazado 99215" d="M449.624,58.508a.813.813,0,1,1-.812-.776A.795.795,0,0,1,449.624,58.508Z" transform="translate(-418.76 -57.732)" fill="#fff"/>
              <path id="Trazado_99216" data-name="Trazado 99216" d="M458.069,58.508a.813.813,0,1,1-.812-.776A.795.795,0,0,1,458.069,58.508Z" transform="translate(-419.897 -57.732)" fill="#fff"/>
              <path id="Trazado_99217" data-name="Trazado 99217" d="M466.516,58.508a.813.813,0,1,1-.813-.776A.8.8,0,0,1,466.516,58.508Z" transform="translate(-421.033 -57.732)" fill="#fff"/>
              <path id="Trazado_99218" data-name="Trazado 99218" d="M474.963,58.508a.813.813,0,1,1-.812-.776A.795.795,0,0,1,474.963,58.508Z" transform="translate(-422.17 -57.732)" fill="#fff"/>
              <path id="Trazado_99219" data-name="Trazado 99219" d="M483.408,58.508a.813.813,0,1,1-.812-.776A.795.795,0,0,1,483.408,58.508Z" transform="translate(-423.306 -57.732)" fill="#fff"/>
              <path id="Trazado_99220" data-name="Trazado 99220" d="M491.855,58.508a.813.813,0,1,1-.813-.776A.8.8,0,0,1,491.855,58.508Z" transform="translate(-424.443 -57.732)" fill="#fff"/>
              <path id="Trazado_99221" data-name="Trazado 99221" d="M500.3,58.508a.813.813,0,1,1-.813-.776A.8.8,0,0,1,500.3,58.508Z" transform="translate(-425.579 -57.732)" fill="#fff"/>
            </g>
            <g id="Grupo_53308" data-name="Grupo 53308" transform="translate(0 12.428)">
              <ellipse id="Elipse_3955" data-name="Elipse 3955" cx="0.812" cy="0.777" rx="0.812" ry="0.777" fill="#fff"/>
              <path id="Trazado_99222" data-name="Trazado 99222" d="M424.284,66.016a.813.813,0,1,1-.812-.776A.8.8,0,0,1,424.284,66.016Z" transform="translate(-415.351 -65.24)" fill="#fff"/>
              <ellipse id="Elipse_3956" data-name="Elipse 3956" cx="0.812" cy="0.777" rx="0.812" ry="0.777" transform="translate(14.62)" fill="#fff"/>
              <path id="Trazado_99223" data-name="Trazado 99223" d="M441.177,66.016a.813.813,0,1,1-.813-.776A.8.8,0,0,1,441.177,66.016Z" transform="translate(-417.624 -65.24)" fill="#fff"/>
              <path id="Trazado_99224" data-name="Trazado 99224" d="M449.624,66.016a.813.813,0,1,1-.812-.776A.8.8,0,0,1,449.624,66.016Z" transform="translate(-418.76 -65.24)" fill="#fff"/>
              <ellipse id="Elipse_3957" data-name="Elipse 3957" cx="0.812" cy="0.777" rx="0.812" ry="0.777" transform="translate(36.549)" fill="#fff"/>
              <path id="Trazado_99225" data-name="Trazado 99225" d="M466.516,66.016a.813.813,0,1,1-.813-.776A.8.8,0,0,1,466.516,66.016Z" transform="translate(-421.033 -65.24)" fill="#fff"/>
              <ellipse id="Elipse_3958" data-name="Elipse 3958" cx="0.812" cy="0.777" rx="0.812" ry="0.777" transform="translate(51.169)" fill="#fff"/>
              <ellipse id="Elipse_3959" data-name="Elipse 3959" cx="0.812" cy="0.777" rx="0.812" ry="0.777" transform="translate(58.478)" fill="#fff"/>
              <path id="Trazado_99226" data-name="Trazado 99226" d="M491.855,66.016a.813.813,0,1,1-.813-.776A.8.8,0,0,1,491.855,66.016Z" transform="translate(-424.443 -65.24)" fill="#fff"/>
              <path id="Trazado_99227" data-name="Trazado 99227" d="M500.3,66.016a.813.813,0,1,1-.813-.776A.8.8,0,0,1,500.3,66.016Z" transform="translate(-425.579 -65.24)" fill="#fff"/>
            </g>
            <g id="Grupo_53309" data-name="Grupo 53309" transform="translate(0 18.641)">
              <ellipse id="Elipse_3960" data-name="Elipse 3960" cx="0.812" cy="0.777" rx="0.812" ry="0.777" transform="translate(0 0)" fill="#fff"/>
              <path id="Trazado_99228" data-name="Trazado 99228" d="M424.284,73.524a.813.813,0,1,1-.812-.777A.795.795,0,0,1,424.284,73.524Z" transform="translate(-415.351 -72.747)" fill="#fff"/>
              <ellipse id="Elipse_3961" data-name="Elipse 3961" cx="0.812" cy="0.777" rx="0.812" ry="0.777" transform="translate(14.62 0)" fill="#fff"/>
              <path id="Trazado_99229" data-name="Trazado 99229" d="M441.177,73.524a.813.813,0,1,1-.813-.777A.795.795,0,0,1,441.177,73.524Z" transform="translate(-417.624 -72.747)" fill="#fff"/>
              <path id="Trazado_99230" data-name="Trazado 99230" d="M449.624,73.524a.813.813,0,1,1-.812-.777A.795.795,0,0,1,449.624,73.524Z" transform="translate(-418.76 -72.747)" fill="#fff"/>
              <ellipse id="Elipse_3962" data-name="Elipse 3962" cx="0.812" cy="0.777" rx="0.812" ry="0.777" transform="translate(36.549 0)" fill="#fff"/>
              <path id="Trazado_99231" data-name="Trazado 99231" d="M466.516,73.524a.813.813,0,1,1-.813-.777A.8.8,0,0,1,466.516,73.524Z" transform="translate(-421.033 -72.747)" fill="#fff"/>
              <ellipse id="Elipse_3963" data-name="Elipse 3963" cx="0.812" cy="0.777" rx="0.812" ry="0.777" transform="translate(51.169 0)" fill="#fff"/>
              <ellipse id="Elipse_3964" data-name="Elipse 3964" cx="0.812" cy="0.777" rx="0.812" ry="0.777" transform="translate(58.478 0)" fill="#fff"/>
              <path id="Trazado_99232" data-name="Trazado 99232" d="M491.855,73.524a.813.813,0,1,1-.813-.777A.8.8,0,0,1,491.855,73.524Z" transform="translate(-424.443 -72.747)" fill="#fff"/>
              <path id="Trazado_99233" data-name="Trazado 99233" d="M500.3,73.524a.813.813,0,1,1-.813-.777A.795.795,0,0,1,500.3,73.524Z" transform="translate(-425.579 -72.747)" fill="#fff"/>
            </g>
            <g id="Grupo_53310" data-name="Grupo 53310" transform="translate(0 24.855)">
              <path id="Trazado_99234" data-name="Trazado 99234" d="M415.839,81.032a.813.813,0,1,1-.813-.777A.795.795,0,0,1,415.839,81.032Z" transform="translate(-414.214 -80.255)" fill="#fff"/>
              <path id="Trazado_99235" data-name="Trazado 99235" d="M424.284,81.032a.813.813,0,1,1-.812-.777A.795.795,0,0,1,424.284,81.032Z" transform="translate(-415.351 -80.255)" fill="#fff"/>
              <path id="Trazado_99236" data-name="Trazado 99236" d="M432.73,81.032a.813.813,0,1,1-.812-.777A.795.795,0,0,1,432.73,81.032Z" transform="translate(-416.487 -80.255)" fill="#fff"/>
              <path id="Trazado_99237" data-name="Trazado 99237" d="M441.177,81.032a.813.813,0,1,1-.813-.777A.795.795,0,0,1,441.177,81.032Z" transform="translate(-417.624 -80.255)" fill="#fff"/>
              <path id="Trazado_99238" data-name="Trazado 99238" d="M449.624,81.032a.813.813,0,1,1-.812-.777A.795.795,0,0,1,449.624,81.032Z" transform="translate(-418.76 -80.255)" fill="#fff"/>
              <path id="Trazado_99239" data-name="Trazado 99239" d="M458.069,81.032a.813.813,0,1,1-.812-.777A.795.795,0,0,1,458.069,81.032Z" transform="translate(-419.897 -80.255)" fill="#fff"/>
              <path id="Trazado_99240" data-name="Trazado 99240" d="M466.516,81.032a.813.813,0,1,1-.813-.777A.8.8,0,0,1,466.516,81.032Z" transform="translate(-421.033 -80.255)" fill="#fff"/>
              <path id="Trazado_99241" data-name="Trazado 99241" d="M474.963,81.032a.813.813,0,1,1-.812-.777A.795.795,0,0,1,474.963,81.032Z" transform="translate(-422.17 -80.255)" fill="#fff"/>
              <path id="Trazado_99242" data-name="Trazado 99242" d="M483.408,81.032a.813.813,0,1,1-.812-.777A.795.795,0,0,1,483.408,81.032Z" transform="translate(-423.306 -80.255)" fill="#fff"/>
              <path id="Trazado_99243" data-name="Trazado 99243" d="M491.855,81.032a.813.813,0,1,1-.813-.777A.8.8,0,0,1,491.855,81.032Z" transform="translate(-424.443 -80.255)" fill="#fff"/>
              <path id="Trazado_99244" data-name="Trazado 99244" d="M500.3,81.032a.813.813,0,1,1-.813-.777A.795.795,0,0,1,500.3,81.032Z" transform="translate(-425.579 -80.255)" fill="#fff"/>
            </g>
            <g id="Grupo_53311" data-name="Grupo 53311" transform="translate(0 31.069)">
              <ellipse id="Elipse_3965" data-name="Elipse 3965" cx="0.812" cy="0.777" rx="0.812" ry="0.777" transform="translate(0 0)" fill="#fff"/>
              <path id="Trazado_99245" data-name="Trazado 99245" d="M424.284,88.54a.813.813,0,1,1-.812-.777A.795.795,0,0,1,424.284,88.54Z" transform="translate(-415.351 -87.763)" fill="#fff"/>
              <ellipse id="Elipse_3966" data-name="Elipse 3966" cx="0.812" cy="0.777" rx="0.812" ry="0.777" transform="translate(14.62 0)" fill="#fff"/>
              <path id="Trazado_99246" data-name="Trazado 99246" d="M441.177,88.54a.813.813,0,1,1-.813-.777A.795.795,0,0,1,441.177,88.54Z" transform="translate(-417.624 -87.763)" fill="#fff"/>
              <path id="Trazado_99247" data-name="Trazado 99247" d="M449.624,88.54a.813.813,0,1,1-.812-.777A.795.795,0,0,1,449.624,88.54Z" transform="translate(-418.76 -87.763)" fill="#fff"/>
              <ellipse id="Elipse_3967" data-name="Elipse 3967" cx="0.812" cy="0.777" rx="0.812" ry="0.777" transform="translate(36.549 0)" fill="#fff"/>
              <path id="Trazado_99248" data-name="Trazado 99248" d="M466.516,88.54a.813.813,0,1,1-.813-.777A.8.8,0,0,1,466.516,88.54Z" transform="translate(-421.033 -87.763)" fill="#fff"/>
              <ellipse id="Elipse_3968" data-name="Elipse 3968" cx="0.812" cy="0.777" rx="0.812" ry="0.777" transform="translate(51.169 0)" fill="#fff"/>
              <ellipse id="Elipse_3969" data-name="Elipse 3969" cx="0.812" cy="0.777" rx="0.812" ry="0.777" transform="translate(58.478 0)" fill="#fff"/>
              <path id="Trazado_99249" data-name="Trazado 99249" d="M491.855,88.54a.813.813,0,1,1-.813-.777A.8.8,0,0,1,491.855,88.54Z" transform="translate(-424.443 -87.763)" fill="#fff"/>
              <path id="Trazado_99250" data-name="Trazado 99250" d="M500.3,88.54a.813.813,0,1,1-.813-.777A.795.795,0,0,1,500.3,88.54Z" transform="translate(-425.579 -87.763)" fill="#fff"/>
            </g>
            <g id="Grupo_53312" data-name="Grupo 53312" transform="translate(0 37.283)">
              <ellipse id="Elipse_3970" data-name="Elipse 3970" cx="0.812" cy="0.777" rx="0.812" ry="0.777" fill="#fff"/>
              <path id="Trazado_99251" data-name="Trazado 99251" d="M424.284,96.047a.813.813,0,1,1-.812-.776A.795.795,0,0,1,424.284,96.047Z" transform="translate(-415.351 -95.271)" fill="#fff"/>
              <ellipse id="Elipse_3971" data-name="Elipse 3971" cx="0.812" cy="0.777" rx="0.812" ry="0.777" transform="translate(14.62)" fill="#fff"/>
              <path id="Trazado_99252" data-name="Trazado 99252" d="M441.177,96.047a.813.813,0,1,1-.813-.776A.8.8,0,0,1,441.177,96.047Z" transform="translate(-417.624 -95.271)" fill="#fff"/>
              <path id="Trazado_99253" data-name="Trazado 99253" d="M449.624,96.047a.813.813,0,1,1-.812-.776A.795.795,0,0,1,449.624,96.047Z" transform="translate(-418.76 -95.271)" fill="#fff"/>
              <ellipse id="Elipse_3972" data-name="Elipse 3972" cx="0.812" cy="0.777" rx="0.812" ry="0.777" transform="translate(36.549)" fill="#fff"/>
              <path id="Trazado_99254" data-name="Trazado 99254" d="M466.516,96.047a.813.813,0,1,1-.813-.776A.8.8,0,0,1,466.516,96.047Z" transform="translate(-421.033 -95.271)" fill="#fff"/>
              <ellipse id="Elipse_3973" data-name="Elipse 3973" cx="0.812" cy="0.777" rx="0.812" ry="0.777" transform="translate(51.169)" fill="#fff"/>
              <ellipse id="Elipse_3974" data-name="Elipse 3974" cx="0.812" cy="0.777" rx="0.812" ry="0.777" transform="translate(58.478)" fill="#fff"/>
              <path id="Trazado_99255" data-name="Trazado 99255" d="M491.855,96.047a.813.813,0,1,1-.813-.776A.8.8,0,0,1,491.855,96.047Z" transform="translate(-424.443 -95.271)" fill="#fff"/>
              <path id="Trazado_99256" data-name="Trazado 99256" d="M500.3,96.047a.813.813,0,1,1-.813-.776A.8.8,0,0,1,500.3,96.047Z" transform="translate(-425.579 -95.271)" fill="#fff"/>
            </g>
            <g id="Grupo_53313" data-name="Grupo 53313" transform="translate(0 43.496)">
              <path id="Trazado_99257" data-name="Trazado 99257" d="M415.839,103.555a.813.813,0,1,1-.813-.776A.8.8,0,0,1,415.839,103.555Z" transform="translate(-414.214 -102.779)" fill="#fff"/>
              <path id="Trazado_99258" data-name="Trazado 99258" d="M424.284,103.555a.813.813,0,1,1-.812-.776A.795.795,0,0,1,424.284,103.555Z" transform="translate(-415.351 -102.779)" fill="#fff"/>
              <path id="Trazado_99259" data-name="Trazado 99259" d="M432.73,103.555a.813.813,0,1,1-.812-.776A.795.795,0,0,1,432.73,103.555Z" transform="translate(-416.487 -102.779)" fill="#fff"/>
              <path id="Trazado_99260" data-name="Trazado 99260" d="M441.177,103.555a.813.813,0,1,1-.813-.776A.8.8,0,0,1,441.177,103.555Z" transform="translate(-417.624 -102.779)" fill="#fff"/>
              <path id="Trazado_99261" data-name="Trazado 99261" d="M449.624,103.555a.813.813,0,1,1-.812-.776A.795.795,0,0,1,449.624,103.555Z" transform="translate(-418.76 -102.779)" fill="#fff"/>
              <path id="Trazado_99262" data-name="Trazado 99262" d="M458.069,103.555a.813.813,0,1,1-.812-.776A.795.795,0,0,1,458.069,103.555Z" transform="translate(-419.897 -102.779)" fill="#fff"/>
              <path id="Trazado_99263" data-name="Trazado 99263" d="M466.516,103.555a.813.813,0,1,1-.813-.776A.8.8,0,0,1,466.516,103.555Z" transform="translate(-421.033 -102.779)" fill="#fff"/>
              <path id="Trazado_99264" data-name="Trazado 99264" d="M474.963,103.555a.813.813,0,1,1-.812-.776A.795.795,0,0,1,474.963,103.555Z" transform="translate(-422.17 -102.779)" fill="#fff"/>
              <path id="Trazado_99265" data-name="Trazado 99265" d="M483.408,103.555a.813.813,0,1,1-.812-.776A.795.795,0,0,1,483.408,103.555Z" transform="translate(-423.306 -102.779)" fill="#fff"/>
              <path id="Trazado_99266" data-name="Trazado 99266" d="M491.855,103.555a.813.813,0,1,1-.813-.776A.8.8,0,0,1,491.855,103.555Z" transform="translate(-424.443 -102.779)" fill="#fff"/>
              <path id="Trazado_99267" data-name="Trazado 99267" d="M500.3,103.555a.813.813,0,1,1-.813-.776A.8.8,0,0,1,500.3,103.555Z" transform="translate(-425.579 -102.779)" fill="#fff"/>
            </g>
            <g id="Grupo_53314" data-name="Grupo 53314" transform="translate(0 49.71)">
              <ellipse id="Elipse_3975" data-name="Elipse 3975" cx="0.812" cy="0.777" rx="0.812" ry="0.777" fill="#fff"/>
              <path id="Trazado_99268" data-name="Trazado 99268" d="M424.284,111.063a.813.813,0,1,1-.812-.776A.8.8,0,0,1,424.284,111.063Z" transform="translate(-415.351 -110.287)" fill="#fff"/>
              <ellipse id="Elipse_3976" data-name="Elipse 3976" cx="0.812" cy="0.777" rx="0.812" ry="0.777" transform="translate(14.62)" fill="#fff"/>
              <path id="Trazado_99269" data-name="Trazado 99269" d="M441.177,111.063a.813.813,0,1,1-.813-.776A.8.8,0,0,1,441.177,111.063Z" transform="translate(-417.624 -110.287)" fill="#fff"/>
              <path id="Trazado_99270" data-name="Trazado 99270" d="M449.624,111.063a.813.813,0,1,1-.812-.776A.8.8,0,0,1,449.624,111.063Z" transform="translate(-418.76 -110.287)" fill="#fff"/>
              <ellipse id="Elipse_3977" data-name="Elipse 3977" cx="0.812" cy="0.777" rx="0.812" ry="0.777" transform="translate(36.549)" fill="#fff"/>
              <path id="Trazado_99271" data-name="Trazado 99271" d="M466.516,111.063a.813.813,0,1,1-.813-.776A.8.8,0,0,1,466.516,111.063Z" transform="translate(-421.033 -110.287)" fill="#fff"/>
              <ellipse id="Elipse_3978" data-name="Elipse 3978" cx="0.812" cy="0.777" rx="0.812" ry="0.777" transform="translate(51.169)" fill="#fff"/>
              <ellipse id="Elipse_3979" data-name="Elipse 3979" cx="0.812" cy="0.777" rx="0.812" ry="0.777" transform="translate(58.478)" fill="#fff"/>
              <path id="Trazado_99272" data-name="Trazado 99272" d="M491.855,111.063a.813.813,0,1,1-.813-.776A.8.8,0,0,1,491.855,111.063Z" transform="translate(-424.443 -110.287)" fill="#fff"/>
              <path id="Trazado_99273" data-name="Trazado 99273" d="M500.3,111.063a.813.813,0,1,1-.813-.776A.8.8,0,0,1,500.3,111.063Z" transform="translate(-425.579 -110.287)" fill="#fff"/>
            </g>
            <g id="Grupo_53315" data-name="Grupo 53315" transform="translate(0 55.924)">
              <path id="Trazado_99274" data-name="Trazado 99274" d="M415.839,118.571a.813.813,0,1,1-.813-.777A.8.8,0,0,1,415.839,118.571Z" transform="translate(-414.214 -117.794)" fill="#fff"/>
              <path id="Trazado_99275" data-name="Trazado 99275" d="M424.284,118.571a.813.813,0,1,1-.812-.777A.8.8,0,0,1,424.284,118.571Z" transform="translate(-415.351 -117.794)" fill="#fff"/>
              <path id="Trazado_99276" data-name="Trazado 99276" d="M432.73,118.571a.813.813,0,1,1-.812-.777A.8.8,0,0,1,432.73,118.571Z" transform="translate(-416.487 -117.794)" fill="#fff"/>
              <path id="Trazado_99277" data-name="Trazado 99277" d="M441.177,118.571a.813.813,0,1,1-.813-.777A.8.8,0,0,1,441.177,118.571Z" transform="translate(-417.624 -117.794)" fill="#fff"/>
              <path id="Trazado_99278" data-name="Trazado 99278" d="M449.624,118.571a.813.813,0,1,1-.812-.777A.8.8,0,0,1,449.624,118.571Z" transform="translate(-418.76 -117.794)" fill="#fff"/>
              <path id="Trazado_99279" data-name="Trazado 99279" d="M458.069,118.571a.813.813,0,1,1-.812-.777A.8.8,0,0,1,458.069,118.571Z" transform="translate(-419.897 -117.794)" fill="#fff"/>
              <path id="Trazado_99280" data-name="Trazado 99280" d="M466.516,118.571a.813.813,0,1,1-.813-.777A.8.8,0,0,1,466.516,118.571Z" transform="translate(-421.033 -117.794)" fill="#fff"/>
              <path id="Trazado_99281" data-name="Trazado 99281" d="M474.963,118.571a.813.813,0,1,1-.812-.777A.8.8,0,0,1,474.963,118.571Z" transform="translate(-422.17 -117.794)" fill="#fff"/>
              <path id="Trazado_99282" data-name="Trazado 99282" d="M483.408,118.571a.813.813,0,1,1-.812-.777A.8.8,0,0,1,483.408,118.571Z" transform="translate(-423.306 -117.794)" fill="#fff"/>
              <path id="Trazado_99283" data-name="Trazado 99283" d="M491.855,118.571a.813.813,0,1,1-.813-.777A.8.8,0,0,1,491.855,118.571Z" transform="translate(-424.443 -117.794)" fill="#fff"/>
              <path id="Trazado_99284" data-name="Trazado 99284" d="M500.3,118.571a.813.813,0,1,1-.813-.777A.8.8,0,0,1,500.3,118.571Z" transform="translate(-425.579 -117.794)" fill="#fff"/>
            </g>
            <g id="Grupo_53316" data-name="Grupo 53316" transform="translate(0 62.137)">
              <ellipse id="Elipse_3980" data-name="Elipse 3980" cx="0.812" cy="0.777" rx="0.812" ry="0.777" transform="translate(0 0)" fill="#fff"/>
              <path id="Trazado_99285" data-name="Trazado 99285" d="M424.284,126.079a.813.813,0,1,1-.812-.777A.795.795,0,0,1,424.284,126.079Z" transform="translate(-415.351 -125.302)" fill="#fff"/>
              <ellipse id="Elipse_3981" data-name="Elipse 3981" cx="0.812" cy="0.777" rx="0.812" ry="0.777" transform="translate(14.62 0)" fill="#fff"/>
              <path id="Trazado_99286" data-name="Trazado 99286" d="M441.177,126.079a.813.813,0,1,1-.813-.777A.795.795,0,0,1,441.177,126.079Z" transform="translate(-417.624 -125.302)" fill="#fff"/>
              <path id="Trazado_99287" data-name="Trazado 99287" d="M449.624,126.079a.813.813,0,1,1-.812-.777A.795.795,0,0,1,449.624,126.079Z" transform="translate(-418.76 -125.302)" fill="#fff"/>
              <ellipse id="Elipse_3982" data-name="Elipse 3982" cx="0.812" cy="0.777" rx="0.812" ry="0.777" transform="translate(36.549 0)" fill="#fff"/>
              <path id="Trazado_99288" data-name="Trazado 99288" d="M466.516,126.079a.813.813,0,1,1-.813-.777A.8.8,0,0,1,466.516,126.079Z" transform="translate(-421.033 -125.302)" fill="#fff"/>
              <ellipse id="Elipse_3983" data-name="Elipse 3983" cx="0.812" cy="0.777" rx="0.812" ry="0.777" transform="translate(51.169 0)" fill="#fff"/>
              <ellipse id="Elipse_3984" data-name="Elipse 3984" cx="0.812" cy="0.777" rx="0.812" ry="0.777" transform="translate(58.478 0)" fill="#fff"/>
              <path id="Trazado_99289" data-name="Trazado 99289" d="M491.855,126.079a.813.813,0,1,1-.813-.777A.8.8,0,0,1,491.855,126.079Z" transform="translate(-424.443 -125.302)" fill="#fff"/>
              <path id="Trazado_99290" data-name="Trazado 99290" d="M500.3,126.079a.813.813,0,1,1-.813-.777A.795.795,0,0,1,500.3,126.079Z" transform="translate(-425.579 -125.302)" fill="#fff"/>
            </g>
            <g id="Grupo_53317" data-name="Grupo 53317" transform="translate(0 68.352)">
              <ellipse id="Elipse_3985" data-name="Elipse 3985" cx="0.812" cy="0.777" rx="0.812" ry="0.777" transform="translate(0 0)" fill="#fff"/>
              <path id="Trazado_99291" data-name="Trazado 99291" d="M424.284,133.587a.813.813,0,1,1-.812-.777A.795.795,0,0,1,424.284,133.587Z" transform="translate(-415.351 -132.81)" fill="#fff"/>
              <ellipse id="Elipse_3986" data-name="Elipse 3986" cx="0.812" cy="0.777" rx="0.812" ry="0.777" transform="translate(14.62 0)" fill="#fff"/>
              <path id="Trazado_99292" data-name="Trazado 99292" d="M441.177,133.587a.813.813,0,1,1-.813-.777A.795.795,0,0,1,441.177,133.587Z" transform="translate(-417.624 -132.81)" fill="#fff"/>
              <path id="Trazado_99293" data-name="Trazado 99293" d="M449.624,133.587a.813.813,0,1,1-.812-.777A.795.795,0,0,1,449.624,133.587Z" transform="translate(-418.76 -132.81)" fill="#fff"/>
              <ellipse id="Elipse_3987" data-name="Elipse 3987" cx="0.812" cy="0.777" rx="0.812" ry="0.777" transform="translate(36.549 0)" fill="#fff"/>
              <path id="Trazado_99294" data-name="Trazado 99294" d="M466.516,133.587a.813.813,0,1,1-.813-.777A.8.8,0,0,1,466.516,133.587Z" transform="translate(-421.033 -132.81)" fill="#fff"/>
              <ellipse id="Elipse_3988" data-name="Elipse 3988" cx="0.812" cy="0.777" rx="0.812" ry="0.777" transform="translate(51.169 0)" fill="#fff"/>
              <ellipse id="Elipse_3989" data-name="Elipse 3989" cx="0.812" cy="0.777" rx="0.812" ry="0.777" transform="translate(58.478 0)" fill="#fff"/>
              <path id="Trazado_99295" data-name="Trazado 99295" d="M491.855,133.587a.813.813,0,1,1-.813-.777A.8.8,0,0,1,491.855,133.587Z" transform="translate(-424.443 -132.81)" fill="#fff"/>
              <path id="Trazado_99296" data-name="Trazado 99296" d="M500.3,133.587a.813.813,0,1,1-.813-.777A.795.795,0,0,1,500.3,133.587Z" transform="translate(-425.579 -132.81)" fill="#fff"/>
            </g>
          </g>
        </g>
        <line id="Línea_138" data-name="Línea 138" y2="113.553" transform="translate(13.045 27.332)" fill="none" stroke="#31313c" stroke-linecap="round" stroke-width="4" stroke-dasharray="8"/>
      </g>
    </g>
    <g id="Grupo_1022505" data-name="Grupo 1022505" transform="translate(-8030.833 -7550.755)">
      <rect id="Rectángulo_358345" data-name="Rectángulo 358345" width="31.155" height="25.689" transform="translate(75.172)" fill="#c3dafc"/>
      <rect id="Rectángulo_358346" data-name="Rectángulo 358346" width="31.155" height="25.689" transform="translate(90.749)" fill="#d4e4f8"/>
      <path id="Trazado_751608" data-name="Trazado 751608" d="M393.046,90.163h4.937l-.435-1.389.435-.992h-4.937Z" transform="translate(-317.856 -70.988)" fill="#9dc3f3"/>
      <path id="Trazado_751609" data-name="Trazado 751609" d="M474.379,31.489h4.937l-.435-1.389.435-.992h-4.937Z" transform="translate(-383.63 -23.539)" fill="#e3f0ff"/>
      <path id="Trazado_751610" data-name="Trazado 751610" d="M453.51,29.107h-4.937l.435,1.389-.435.993h4.937Z" transform="translate(-362.761 -23.539)" fill="#9dc3f3"/>
      <path id="Trazado_751611" data-name="Trazado 751611" d="M616.371,101.672h-4.937l.435,1.389-.435.993h4.937Z" transform="translate(-494.466 -82.222)" fill="#e3f0ff"/>
      <rect id="Rectángulo_358347" data-name="Rectángulo 358347" width="8.965" height="3.488" transform="translate(110.899 1.742)" fill="#fff"/>
      <rect id="Rectángulo_358348" data-name="Rectángulo 358348" width="20.77" height="17.126" transform="translate(273.897 8.563)" fill="#c3dafc"/>
      <rect id="Rectángulo_358349" data-name="Rectángulo 358349" width="20.77" height="17.126" transform="translate(284.282 8.563)" fill="#d4e4f8"/>
      <path id="Trazado_751612" data-name="Trazado 751612" d="M1431.825,104.87h3.291l-.29-.926.29-.662h-3.291Z" transform="translate(-1157.916 -83.525)" fill="#9dc3f3"/>
      <path id="Trazado_751613" data-name="Trazado 751613" d="M1486.049,65.755h3.291l-.29-.926.29-.662h-3.291Z" transform="translate(-1201.767 -51.892)" fill="#e3f0ff"/>
      <path id="Trazado_751614" data-name="Trazado 751614" d="M1472.136,64.167h-3.291l.29.926-.29.662h3.291Z" transform="translate(-1187.854 -51.891)" fill="#9dc3f3"/>
      <path id="Trazado_751615" data-name="Trazado 751615" d="M1580.71,112.543h-3.291l.29.926-.29.662h3.291Z" transform="translate(-1275.658 -91.014)" fill="#e3f0ff"/>
      <rect id="Rectángulo_358350" data-name="Rectángulo 358350" width="5.977" height="2.325" transform="translate(297.715 9.724)" fill="#fff"/>
      <rect id="Rectángulo_358351" data-name="Rectángulo 358351" width="26.927" height="22.203" transform="translate(228.298 3.486)" fill="#c3dafc"/>
      <rect id="Rectángulo_358352" data-name="Rectángulo 358352" width="26.927" height="22.203" transform="translate(241.762 3.486)" fill="#d4e4f8"/>
      <path id="Trazado_751616" data-name="Trazado 751616" d="M1193.481,96.15h4.267l-.376-1.2.376-.858h-4.267Z" transform="translate(-965.167 -76.091)" fill="#9dc3f3"/>
      <path id="Trazado_751617" data-name="Trazado 751617" d="M1263.779,45.438h4.267l-.376-1.2.376-.858h-4.267Z" transform="translate(-1022.017 -35.081)" fill="#e3f0ff"/>
      <path id="Trazado_751618" data-name="Trazado 751618" d="M1245.741,43.379h-4.267l.376,1.2-.376.858h4.267Z" transform="translate(-1003.979 -35.08)" fill="#9dc3f3"/>
      <path id="Trazado_751619" data-name="Trazado 751619" d="M1386.5,106.1h-4.267l.376,1.2-.376.858h4.267Z" transform="translate(-1117.814 -85.801)" fill="#e3f0ff"/>
      <rect id="Rectángulo_358353" data-name="Rectángulo 358353" width="7.749" height="3.015" transform="translate(259.177 4.991)" fill="#fff"/>
      <rect id="Rectángulo_358354" data-name="Rectángulo 358354" width="31.155" height="25.689" transform="translate(20.152)" fill="#c3dafc"/>
      <rect id="Rectángulo_358355" data-name="Rectángulo 358355" width="31.155" height="25.689" transform="translate(35.73)" fill="#d4e4f8"/>
      <path id="Trazado_751620" data-name="Trazado 751620" d="M105.439,90.163h4.937l-.435-1.389.435-.992h-4.937Z" transform="translate(-85.268 -70.988)" fill="#9dc3f3"/>
      <path id="Trazado_751621" data-name="Trazado 751621" d="M186.773,31.489h4.937l-.435-1.389.435-.992h-4.937Z" transform="translate(-151.043 -23.539)" fill="#e3f0ff"/>
      <path id="Trazado_751622" data-name="Trazado 751622" d="M165.9,29.107h-4.937L161.4,30.5l-.435.993H165.9Z" transform="translate(-130.174 -23.539)" fill="#9dc3f3"/>
      <path id="Trazado_751623" data-name="Trazado 751623" d="M328.765,101.672h-4.937l.435,1.389-.435.993h4.937Z" transform="translate(-261.88 -82.222)" fill="#e3f0ff"/>
      <rect id="Rectángulo_358356" data-name="Rectángulo 358356" width="8.965" height="3.488" transform="translate(55.879 1.742)" fill="#fff"/>
      <rect id="Rectángulo_358357" data-name="Rectángulo 358357" width="11.983" height="142.926" transform="translate(0 25.689)" fill="#727997"/>
      <rect id="Rectángulo_358358" data-name="Rectángulo 358358" width="9.961" height="142.927" transform="translate(131.377 25.689)" fill="#727997"/>
      <rect id="Rectángulo_358359" data-name="Rectángulo 358359" width="129.355" height="3.72" transform="translate(11.983 25.689)" fill="#12263f"/>
      <rect id="Rectángulo_358360" data-name="Rectángulo 358360" width="129.355" height="3.72" transform="translate(11.983 93.433)" fill="#12263f"/>
      <rect id="Rectángulo_358361" data-name="Rectángulo 358361" width="129.355" height="3.72" transform="translate(11.983 150.25)" fill="#12263f"/>
      <rect id="Rectángulo_358362" data-name="Rectángulo 358362" width="32.21" height="26.559" transform="translate(77.329 66.873)" fill="#a9c8ed"/>
      <rect id="Rectángulo_358363" data-name="Rectángulo 358363" width="32.21" height="26.559" transform="translate(93.434 66.873)" fill="#d4e4f8"/>
      <path id="Trazado_751624" data-name="Trazado 751624" d="M404.326,442.788h5.1l-.45-1.436.45-1.026h-5.1Z" transform="translate(-326.978 -356.091)" fill="#9dc3f3"/>
      <path id="Trazado_751625" data-name="Trazado 751625" d="M488.415,382.128h5.1l-.45-1.436.45-1.026h-5.1Z" transform="translate(-394.981 -307.035)" fill="#e3f0ff"/>
      <path id="Trazado_751626" data-name="Trazado 751626" d="M466.839,379.665h-5.1l.45,1.436-.45,1.026h5.1Z" transform="translate(-373.404 -307.035)" fill="#9dc3f3"/>
      <path id="Trazado_751627" data-name="Trazado 751627" d="M635.217,454.688h-5.1l.45,1.436-.45,1.026h5.1Z" transform="translate(-509.572 -367.706)" fill="#e3f0ff"/>
      <rect id="Rectángulo_358364" data-name="Rectángulo 358364" width="9.269" height="3.606" transform="translate(114.267 68.674)" fill="#fff"/>
      <rect id="Rectángulo_358365" data-name="Rectángulo 358365" width="32.21" height="26.559" transform="translate(35.993 66.873)" fill="#c3dafc"/>
      <rect id="Rectángulo_358366" data-name="Rectángulo 358366" width="32.21" height="26.559" transform="translate(52.098 66.873)" fill="#d4e4f8"/>
      <path id="Trazado_751628" data-name="Trazado 751628" d="M188.248,442.788h5.1l-.45-1.436.45-1.026h-5.1Z" transform="translate(-152.236 -356.091)" fill="#9dc3f3"/>
      <path id="Trazado_751629" data-name="Trazado 751629" d="M272.337,382.128h5.1l-.45-1.436.45-1.026h-5.1Z" transform="translate(-220.239 -307.035)" fill="#e3f0ff"/>
      <path id="Trazado_751630" data-name="Trazado 751630" d="M250.76,379.665h-5.1l.45,1.436-.45,1.026h5.1Z" transform="translate(-198.662 -307.035)" fill="#9dc3f3"/>
      <path id="Trazado_751631" data-name="Trazado 751631" d="M419.139,454.688h-5.1l.45,1.436-.45,1.026h5.1Z" transform="translate(-334.83 -367.706)" fill="#e3f0ff"/>
      <path id="Trazado_751632" data-name="Trazado 751632" d="M419.139,377.835h-5.1l.45,1.436-.45,1.026h5.1Z" transform="translate(-334.83 -305.555)" fill="#e3f0ff"/>
      <rect id="Rectángulo_358367" data-name="Rectángulo 358367" width="15.107" height="5.878" transform="translate(55.351 84.711)" fill="#fff"/>
      <rect id="Rectángulo_358368" data-name="Rectángulo 358368" width="27.839" height="22.956" transform="translate(77.329 127.209)" fill="#c3dafc"/>
      <rect id="Rectángulo_358369" data-name="Rectángulo 358369" width="27.84" height="22.956" transform="translate(91.249 127.209)" fill="#d4e4f8"/>
      <path id="Trazado_751633" data-name="Trazado 751633" d="M404.313,745.536h4.411l-.389-1.241.389-.887h-4.411Z" transform="translate(-326.968 -601.193)" fill="#9dc3f3"/>
      <path id="Trazado_751634" data-name="Trazado 751634" d="M476.992,693.106H481.4l-.389-1.241.389-.887h-4.411Z" transform="translate(-385.743 -558.794)" fill="#e3f0ff"/>
      <path id="Trazado_751635" data-name="Trazado 751635" d="M458.344,690.978h-4.411l.389,1.241-.389.887h4.411Z" transform="translate(-367.095 -558.794)" fill="#9dc3f3"/>
      <path id="Trazado_751636" data-name="Trazado 751636" d="M603.875,755.822h-4.411l.389,1.241-.389.887h4.411Z" transform="translate(-484.786 -611.233)" fill="#e3f0ff"/>
      <rect id="Rectángulo_358370" data-name="Rectángulo 358370" width="8.011" height="3.117" transform="translate(109.254 128.765)" fill="#fff"/>
      <rect id="Rectángulo_358371" data-name="Rectángulo 358371" width="32.21" height="26.559" transform="translate(24.455 123.605)" fill="#c3dafc"/>
      <rect id="Rectángulo_358372" data-name="Rectángulo 358372" width="32.21" height="26.559" transform="translate(40.561 123.605)" fill="#d4e4f8"/>
      <path id="Trazado_751637" data-name="Trazado 751637" d="M127.936,739.347h5.1l-.45-1.436.45-1.026h-5.1Z" transform="translate(-103.462 -595.918)" fill="#2a4e96"/>
      <path id="Trazado_751638" data-name="Trazado 751638" d="M212.025,678.686h5.1l-.449-1.436.449-1.026h-5.1Z" transform="translate(-171.464 -546.861)" fill="#618dc1"/>
      <path id="Trazado_751639" data-name="Trazado 751639" d="M190.449,676.223h-5.1l.45,1.436-.45,1.026h5.1Z" transform="translate(-149.888 -546.861)" fill="#2a4e96"/>
      <path id="Trazado_751640" data-name="Trazado 751640" d="M358.826,751.247h-5.1l.45,1.436-.45,1.026h5.1Z" transform="translate(-286.055 -607.533)" fill="#618dc1"/>
      <rect id="Rectángulo_358373" data-name="Rectángulo 358373" width="9.269" height="3.606" transform="translate(61.393 125.406)" fill="#fff"/>
      <rect id="Rectángulo_358374" data-name="Rectángulo 358374" width="24.625" height="20.304" transform="translate(33.521 46.447)" fill="#c3dafc"/>
      <rect id="Rectángulo_358375" data-name="Rectángulo 358375" width="24.624" height="20.304" transform="translate(45.834 46.447)" fill="#d4e4f8"/>
      <path id="Trazado_751641" data-name="Trazado 751641" d="M175.3,314.06h3.9l-.344-1.1.344-.785h-3.9Z" transform="translate(-141.769 -252.458)" fill="#9dc3f3"/>
      <path id="Trazado_751642" data-name="Trazado 751642" d="M239.59,267.685h3.9l-.344-1.1.344-.785h-3.9Z" transform="translate(-193.757 -214.954)" fill="#e3f0ff"/>
      <path id="Trazado_751643" data-name="Trazado 751643" d="M223.1,265.8h-3.9l.344,1.1-.344.785h3.9Z" transform="translate(-177.261 -214.954)" fill="#9dc3f3"/>
      <path id="Trazado_751644" data-name="Trazado 751644" d="M351.819,323.158h-3.9l.344,1.1-.344.785h3.9Z" transform="translate(-281.361 -261.337)" fill="#e3f0ff"/>
      <rect id="Rectángulo_358376" data-name="Rectángulo 358376" width="7.086" height="2.757" transform="translate(61.76 47.824)" fill="#fff"/>
      <rect id="Rectángulo_358377" data-name="Rectángulo 358377" width="24.624" height="20.304" transform="translate(77.518 46.447)" fill="#c3dafc"/>
      <rect id="Rectángulo_358378" data-name="Rectángulo 358378" width="24.624" height="20.304" transform="translate(89.83 46.447)" fill="#d4e4f8"/>
      <path id="Trazado_751645" data-name="Trazado 751645" d="M405.288,314.06h3.9l-.344-1.1.344-.785h-3.9Z" transform="translate(-327.756 -252.458)" fill="#9dc3f3"/>
      <path id="Trazado_751646" data-name="Trazado 751646" d="M469.574,267.685h3.9l-.344-1.1.344-.785h-3.9Z" transform="translate(-379.744 -214.954)" fill="#e3f0ff"/>
      <path id="Trazado_751647" data-name="Trazado 751647" d="M453.079,265.8h-3.9l.344,1.1-.344.785h3.9Z" transform="translate(-363.249 -214.954)" fill="#9dc3f3"/>
      <path id="Trazado_751648" data-name="Trazado 751648" d="M581.8,323.158h-3.9l.344,1.1-.344.785h3.9Z" transform="translate(-467.348 -261.337)" fill="#e3f0ff"/>
      <rect id="Rectángulo_358379" data-name="Rectángulo 358379" width="7.086" height="2.757" transform="translate(105.756 47.824)" fill="#fff"/>
      <rect id="Rectángulo_358380" data-name="Rectángulo 358380" width="18.664" height="15.389" transform="translate(41.942 108.201)" fill="#e6b046"/>
      <path id="Trazado_751778" data-name="Trazado 751778" d="M0,0H18.664V15.389H0Z" transform="translate(32.611 108.201)" fill="#f0dcc0"/>
      <path id="Trazado_751649" data-name="Trazado 751649" d="M304.253,619.621H301.3l.261-.832-.261-.595h2.958Z" transform="translate(-243.658 -499.933)" fill="#12263f"/>
      <path id="Trazado_751650" data-name="Trazado 751650" d="M255.529,584.471h-2.957l.26-.832-.26-.595h2.957Z" transform="translate(-204.255 -471.508)" fill="#12263f"/>
      <path id="Trazado_751651" data-name="Trazado 751651" d="M268.031,583.044h2.957l-.261.832.261.595h-2.957Z" transform="translate(-216.756 -471.508)" fill="#12263f"/>
      <path id="Trazado_751652" data-name="Trazado 751652" d="M170.466,626.516h2.958l-.261.832.261.595h-2.958Z" transform="translate(-137.856 -506.663)" fill="#12263f"/>
      <rect id="Rectángulo_358382" data-name="Rectángulo 358382" width="5.371" height="2.09" transform="translate(33.832 109.245)" fill="#fff"/>
      <rect id="Rectángulo_358383" data-name="Rectángulo 358383" width="29.363" height="29.363" transform="translate(11.983 25.689)" fill="#fff"/>
      <rect id="Rectángulo_358384" data-name="Rectángulo 358384" width="26.226" height="26.226" transform="translate(13.552 27.258)" fill="#12263f"/>
      <rect id="Rectángulo_358385" data-name="Rectángulo 358385" width="10.958" height="142.927" transform="translate(181.018 25.689)" fill="#727997"/>
      <rect id="Rectángulo_358386" data-name="Rectángulo 358386" width="10.637" height="142.927" transform="translate(310.695 25.689)" fill="#727997"/>
      <rect id="Rectángulo_358387" data-name="Rectángulo 358387" width="129.355" height="3.352" transform="translate(191.977 25.689)" fill="#12263f"/>
      <rect id="Rectángulo_358388" data-name="Rectángulo 358388" width="129.355" height="3.72" transform="translate(191.977 93.433)" fill="#12263f"/>
      <rect id="Rectángulo_358389" data-name="Rectángulo 358389" width="129.355" height="4.43" transform="translate(191.977 150.25)" fill="#12263f"/>
      <rect id="Rectángulo_358390" data-name="Rectángulo 358390" width="32.21" height="26.559" transform="translate(257.323 66.873)" fill="#c3dafc"/>
      <rect id="Rectángulo_358391" data-name="Rectángulo 358391" width="32.21" height="26.559" transform="translate(273.428 66.873)" fill="#d4e4f8"/>
      <path id="Trazado_751653" data-name="Trazado 751653" d="M1345.222,442.788h5.1l-.45-1.436.45-1.026h-5.1Z" transform="translate(-1087.88 -356.091)" fill="#9dc3f3"/>
      <path id="Trazado_751654" data-name="Trazado 751654" d="M1429.311,382.128h5.1l-.45-1.436.45-1.026h-5.1Z" transform="translate(-1155.883 -307.035)" fill="#e3f0ff"/>
      <path id="Trazado_751655" data-name="Trazado 751655" d="M1407.734,379.665h-5.1l.45,1.436-.45,1.026h5.1Z" transform="translate(-1134.305 -307.035)" fill="#9dc3f3"/>
      <path id="Trazado_751656" data-name="Trazado 751656" d="M1576.111,454.688h-5.1l.45,1.436-.45,1.026h5.1Z" transform="translate(-1270.472 -367.706)" fill="#e3f0ff"/>
      <rect id="Rectángulo_358392" data-name="Rectángulo 358392" width="9.269" height="3.606" transform="translate(294.26 68.674)" fill="#fff"/>
      <rect id="Rectángulo_358393" data-name="Rectángulo 358393" width="32.21" height="26.559" transform="translate(215.987 66.873)" fill="#c3dafc"/>
      <rect id="Rectángulo_358394" data-name="Rectángulo 358394" width="32.21" height="26.559" transform="translate(232.092 66.873)" fill="#d4e4f8"/>
      <path id="Trazado_751657" data-name="Trazado 751657" d="M1129.142,442.788h5.1l-.45-1.436.45-1.026h-5.1Z" transform="translate(-913.137 -356.091)" fill="#233862"/>
      <path id="Trazado_751658" data-name="Trazado 751658" d="M1213.232,382.128h5.1l-.45-1.436.45-1.026h-5.1Z" transform="translate(-981.14 -307.035)" fill="#2a4e96"/>
      <path id="Trazado_751659" data-name="Trazado 751659" d="M1191.655,379.665h-5.1l.45,1.436-.45,1.026h5.1Z" transform="translate(-959.563 -307.035)" fill="#233862"/>
      <path id="Trazado_751660" data-name="Trazado 751660" d="M1360.034,454.688h-5.1l.449,1.436-.449,1.026h5.1Z" transform="translate(-1095.731 -367.706)" fill="#2a4e96"/>
      <rect id="Rectángulo_358395" data-name="Rectángulo 358395" width="12.438" height="4.839" transform="translate(234.644 85.749)" fill="#fff"/>
      <rect id="Rectángulo_358396" data-name="Rectángulo 358396" width="27.383" height="22.579" transform="translate(209.977 127.585)" fill="#c3dafc"/>
      <rect id="Rectángulo_358397" data-name="Rectángulo 358397" width="27.383" height="22.579" transform="translate(223.669 127.585)" fill="#d4e4f8"/>
      <path id="Trazado_751661" data-name="Trazado 751661" d="M1097.712,746.183h4.339l-.382-1.221.382-.872h-4.339Z" transform="translate(-887.719 -601.745)" fill="#9dc3f3"/>
      <path id="Trazado_751662" data-name="Trazado 751662" d="M1169.2,694.613h4.339l-.382-1.221.382-.872H1169.2Z" transform="translate(-945.531 -560.04)" fill="#e3f0ff"/>
      <path id="Trazado_751663" data-name="Trazado 751663" d="M1150.857,692.519h-4.339l.382,1.221-.382.872h4.339Z" transform="translate(-927.188 -560.04)" fill="#9dc3f3"/>
      <path id="Trazado_751664" data-name="Trazado 751664" d="M1294,756.3h-4.339l.382,1.221-.382.872H1294Z" transform="translate(-1042.949 -611.619)" fill="#e3f0ff"/>
      <rect id="Rectángulo_358398" data-name="Rectángulo 358398" width="7.88" height="3.066" transform="translate(241.379 129.116)" fill="#fff"/>
      <rect id="Rectángulo_358399" data-name="Rectángulo 358399" width="27.451" height="22.635" transform="translate(254.374 127.53)" fill="#c3dafc"/>
      <rect id="Rectángulo_358400" data-name="Rectángulo 358400" width="27.451" height="22.635" transform="translate(268.099 127.53)" fill="#d4e4f8"/>
      <path id="Trazado_751665" data-name="Trazado 751665" d="M1329.792,746.087h4.35l-.383-1.224.383-.875h-4.35Z" transform="translate(-1075.402 -601.663)" fill="#9dc3f3"/>
      <path id="Trazado_751666" data-name="Trazado 751666" d="M1401.455,694.39h4.35l-.383-1.224.383-.875h-4.35Z" transform="translate(-1133.356 -559.856)" fill="#e3f0ff"/>
      <path id="Trazado_751667" data-name="Trazado 751667" d="M1383.068,692.292h-4.35l.383,1.224-.383.875h4.35Z" transform="translate(-1114.968 -559.856)" fill="#9dc3f3"/>
      <path id="Trazado_751668" data-name="Trazado 751668" d="M1526.566,756.229h-4.35l.383,1.224-.383.875h4.35Z" transform="translate(-1231.015 -611.562)" fill="#e3f0ff"/>
      <rect id="Rectángulo_358401" data-name="Rectángulo 358401" width="7.899" height="3.073" transform="translate(285.854 129.064)" fill="#fff"/>
      <rect id="Rectángulo_358402" data-name="Rectángulo 358402" width="24.625" height="20.304" transform="translate(213.498 46.604)" fill="#c3dafc"/>
      <rect id="Rectángulo_358403" data-name="Rectángulo 358403" width="24.624" height="20.304" transform="translate(225.81 46.604)" fill="#d4e4f8"/>
      <path id="Trazado_751669" data-name="Trazado 751669" d="M1116.108,314.88h3.9l-.344-1.1.344-.785h-3.9Z" transform="translate(-902.596 -253.121)" fill="#9dc3f3"/>
      <path id="Trazado_751670" data-name="Trazado 751670" d="M1180.394,268.506h3.9l-.344-1.1.344-.785h-3.9Z" transform="translate(-954.584 -215.619)" fill="#e3f0ff"/>
      <path id="Trazado_751671" data-name="Trazado 751671" d="M1163.9,266.624H1160l.344,1.1-.344.785h3.9Z" transform="translate(-938.089 -215.618)" fill="#9dc3f3"/>
      <path id="Trazado_751672" data-name="Trazado 751672" d="M1292.623,323.978h-3.9l.344,1.1-.344.785h3.9Z" transform="translate(-1042.188 -262.001)" fill="#e3f0ff"/>
      <rect id="Rectángulo_358404" data-name="Rectángulo 358404" width="7.086" height="2.757" transform="translate(241.736 47.981)" fill="#fff"/>
      <rect id="Rectángulo_358405" data-name="Rectángulo 358405" width="18.664" height="15.39" transform="translate(264.373 51.502)" fill="#e6b046"/>
      <rect id="Rectángulo_358406" data-name="Rectángulo 358406" width="18.664" height="15.39" transform="translate(255.041 51.502)" fill="#f0dcc0"/>
      <path id="Trazado_751673" data-name="Trazado 751673" d="M1466.982,323.233h-2.957l.26-.832-.26-.595h2.957Z" transform="translate(-1183.956 -260.245)" fill="#12263f"/>
      <path id="Trazado_751674" data-name="Trazado 751674" d="M1418.257,288.084H1415.3l.26-.832-.26-.595h2.958Z" transform="translate(-1144.552 -231.82)" fill="#12263f"/>
      <path id="Trazado_751675" data-name="Trazado 751675" d="M1430.76,286.657h2.957l-.261.832.261.595h-2.957Z" transform="translate(-1157.055 -231.819)" fill="#12263f"/>
      <path id="Trazado_751676" data-name="Trazado 751676" d="M1333.194,330.129h2.957l-.26.832.26.595h-2.957Z" transform="translate(-1078.153 -266.975)" fill="#12263f"/>
      <rect id="Rectángulo_358407" data-name="Rectángulo 358407" width="5.371" height="2.089" transform="translate(256.263 52.545)" fill="#fff"/>
      <rect id="Rectángulo_358408" data-name="Rectángulo 358408" width="29.363" height="29.363" transform="translate(191.977 25.689)" fill="#fff"/>
      <rect id="Rectángulo_358409" data-name="Rectángulo 358409" width="26.226" height="26.226" transform="translate(193.545 27.258)" fill="#12263f"/>
      <g id="Grupo_1022504" data-name="Grupo 1022504">
        <g id="Grupo_1022503" data-name="Grupo 1022503" clip-path="url(#clip-path-2)">
          <path id="Trazado_751677" data-name="Trazado 751677" d="M622.317,502.941s-1.255-2.644-.272-4.271,4.881-1.729,4.881-1.729-.339.186-.356.356,1.119-.441,1.9.932.743,2.658-.086,4.557-6.065.154-6.065.154" transform="translate(-502.744 -401.877)" fill="#233862"/>
          <path id="Trazado_751678" data-name="Trazado 751678" d="M668.14,580.792a22.024,22.024,0,0,1-6.547-.322,7.289,7.289,0,0,1-1.33-.415,2.054,2.054,0,0,1-.963-.727,26.9,26.9,0,0,1-1.345-4.01c-1.6-5.565-3.853-14.759-3.853-14.759s4.522.923,5.479,1.711,1.8,13.287,2.7,13.624c.133.05.361.155.654.3l.043.021c.175.086.372.186.584.3,1.867.959,4.58,2.753,5.277,3.072.6.275.394.957-.7,1.21" transform="translate(-528.973 -453.324)" fill="#12263f"/>
          <path id="Trazado_751679" data-name="Trazado 751679" d="M613.7,567.95a3.571,3.571,0,0,0-.06-.639c-.582-3.2-5.209-6.411-5.3-6.411v0a2.042,2.042,0,0,1-1.958,1.469c-1.409.092-3.137-.609-3.137-1.42-.009,0-.8,0-1.067.033a11.4,11.4,0,0,0-4.348,1.468c-.918.693.379,5.065,1.182,8.161a12.384,12.384,0,0,1,.55,2.87c-.02.234-.231,3.412-.418,6.286-.155,2.372-.3,4.536-.3,4.672-.01.269,1.329,1.213,3.578,1.926a17.619,17.619,0,0,0,1.784.463,18.957,18.957,0,0,0,3.88.385c.465,0,.9-.025,1.32-.067,3.213-.315,4.313-3.976,4.294-19.2" transform="translate(-483.205 -453.599)" fill="#12263f"/>
          <path id="Trazado_751680" data-name="Trazado 751680" d="M694.172,646.965c-.108.027-.257.041-.446.068a23.827,23.827,0,0,1-2.692.027,15.237,15.237,0,0,1-4.748-.825A6.013,6.013,0,0,1,689,642.393c.825.406,2.137,1.1,3.314,1.772h.014c1.258.7,2.168,1.473,2.543,1.6.62.2.392.96-.7,1.2" transform="translate(-554.999 -519.503)" fill="#ffb27d"/>
          <path id="Trazado_751681" data-name="Trazado 751681" d="M627.373,543.6a27.248,27.248,0,0,1,.161-3.98l4.961.811s0,1.514-.022,3.193h0s.135,1.558-1.784,1.786-3.373-.608-3.321-1.811" transform="translate(-507.348 -436.393)" fill="#ffb27d"/>
          <path id="Trazado_751682" data-name="Trazado 751682" d="M647.568,886.073c-.624-.384-.257-3.229-.257-3.229s2.922-2.319,3.315-.534,2.757,2.6,4.1,2.819a1.446,1.446,0,0,1,1.3.975Z" transform="translate(-523.393 -712.978)" fill="#233862"/>
          <path id="Trazado_751683" data-name="Trazado 751683" d="M600.775,886.073c-.624-.384-.257-3.229-.257-3.229s2.921-2.319,3.315-.534,2.757,2.6,4.1,2.819a1.446,1.446,0,0,1,1.3.975Z" transform="translate(-485.552 -712.978)" fill="#233862"/>
          <path id="Trazado_751684" data-name="Trazado 751684" d="M604.38,611.542c-.01.269,1.329,1.213,3.578,1.925.181.058.369.113.562.167a.006.006,0,0,1,0,.005c.21,2.461.778,5.939,1.29,9.295h0c.133.87.261,1.731.379,2.565a51.046,51.046,0,0,1,.572,5.663v.015a22.627,22.627,0,0,1-.591,2.7c-.026.234-.047.481-.062.741a30.108,30.108,0,0,0,.047,3.568c.367,5.705,1.875,13.005,2.413,13.316,1.069.618,3.015,0,4-.145a.817.817,0,0,0,.716-.823c-.483-9.468.9-22.655,1.942-30.762q.04-.316.08-.622c.124-.956.206-1.848.258-2.653.047-.706.07-1.347.08-1.9,0-.173,0-.339,0-.495,0-.508-.4-3.83-.42-19.05a.642.642,0,0,0-.64-.639h-9.308a1.613,1.613,0,0,0-1.612,1.636,25.923,25.923,0,0,1-.279,4.329c-.343,2.113-1.079,4.088-2.6,4.563a.005.005,0,0,0,0,0c-.007.015-.048.108-.115.262v0q-.022.573-.048,1.167c0,.079-.007.16-.011.24,0,.047,0,.094-.007.141,0,.08-.008.161-.012.243q-.009.2-.02.4c-.006.107-.012.213-.018.32q-.017.309-.037.625c0,.067-.007.134-.013.2-.018.272-.036.548-.057.826-.006.085-.013.171-.019.257,0,.041-.006.083-.009.124-.008.109-.017.218-.026.328s-.019.232-.029.349c-.037.427.018.808.007,1.108" transform="translate(-488.745 -480.702)" fill="#91b3fa"/>
          <path id="Trazado_751685" data-name="Trazado 751685" d="M634.329,722.427c.367,5.705,1.875,13.005,2.413,13.316,1.069.618,3.015,0,4-.145a.817.817,0,0,0,.716-.823c-.483-9.468.9-22.655,1.942-30.762q.04-.316.08-.622c.124-.956.206-1.849.257-2.653-.493-3.214-3.277-3.387-5.8,3.262.313,2.206-3,9.912-3,11.4v.015a22.673,22.673,0,0,1-.591,2.7c-.026.234-.047.481-.063.741a30.069,30.069,0,0,0,.047,3.568" transform="translate(-512.916 -564.94)" fill="#84a2e2"/>
          <path id="Trazado_751686" data-name="Trazado 751686" d="M596.929,694.91a22.569,22.569,0,0,1-.941,2.6c-1.276,5.132-.571,17.3.061,17.787.979.753,2.989.4,3.988.382a.816.816,0,0,0,.818-.721c.785-9.7,4.036-23.012,6.127-30.846a36.76,36.76,0,0,0,1.2-6.847s-9.772-5.987-10.829-2.717c-.935,2.894.163,15.3-.426,20.36" transform="translate(-481.399 -544.718)" fill="#91b3fa"/>
          <path id="Trazado_751687" data-name="Trazado 751687" d="M616.1,561.572s2.88,3.355,3.049,6.283h-1.464a14.019,14.019,0,0,0-2.541-6.082Z" transform="translate(-497.465 -454.143)" fill="#91b3fa"/>
          <path id="Trazado_751688" data-name="Trazado 751688" d="M657.561,561.534a14.709,14.709,0,0,1,2.308,6.29h1.464a13.282,13.282,0,0,0-2.351-5.951h0c-.543-.152-1.045-.263-1.42-.339" transform="translate(-531.769 -454.112)" fill="#91b3fa"/>
          <path id="Trazado_751689" data-name="Trazado 751689" d="M592.542,580.43c.073,3.436-.355,10.277-.355,10.277h-2.027a55.4,55.4,0,0,1-1.294-9.6q0-.5,0-.929c.013-1.442.052-2.28.052-2.28-.38-8.74,1.365-13.413,1.914-14.057s3.057-1.222,3.057-1.222a34.481,34.481,0,0,1,1.166,4.357c.338,1.942-2.657,10.1-2.534,12.893.008.174.014.361.018.561" transform="translate(-476.215 -454.99)" fill="#12263f"/>
          <path id="Trazado_751690" data-name="Trazado 751690" d="M592.4,659.787c-.095,2.475-.23,4.585-.23,4.585h-2.029c-.352-1.718-.608-3.22-.811-4.5a36.492,36.492,0,0,1-.487-5.086c0-.338,0-.649.014-.933a7.054,7.054,0,0,1,3.666.257c.027,1.529-.041,3.72-.122,5.681" transform="translate(-476.2 -528.659)" fill="#ffb27d"/>
          <path id="Trazado_751691" data-name="Trazado 751691" d="M597.944,708.638c.027.555-2.394,1.826-3.125,1.488s-.757-2.259-.338-4.031,2.029,0,2.029,0a10.984,10.984,0,0,1,1.434,2.543" transform="translate(-480.535 -570.381)" fill="#ffb27d"/>
          <path id="Trazado_751692" data-name="Trazado 751692" d="M730.33,661.135h-5.154l1.15-1.271a5.459,5.459,0,0,0,2.192,0c.866-.271,1.813,1.271,1.813,1.271" transform="translate(-586.449 -533.606)" fill="#ffb27d"/>
          <path id="Trazado_751693" data-name="Trazado 751693" d="M627.628,545.848a4.17,4.17,0,0,0,2.54,1.456,3.19,3.19,0,0,0,2.525-1.569Z" transform="translate(-507.562 -441.336)" fill="#ed975d"/>
          <path id="Trazado_751694" data-name="Trazado 751694" d="M630.391,519.921a6.818,6.818,0,0,1-2.3.8,18.453,18.453,0,0,1-2.477-.7c-.59-.358-.552-1.081-.582-2.088a15.713,15.713,0,0,1-.023-2.814c.158-.821.679-1.289,2.137-1.416,2.677-.232,3.792.438,3.839,1.336.012.241.023.471.031.689.107,2.8-.114,3.791-.621,4.19" transform="translate(-505.392 -415.396)" fill="#ffb27d"/>
          <path id="Trazado_751695" data-name="Trazado 751695" d="M623.333,511.252s-.221-2.39,1.186-2.39,3.3,1.8,4.152.644.727,1.591.727,1.591l.086-3.676-5.423-.2-1.136.847Z" transform="translate(-503.76 -410.187)" fill="#233862"/>
          <rect id="Rectángulo_358410" data-name="Rectángulo 358410" width="16.91" height="13.944" transform="translate(143.108 117.759)" fill="#e6b046"/>
          <rect id="Rectángulo_358411" data-name="Rectángulo 358411" width="16.91" height="13.944" transform="translate(134.653 117.759)" fill="#f0dcc0"/>
          <path id="Trazado_751696" data-name="Trazado 751696" d="M825.1,664.507h-2.68l.236-.754-.236-.539h2.68Z" transform="translate(-665.087 -536.341)" fill="#c15e1b"/>
          <path id="Trazado_751697" data-name="Trazado 751697" d="M780.949,632.66h-2.68l.236-.754-.236-.539h2.68Z" transform="translate(-629.386 -510.587)" fill="#12263f"/>
          <path id="Trazado_751698" data-name="Trazado 751698" d="M792.276,631.368h2.68l-.236.754.236.539h-2.68Z" transform="translate(-640.713 -510.587)" fill="#12263f"/>
          <path id="Trazado_751699" data-name="Trazado 751699" d="M703.878,670.755h2.679l-.236.754.236.539h-2.679Z" transform="translate(-569.226 -542.439)" fill="#12263f"/>
          <rect id="Rectángulo_358412" data-name="Rectángulo 358412" width="4.866" height="1.893" transform="translate(135.76 118.704)" fill="#fff"/>
          <path id="Trazado_751700" data-name="Trazado 751700" d="M727.028,682.253c-.41-.267-1.341-.852-1.383-.712a.609.609,0,0,0,.14.44,3.918,3.918,0,0,0-2.424.007.988.988,0,0,0-.631.452.435.435,0,0,0,.178.673c.688.392.483.149,1.44.721a2.749,2.749,0,0,0,2.772.23l.911-.188.055-1.511s-.525-.042-1.058-.11" transform="translate(-584.398 -551.145)" fill="#ffb27d"/>
          <path id="Trazado_751701" data-name="Trazado 751701" d="M847.1,582.858s-2.6,2.122-5.105.561a8.34,8.34,0,0,1-.132-2.556c.023-.128.045-.252.065-.37.2-1.171.288-1.835.288-1.835h0c.133-.028,4.455-.923,4.426-.787a7.242,7.242,0,0,0,.456,4.987" transform="translate(-680.767 -467.312)" fill="#ffb27d"/>
          <path id="Trazado_751702" data-name="Trazado 751702" d="M846.622,581.2a6.386,6.386,0,0,1-4.173,1.944c.2-1.171.288-1.834.288-1.834h0a26.246,26.246,0,0,1,3.882-.109" transform="translate(-681.288 -469.966)" fill="#ed975d"/>
          <path id="Trazado_751703" data-name="Trazado 751703" d="M838,550.484s4.314,1.907,5.461-.8,2.475-4.281-.231-5.613-3.682-.528-4.285.282-2.038,5.563-.945,6.129" transform="translate(-677.364 -439.418)" fill="#ffb27d"/>
          <path id="Trazado_751704" data-name="Trazado 751704" d="M839.906,541.041c.054.051.97.531,3.5-2.787a3.246,3.246,0,0,0,.36-2.954c-.467-1.225-2.691-2.537-4.6-3.285s-2.6.279-3.274,1.312a6.158,6.158,0,0,1-2.308,1.789c1.531,1.276,3.846.3,4.517.654s.712,1.53.7,1.9.012.685.969.531.167,1.347-.033,1.625c0,0-.274.789.179,1.215" transform="translate(-674.112 -430.033)" fill="#a9453d"/>
          <path id="Trazado_751705" data-name="Trazado 751705" d="M900.808,927.883h2.78c.583,0,1.231-.584,1.393-1.652s1.36-1.652,1.619-2.527-1.069-2.106-1.069-2.106l-.222-.286-.231-.3-2.2.518s-.055.524-.088,1.192a15.265,15.265,0,0,0-.009,1.529c.065,1.167-.327,2.422-1.363,2.649s-.608.979-.608.979" transform="translate(-728.412 -744.825)" fill="#2c3a64"/>
          <path id="Trazado_751706" data-name="Trazado 751706" d="M800,939.952h7.37a.653.653,0,0,0,.157-.045c.492-.246.338-2.13.279-2.712-.011-.108-.02-.171-.02-.171s-2.591-2.073-2.948-.486c-.011.05-.024.1-.038.146h0c-.45,1.485-2.461,2.16-3.623,2.348a1.265,1.265,0,0,0-1.177.92" transform="translate(-646.957 -756.894)" fill="#2c3a64"/>
          <path id="Trazado_751707" data-name="Trazado 751707" d="M807.761,731.868s.394,4.91.857,10.813c.629,8.019,1.385,17.868,1.46,19.734.129,3.24.648,8.423.648,8.423a4.075,4.075,0,0,0,3.693.712,84.792,84.792,0,0,0,2.821-15.227c.01-.128.019-.258.029-.387.583-7.969,1.49-24.749,1.49-24.749Z" transform="translate(-653.236 -591.311)" fill="#57dbd8"/>
          <path id="Trazado_751708" data-name="Trazado 751708" d="M815.353,731.54a30.583,30.583,0,0,0,1.162,8.813c1.04,4.218,6.85,15.97,6.85,15.97.01-.128.019-.258.029-.387.583-7.969,1.49-24.749,1.49-24.749Z" transform="translate(-659.361 -591.311)" fill="#ed823a"/>
          <path id="Trazado_751709" data-name="Trazado 751709" d="M815.428,723.324s7.425,18.695,12.09,27.052,6.123,10.69,6.123,10.69,2.672-1.069,2.915-1.8c0,0-1.784-16.135-4.908-20.068-1.765-2.222-3.839-8.892-3.936-11.225s-.632-6.949-.632-6.949Z" transform="translate(-659.436 -583.094)" fill="#57dbd8"/>
          <path id="Trazado_751710" data-name="Trazado 751710" d="M813.461,622.349c1.039.063,12-.352,12-.964a94.638,94.638,0,0,1,1.011-9.762q.153-1.17.241-2.319a35.265,35.265,0,0,0,.012-5.645,10.863,10.863,0,0,0-3.039-7.028c-.183-.153-.859.359-1.993.819a3.964,3.964,0,0,1-2.817-.143l-1.2,1.059a11.354,11.354,0,0,0-2.6,3.637s-1.713,20.341-1.62,20.347" transform="translate(-657.842 -482.472)" fill="#12263f"/>
          <path id="Trazado_751711" data-name="Trazado 751711" d="M810.474,624.826l2.994.7,4.12,11.159a4.081,4.081,0,0,0,3.828,2.667l-.361,5.509-13.294,1Z" transform="translate(-653.236 -505.296)" fill="#57dbd8"/>
          <path id="Trazado_751712" data-name="Trazado 751712" d="M746.835,635.2c-.094-.872.353-1.035.353-1.035s8.825-1.954,9.571-2.221,6.947-7.237,6.947-7.237,2.368-2.888,4.42-2.35a3.814,3.814,0,0,1,2.81,3.115A3.86,3.86,0,0,1,769.3,629.5c-2.961,1.978-8.891,5.878-10.3,6.352-3.147,1.056-11.731.529-11.731.529a2.764,2.764,0,0,1-.426-1.181" transform="translate(-603.954 -503.245)" fill="#12263f"/>
          <path id="Trazado_751713" data-name="Trazado 751713" d="M835.369,599.575c.7-.648,2.932-2.427,2.932-2.427l-.421-.408a16.174,16.174,0,0,0-3.378,2.36c-.927.825-3.5,3.52-3.5,3.52l1.261.188s2.282-2.47,3.1-3.232" transform="translate(-672.033 -482.582)" fill="#57dbd8"/>
          <path id="Trazado_751714" data-name="Trazado 751714" d="M1753.937,922.677h-17.469a3.865,3.865,0,0,1-3.854-3.854V903.05a3.865,3.865,0,0,1,3.854-3.853h17.469a3.865,3.865,0,0,1,3.854,3.853v15.773a3.865,3.865,0,0,1-3.854,3.854" transform="translate(-1401.164 -727.18)" fill="#163560"/>
          <path id="Trazado_751715" data-name="Trazado 751715" d="M1586.08,709.317a9.956,9.956,0,0,1-1.934-.054c-.327-.133-1.225-.662-1.094-1.256.081-.37.748.219,1.02.11s-.555-.188-.6-.328.681-.213.941-.258,1.01.557,1.6.719.059,1.067.059,1.067" transform="translate(-1280.203 -572.178)" fill="#ffb27d"/>
          <path id="Trazado_751716" data-name="Trazado 751716" d="M1619.224,686.225s-2.231,2.524-4.939,2.886-6.709,1.165-7.943,1.177-8.238-2.167-8.238-2.167a.962.962,0,0,1,.021-.721,1.188,1.188,0,0,1,.5-.672s4.8.118,7.041.431c.931.13,7.273-3.652,8.267-5.932.39-.9,5.294,5,5.294,5" transform="translate(-1292.343 -550.833)" fill="#e6b046"/>
          <rect id="Rectángulo_358413" data-name="Rectángulo 358413" width="44.36" height="36.578" transform="translate(217.047 157.624)" fill="#e6b046"/>
          <rect id="Rectángulo_358414" data-name="Rectángulo 358414" width="44.36" height="36.578" transform="translate(194.867 157.624)" fill="#f0dcc0"/>
          <path id="Trazado_751717" data-name="Trazado 751717" d="M1336.622,952.34h-7.029l.619-1.978-.619-1.414h7.029Z" transform="translate(-1075.241 -767.414)" fill="#12263f"/>
          <path id="Trazado_751718" data-name="Trazado 751718" d="M1220.814,868.8h-7.029l.619-1.978-.619-1.414h7.029Z" transform="translate(-981.587 -699.854)" fill="#12263f"/>
          <path id="Trazado_751719" data-name="Trazado 751719" d="M1250.528,865.407h7.029l-.619,1.978.619,1.413h-7.029Z" transform="translate(-1011.301 -699.854)" fill="#12263f"/>
          <path id="Trazado_751720" data-name="Trazado 751720" d="M1018.638,968.729h7.029l-.62,1.978.62,1.413h-7.029Z" transform="translate(-823.772 -783.411)" fill="#12263f"/>
          <rect id="Rectángulo_358415" data-name="Rectángulo 358415" width="12.765" height="4.966" transform="translate(197.771 160.105)" fill="#fff"/>
          <rect id="Rectángulo_358416" data-name="Rectángulo 358416" width="44.36" height="36.578" transform="translate(212.267 121.08)" fill="#e6b046"/>
          <rect id="Rectángulo_358417" data-name="Rectángulo 358417" width="44.36" height="36.578" transform="translate(190.087 121.08)" fill="#f0dcc0"/>
          <path id="Trazado_751721" data-name="Trazado 751721" d="M1311.635,761.31h-7.029l.619-1.978-.619-1.413h7.029Z" transform="translate(-1055.034 -612.928)" fill="#12263f"/>
          <path id="Trazado_751722" data-name="Trazado 751722" d="M1195.827,677.767H1188.8l.619-1.978-.619-1.413h7.029Z" transform="translate(-961.38 -545.367)" fill="#12263f"/>
          <path id="Trazado_751723" data-name="Trazado 751723" d="M1225.542,674.376h7.029l-.619,1.978.619,1.414h-7.029Z" transform="translate(-991.095 -545.368)" fill="#12263f"/>
          <path id="Trazado_751724" data-name="Trazado 751724" d="M993.652,777.7h7.029l-.619,1.978.619,1.413h-7.029Z" transform="translate(-803.565 -628.924)" fill="#12263f"/>
          <rect id="Rectángulo_358418" data-name="Rectángulo 358418" width="12.765" height="4.966" transform="translate(192.992 123.56)" fill="#fff"/>
          <rect id="Rectángulo_358419" data-name="Rectángulo 358419" width="11.765" height="92.873" transform="translate(269.119 103.739)" fill="#163560"/>
          <path id="Trazado_751725" data-name="Trazado 751725" d="M1655.2,846.843h-29.811a4.008,4.008,0,0,1-4-4v-7.481a4.008,4.008,0,0,1,4-4H1655.2a4.008,4.008,0,0,1,4,4v7.481a4.008,4.008,0,0,1-4,4" transform="translate(-1311.22 -672.328)" fill="#699dee"/>
          <path id="Trazado_751726" data-name="Trazado 751726" d="M1485.349,899.634l47.89,1.941V881.808l-48.684.794Z" transform="translate(-1200.559 -713.117)" fill="#234884"/>
          <path id="Trazado_751727" data-name="Trazado 751727" d="M1424.122,935.384a14.826,14.826,0,1,1,14.826,14.826,14.826,14.826,0,0,1-14.826-14.826" transform="translate(-1151.687 -744.455)" fill="#2a4e96"/>
          <path id="Trazado_751728" data-name="Trazado 751728" d="M1456.962,961.942a8.544,8.544,0,1,1,8.544,8.544,8.544,8.544,0,0,1-8.544-8.544" transform="translate(-1178.244 -771.012)" fill="#163560"/>
          <path id="Trazado_751729" data-name="Trazado 751729" d="M1787.45,965.083a11.685,11.685,0,1,1,11.685,11.685,11.685,11.685,0,0,1-11.685-11.685" transform="translate(-1445.51 -771.012)" fill="#2a4e96"/>
          <path id="Trazado_751730" data-name="Trazado 751730" d="M1813.333,986.014a6.733,6.733,0,1,1,6.734,6.734,6.733,6.733,0,0,1-6.734-6.734" transform="translate(-1466.441 -791.944)" fill="#163560"/>
          <path id="Trazado_751731" data-name="Trazado 751731" d="M1627.163,815.378V824.2h-12.355l-29.535,19.415v14.427H1614.5a5.533,5.533,0,0,0,5.533-5.533v-3.261a10.754,10.754,0,0,1,4.631-8.841h0a9.746,9.746,0,0,1,5.55-1.734h9.328a4.57,4.57,0,0,0,4.57-4.57V820.274a4.9,4.9,0,0,0-4.9-4.9Z" transform="translate(-1282.01 -659.396)" fill="#e6b046"/>
          <path id="Trazado_751732" data-name="Trazado 751732" d="M1472.339,631.4l-4.054-.446,22.775-53.981a18.985,18.985,0,0,1,17.527-11.628h19.105a8.552,8.552,0,0,1,8.542,8.542V622h-3.883V573.888a4.665,4.665,0,0,0-4.659-4.659h-19.105a15.11,15.11,0,0,0-13.949,9.254Z" transform="translate(-1187.401 -457.195)" fill="#163560"/>
          <path id="Trazado_751733" data-name="Trazado 751733" d="M1459.486,926.888a1.059,1.059,0,0,1-1.059-1.059V914.965a13.58,13.58,0,0,0-13.565-13.565,1.094,1.094,0,0,1-.124-.007c-.082-.01-8.4-.9-14.754,4.049a1.059,1.059,0,0,1-1.3-1.671c6.823-5.317,15.343-4.583,16.238-4.489a15.7,15.7,0,0,1,15.624,15.683v10.864a1.059,1.059,0,0,1-1.059,1.059" transform="translate(-1155.045 -727.18)" fill="#163560"/>
          <rect id="Rectángulo_358420" data-name="Rectángulo 358420" width="77.719" height="2.842" transform="translate(191.4 193.771)" fill="#163560"/>
          <rect id="Rectángulo_358421" data-name="Rectángulo 358421" width="2.648" height="33.217" transform="translate(266.471 163.395)" fill="#163560"/>
          <path id="Trazado_751734" data-name="Trazado 751734" d="M1663.665,730.425l-1.4,17.781h-22.057s-1.167-4.969,2.492-5.186,12.422-1.538,12.422-1.538-.431-11.044,6.319-12.886a1.766,1.766,0,0,1,2.226,1.828" transform="translate(-1326.291 -589.165)" fill="#2a4e96"/>
          <path id="Trazado_751735" data-name="Trazado 751735" d="M1677.168,656.335a7.819,7.819,0,0,1-4.71.986s-.484-.123-.246-.692a7.167,7.167,0,0,1-.218-.759,11.436,11.436,0,0,1-.281-1.238l1.391-1.462,1.317-1.4a5.844,5.844,0,0,0,2.747,4.562" transform="translate(-1351.913 -527.089)" fill="#ffb27d"/>
          <path id="Trazado_751736" data-name="Trazado 751736" d="M1674.318,658.392a5.447,5.447,0,0,1-2.638,2.831c-.215-.785-.355-1.606-.355-1.606l1.465-1.093Z" transform="translate(-1351.599 -532.441)" fill="#ed985f"/>
          <path id="Trazado_751737" data-name="Trazado 751737" d="M1659.482,636.538s4.313.539,4.616-2.111,1.064-4.366-1.678-4.822-3.392.5-3.712,1.357-.34,5.368.774,5.576" transform="translate(-1341.243 -509.065)" fill="#ffb27d"/>
          <path id="Trazado_751738" data-name="Trazado 751738" d="M1659.091,622.237c.037-.046.126-.085.325-.1a.816.816,0,0,0-.377-.091,1,1,0,0,0-.7-.863.6.6,0,0,1,.307.421c-.575-.548-1.777-.917-5.052-.533-4.317.505-2.785,3.224-2.212,3.533s1.95-.65,3-.607,1.3,1.545,1.665,1.739.209-.167.68-.4.547.558.428,1.079.566,1.178.566,1.178l.638-.742a7.461,7.461,0,0,0,.824-4.437l-.087-.17" transform="translate(-1334.874 -502.128)" fill="#2c3a64"/>
          <path id="Trazado_751739" data-name="Trazado 751739" d="M1595.722,761.992s-19.672.88-22.356,2.826-7.379,18.372-7.379,18.372.953.828,3.777,0a52.805,52.805,0,0,0,5.5-8.535c1.35-3.084,1.833-4.638,2.411-4.48,1.23.336,13.844.771,17.571-1.635,2.387-1.541.165-6.55.48-6.548" transform="translate(-1266.413 -616.223)" fill="#163560"/>
          <path id="Trazado_751740" data-name="Trazado 751740" d="M1666.48,673.508s2.521,2.074,3.318,8.268,1.686,11.642,1.2,11.863c-3.448,1.556-12.725-.033-12.493-3.719s1.083-14.606,3.269-15.575a11.729,11.729,0,0,1,4.71-.838" transform="translate(-1341.225 -544.661)" fill="#f0dcc0"/>
          <path id="Trazado_751741" data-name="Trazado 751741" d="M1584.325,714.832h0a.807.807,0,0,1-1.053-.433l-4.085-9.788a.8.8,0,1,1,1.485-.62l4.086,9.788a.807.807,0,0,1-.433,1.053" transform="translate(-1277.037 -568.918)" fill="#163560"/>
          <path id="Trazado_751742" data-name="Trazado 751742" d="M1591.31,728.021a9.936,9.936,0,0,1-1.9.364c-.348-.059-1.339-.382-1.339-.99,0-.379.777.052,1.019-.113s-.582-.064-.652-.192.62-.354.864-.454,1.107.326,1.72.356.288,1.029.288,1.029" transform="translate(-1284.272 -587.618)" fill="#ffb27d"/>
          <path id="Trazado_751743" data-name="Trazado 751743" d="M1624.2,685s-1.634,2.946-4.2,3.884-6.3,2.584-7.5,2.861-8.511-.34-8.511-.34a.963.963,0,0,1-.135-.709,1.188,1.188,0,0,1,.341-.763s4.713-.919,6.968-1.1c.937-.074,6.315-5.134,6.794-7.575.188-.959,6.247,3.739,6.247,3.739" transform="translate(-1297.024 -550.833)" fill="#f0dcc0"/>
          <path id="Trazado_751744" data-name="Trazado 751744" d="M1553.252,865.708s.222,2.57-.321,2.837l-6.952-.014s0-.8,1.117-.981,3.078-.832,3.411-2.288,2.746.446,2.746.446" transform="translate(-1250.232 -699.293)" fill="#163560"/>
          <path id="Trazado_751745" data-name="Trazado 751745" d="M1543.619,726.621h3.157a1.938,1.938,0,0,1,1.824,1.283l.913,2.539a1.939,1.939,0,0,1-.11,1.561l-.524.993a7.794,7.794,0,0,1-6.335,4.135l-3.851.276,3.082-9.45a1.939,1.939,0,0,1,1.843-1.338" transform="translate(-1244.34 -587.618)" fill="#163560"/>
          <rect id="Rectángulo_358422" data-name="Rectángulo 358422" width="2.302" height="40.537" transform="translate(96.818 147.913)" fill="#b0c0d2"/>
          <path id="Trazado_751746" data-name="Trazado 751746" d="M476.23,768.745h5.726a1.691,1.691,0,0,0,0-3.382H476.23a1.691,1.691,0,0,0,0,3.382" transform="translate(-383.759 -618.949)" fill="#2a4e96"/>
          <path id="Trazado_751747" data-name="Trazado 751747" d="M517.254,879.146c.279.024,12.417,7.2,12.417,7.2v10.472H517.045Z" transform="translate(-418.134 -710.965)" fill="#b0c0d2"/>
          <path id="Trazado_751748" data-name="Trazado 751748" d="M859.018,973.173a3.43,3.43,0,1,0-3.43,3.431,3.43,3.43,0,0,0,3.43-3.431" transform="translate(-689.139 -784.231)" fill="#2a4e96"/>
          <path id="Trazado_751749" data-name="Trazado 751749" d="M863.154,978.592a2.149,2.149,0,1,0-2.149,2.149,2.149,2.149,0,0,0,2.149-2.149" transform="translate(-694.557 -789.649)" fill="#183e7a"/>
          <rect id="Rectángulo_358423" data-name="Rectángulo 358423" width="74.501" height="3.084" transform="translate(96.818 185.366)" fill="#b0c0d2"/>
          <path id="Trazado_751750" data-name="Trazado 751750" d="M500.5,953.932a5.466,5.466,0,1,0-5.466,5.466,5.466,5.466,0,0,0,5.466-5.466" transform="translate(-395.913 -767.024)" fill="#2a4e96"/>
          <path id="Trazado_751751" data-name="Trazado 751751" d="M507.09,962.565a3.423,3.423,0,1,0-3.423,3.423,3.423,3.423,0,0,0,3.423-3.423" transform="translate(-404.546 -775.657)" fill="#183e7a"/>
          <path id="Trazado_751752" data-name="Trazado 751752" d="M488.979,755.152s2.633,1.047,2.772,1.535.14,2.372-.558,2.372-1.43-1.6-1.744-1.639-1.186-.244-1.291-.628.82-1.639.82-1.639" transform="translate(-394.767 -610.691)" fill="#ffb27d"/>
          <path id="Trazado_751753" data-name="Trazado 751753" d="M407.87,678.175c.376-.792.008-1.093.008-1.093s-7.689-4.753-8.305-5.251-4.175-9.122-4.175-9.122-1.284-3.508-3.4-3.675a3.814,3.814,0,0,0-3.679,2.016,3.86,3.86,0,0,0,.219,4.343c2.144,2.843,6.458,8.479,7.637,9.392,2.623,2.034,10.9,4.364,10.9,4.364a2.759,2.759,0,0,0,.792-.975" transform="translate(-313.577 -532.95)" fill="#1f437c"/>
          <path id="Trazado_751754" data-name="Trazado 751754" d="M378.994,985.591h-7.37a.673.673,0,0,1-.156-.045c-.492-.246-.338-2.13-.279-2.712.011-.108.02-.171.02-.171s2.592-2.073,2.948-.485c.011.05.024.1.038.146h0c.45,1.485,2.461,2.159,3.623,2.348a1.265,1.265,0,0,1,1.177.92" transform="translate(-300.123 -793.802)" fill="#2c3a64"/>
          <path id="Trazado_751755" data-name="Trazado 751755" d="M387.847,625.255s1.753,2.859,4.636,2.211a8.338,8.338,0,0,0,.966-2.37c.02-.128.041-.253.061-.371.193-1.173.332-1.827.332-1.827h0c-.116-.07-3.9-2.34-3.919-2.2a7.241,7.241,0,0,1-2.073,4.559" transform="translate(-313.652 -501.952)" fill="#ffb27d"/>
          <path id="Trazado_751756" data-name="Trazado 751756" d="M400.2,624.907a6.386,6.386,0,0,0,3.3,3.21c.193-1.173.332-1.827.332-1.827h0a26.283,26.283,0,0,0-3.629-1.382" transform="translate(-323.638 -505.344)" fill="#ed975d"/>
          <path id="Trazado_751757" data-name="Trazado 751757" d="M402.091,599.086s-4.7.379-4.893-2.552-.927-4.857,2.067-5.224,3.651.715,3.953,1.677.092,5.924-1.127,6.1" transform="translate(-321.036 -478.133)" fill="#ffb27d"/>
          <path id="Trazado_751758" data-name="Trazado 751758" d="M387.776,588.087c-.068.03-1.09.182-2.382-3.783a3.247,3.247,0,0,1,.633-2.908c.845-1,3.377-1.509,5.428-1.585s2.36,1.119,2.659,2.318a6.157,6.157,0,0,0,1.59,2.449c-1.865.7-3.728-.988-4.48-.871s-1.177,1.21-1.285,1.564-.237.643-1.09.182-.6,1.217-.5,1.546c0,0,0,.835-.569,1.088" transform="translate(-311.576 -468.889)" fill="#2a4e96"/>
          <path id="Trazado_751759" data-name="Trazado 751759" d="M286.475,973.523h-2.78c-.583,0-1.231-.584-1.393-1.652s-1.36-1.652-1.62-2.527,1.069-2.106,1.069-2.106l.222-.285.231-.3,2.2.518s.054.524.088,1.192a15.257,15.257,0,0,1,.009,1.529c-.065,1.167.327,2.422,1.363,2.649s.608.979.608.979" transform="translate(-226.96 -781.733)" fill="#2c3a64"/>
          <path id="Trazado_751760" data-name="Trazado 751760" d="M358.033,777.506s-.394,4.911-.856,10.813c-.629,8.019-1.385,17.868-1.46,19.734-.129,3.24-.648,8.423-.648,8.423a4.074,4.074,0,0,1-3.693.712,84.768,84.768,0,0,1-2.821-15.226c-.01-.128-.02-.258-.029-.387-.583-7.969-1.49-24.749-1.49-24.749Z" transform="translate(-280.648 -628.219)" fill="#e6b046"/>
          <path id="Trazado_751761" data-name="Trazado 751761" d="M356.045,778.477s.775,1.767-.642,7.516c-1.04,4.218-6.85,15.97-6.85,15.97l-.029-.387c-.583-7.969-1.49-24.75-1.49-24.75Z" transform="translate(-280.647 -628.22)" fill="#cc962b"/>
          <path id="Trazado_751762" data-name="Trazado 751762" d="M307.539,768.964s-7.425,18.695-12.09,27.052-6.123,10.69-6.123,10.69-2.672-1.069-2.915-1.8c0,0,1.784-16.135,4.908-20.068,1.765-2.222,3.839-8.892,3.936-11.225s.632-6.948.632-6.948Z" transform="translate(-231.62 -620.003)" fill="#e6b046"/>
          <path id="Trazado_751763" data-name="Trazado 751763" d="M352.249,666.164c-1-.283-11.215-4.286-11.016-4.865a94.552,94.552,0,0,0,2.262-9.55q.241-1.155.537-2.269a35.249,35.249,0,0,1,1.849-5.334,10.864,10.864,0,0,1,5.184-5.635c.223-.084.693.623,1.611,1.43a3.965,3.965,0,0,0,2.707.793l.787,1.4a11.361,11.361,0,0,1,1.253,4.289s-5.084,19.769-5.173,19.745" transform="translate(-275.953 -516.358)" fill="#2a4e96"/>
          <path id="Trazado_751764" data-name="Trazado 751764" d="M353.147,678.485l-3.056-.329-7.567,9.179a4.081,4.081,0,0,1-4.492,1.257l-2.088,6.5,12.839,4.144Z" transform="translate(-271.677 -548.424)" fill="#e6b046"/>
          <path id="Trazado_751765" data-name="Trazado 751765" d="M391.825,642.046c-.445-.841-1.969-3.257-1.969-3.257l.532-.247a16.176,16.176,0,0,1,2.412,3.341c.6,1.084,2.143,4.475,2.143,4.475l-1.253-.238s-1.341-3.084-1.865-4.074" transform="translate(-315.276 -516.388)" fill="#e6b046"/>
          <path id="Trazado_751766" data-name="Trazado 751766" d="M471.884,760.214s2.633,1.047,2.773,1.535.14,2.372-.558,2.372-1.43-1.6-1.744-1.639-1.186-.244-1.291-.628.82-1.639.82-1.639" transform="translate(-380.943 -614.785)" fill="#ffb27d"/>
          <path id="Trazado_751767" data-name="Trazado 751767" d="M390.308,684.956c.376-.792.008-1.093.008-1.093s-7.689-4.753-8.305-5.25-4.175-9.122-4.175-9.122-1.285-3.507-3.4-3.675a3.814,3.814,0,0,0-3.679,2.016,3.859,3.859,0,0,0,.219,4.343c2.144,2.843,6.458,8.479,7.637,9.393,2.623,2.034,10.9,4.364,10.9,4.364a2.763,2.763,0,0,0,.792-.975" transform="translate(-299.375 -538.433)" fill="#2a4e96"/>
          <rect id="Rectángulo_358424" data-name="Rectángulo 358424" width="31.155" height="25.689" transform="translate(133.145 160.013)" fill="#e6b046"/>
          <rect id="Rectángulo_358425" data-name="Rectángulo 358425" width="31.155" height="25.689" transform="translate(117.568 160.013)" fill="#f0dcc0"/>
          <path id="Trazado_751768" data-name="Trazado 751768" d="M837.892,926.612h-4.937l.435-1.389-.435-.993h4.937Z" transform="translate(-673.611 -747.424)" fill="#12263f"/>
          <path id="Trazado_751769" data-name="Trazado 751769" d="M756.559,867.939h-4.937l.435-1.389-.435-.992h4.937Z" transform="translate(-607.836 -699.976)" fill="#12263f"/>
          <path id="Trazado_751770" data-name="Trazado 751770" d="M777.428,865.557h4.937l-.435,1.389.435.992h-4.937Z" transform="translate(-628.706 -699.975)" fill="#12263f"/>
          <path id="Trazado_751771" data-name="Trazado 751771" d="M614.566,938.123H619.5l-.435,1.389.435.993h-4.937Z" transform="translate(-496.999 -758.659)" fill="#12263f"/>
          <rect id="Rectángulo_358426" data-name="Rectángulo 358426" width="8.965" height="3.488" transform="translate(119.607 161.755)" fill="#fff"/>
          <rect id="Rectángulo_358427" data-name="Rectángulo 358427" width="18.664" height="15.39" transform="translate(133.145 144.888)" fill="#e6b046"/>
          <rect id="Rectángulo_358428" data-name="Rectángulo 358428" width="18.664" height="15.39" transform="translate(142.477 144.888)" fill="#f0dcc0"/>
          <path id="Trazado_751772" data-name="Trazado 751772" d="M696.056,811.4h2.958l-.261-.833.261-.594h-2.958Z" transform="translate(-562.9 -655.024)" fill="#12263f"/>
          <path id="Trazado_751773" data-name="Trazado 751773" d="M744.781,776.25h2.958l-.26-.832.26-.594h-2.958Z" transform="translate(-602.304 -626.599)" fill="#12263f"/>
          <path id="Trazado_751774" data-name="Trazado 751774" d="M732.278,774.823h-2.958l.261.832-.261.595h2.958Z" transform="translate(-589.801 -626.599)" fill="#12263f"/>
          <path id="Trazado_751775" data-name="Trazado 751775" d="M829.844,818.294h-2.957l.26.832-.26.595h2.957Z" transform="translate(-668.702 -661.754)" fill="#12263f"/>
          <rect id="Rectángulo_358429" data-name="Rectángulo 358429" width="5.371" height="2.089" transform="translate(154.548 145.932)" fill="#fff"/>
          <path id="Trazado_751776" data-name="Trazado 751776" d="M121.792,182.651H111.2v-2.1l5-5.328q.564-.617.951-1.125a8.448,8.448,0,0,0,.626-.934,3.634,3.634,0,0,0,.34-.792,2.649,2.649,0,0,0,.1-.706,2.367,2.367,0,0,0-.52-1.619,1.882,1.882,0,0,0-1.486-.589,2.219,2.219,0,0,0-.96.2,1.92,1.92,0,0,0-.7.541,2.386,2.386,0,0,0-.43.822,3.482,3.482,0,0,0-.148,1.041H110.89a5.224,5.224,0,0,1,.372-1.964,4.737,4.737,0,0,1,1.072-1.615,5.133,5.133,0,0,1,1.693-1.091,5.88,5.88,0,0,1,2.234-.4,7.083,7.083,0,0,1,2.16.3,4.371,4.371,0,0,1,1.576.866,3.619,3.619,0,0,1,.966,1.378,4.882,4.882,0,0,1,.329,1.838,4.663,4.663,0,0,1-.244,1.5,6.973,6.973,0,0,1-.691,1.442,11.784,11.784,0,0,1-1.076,1.459q-.632.739-1.408,1.533l-2.727,2.878h6.645Z" transform="translate(-89.677 -135.041)" fill="#fff"/>
          <path id="Trazado_751777" data-name="Trazado 751777" d="M1057.015,173.568h1.635a2.306,2.306,0,0,0,1.73-.584,2.146,2.146,0,0,0,.562-1.551,2.409,2.409,0,0,0-.127-.792,1.629,1.629,0,0,0-.387-.624,1.8,1.8,0,0,0-.653-.409,2.812,2.812,0,0,0-1.725-.028,2.091,2.091,0,0,0-.657.345,1.657,1.657,0,0,0-.447.548,1.578,1.578,0,0,0-.164.726h-3.068a3.767,3.767,0,0,1,.4-1.736,4,4,0,0,1,1.083-1.325,5.09,5.09,0,0,1,1.609-.85,6.327,6.327,0,0,1,1.973-.3,7.551,7.551,0,0,1,2.129.282,4.707,4.707,0,0,1,1.65.838,3.8,3.8,0,0,1,1.072,1.381,4.464,4.464,0,0,1,.382,1.9,3.255,3.255,0,0,1-.154.987,3.334,3.334,0,0,1-.457.919,4.163,4.163,0,0,1-.737.794,4.252,4.252,0,0,1-1,.622,3.854,3.854,0,0,1,1.948,1.4,3.8,3.8,0,0,1,.642,2.208,4.315,4.315,0,0,1-.42,1.932,4.121,4.121,0,0,1-1.151,1.427,5.159,5.159,0,0,1-1.736.881,7.435,7.435,0,0,1-2.17.3,7.08,7.08,0,0,1-1.931-.266,5.09,5.09,0,0,1-1.683-.817,4.215,4.215,0,0,1-1.188-1.386,4.084,4.084,0,0,1-.452-1.977h3.068a1.832,1.832,0,0,0,.642,1.416,2.266,2.266,0,0,0,.717.409,2.648,2.648,0,0,0,.9.147,3.01,3.01,0,0,0,.976-.147,2.024,2.024,0,0,0,.737-.431,1.857,1.857,0,0,0,.462-.668,2.249,2.249,0,0,0,.16-.866,2.873,2.873,0,0,0-.175-1.056,1.755,1.755,0,0,0-.505-.716,2.109,2.109,0,0,0-.8-.409,3.893,3.893,0,0,0-1.056-.132h-1.635Z" transform="translate(-851.983 -135.041)" fill="#fff"/>
        </g>
      </g>
    </g>
  </g>
</svg>
