<svg xmlns="http://www.w3.org/2000/svg" width="59" height="51" viewBox="0 0 59 51">
  <g id="Grupo_1137113" data-name="Grupo 1137113" transform="translate(-705.051 -8812)">
    <rect id="Rectángulo_414869" data-name="Rectángulo 414869" width="59" height="51" transform="translate(705.051 8812)" fill="#91b3fa"/>
    <path id="Trazado_960502" data-name="Trazado 960502" d="M11.064-6.173A7.563,7.563,0,0,1,9.782-1.436,4.474,4.474,0,0,1,6.029.205,4.505,4.505,0,0,1,2.3-1.4,7.342,7.342,0,0,1,.974-6.019V-8.767a7.464,7.464,0,0,1,1.3-4.748,4.507,4.507,0,0,1,3.738-1.62,4.512,4.512,0,0,1,3.732,1.6,7.319,7.319,0,0,1,1.323,4.609ZM8.1-9.194a5.467,5.467,0,0,0-.508-2.7,1.715,1.715,0,0,0-1.584-.847,1.685,1.685,0,0,0-1.543.806,5.116,5.116,0,0,0-.528,2.52v3.633a5.739,5.739,0,0,0,.5,2.715,1.693,1.693,0,0,0,1.594.888A1.664,1.664,0,0,0,7.6-3.036a5.6,5.6,0,0,0,.5-2.607ZM23.3,0H13.063V-2.03l4.83-5.147a11.914,11.914,0,0,0,1.471-1.9,3.048,3.048,0,0,0,.477-1.538,2.28,2.28,0,0,0-.5-1.564,1.814,1.814,0,0,0-1.436-.569,1.956,1.956,0,0,0-1.584.692,2.742,2.742,0,0,0-.579,1.82H12.766a4.894,4.894,0,0,1,.651-2.492,4.589,4.589,0,0,1,1.841-1.769,5.594,5.594,0,0,1,2.7-.641,5.3,5.3,0,0,1,3.584,1.107A3.918,3.918,0,0,1,22.815-10.9a5.02,5.02,0,0,1-.574,2.256,12.536,12.536,0,0,1-1.969,2.676L16.878-2.389H23.3Z" transform="translate(723.051 8845)" fill="#12263f"/>
  </g>
</svg>
