<svg xmlns="http://www.w3.org/2000/svg" width="59" height="51" viewBox="0 0 59 51">
  <g id="Grupo_1137115" data-name="Grupo 1137115" transform="translate(-1125.051 -8812)">
    <rect id="Rectángulo_414872" data-name="Rectángulo 414872" width="59" height="51" transform="translate(1125.051 8812)" fill="#91b3fa"/>
    <path id="Trazado_960504" data-name="Trazado 960504" d="M11.064-6.173A7.563,7.563,0,0,1,9.782-1.436,4.474,4.474,0,0,1,6.029.205,4.505,4.505,0,0,1,2.3-1.4,7.342,7.342,0,0,1,.974-6.019V-8.767a7.464,7.464,0,0,1,1.3-4.748,4.507,4.507,0,0,1,3.738-1.62,4.512,4.512,0,0,1,3.732,1.6,7.319,7.319,0,0,1,1.323,4.609ZM8.1-9.194a5.467,5.467,0,0,0-.508-2.7,1.715,1.715,0,0,0-1.584-.847,1.685,1.685,0,0,0-1.543.806,5.116,5.116,0,0,0-.528,2.52v3.633a5.739,5.739,0,0,0,.5,2.715,1.693,1.693,0,0,0,1.594.888A1.664,1.664,0,0,0,7.6-3.036a5.6,5.6,0,0,0,.5-2.607Zm13.73,3.575h1.692V-3.23H21.831V0H18.867V-3.23H12.746L12.612-5.1l6.224-9.833h2.994Zm-6.265,0h3.3V-10.89l-.195.338Z" transform="translate(1140.051 8845)" fill="#12263f"/>
  </g>
</svg>
