<svg xmlns="http://www.w3.org/2000/svg" xmlns:xlink="http://www.w3.org/1999/xlink" width="166" height="166" viewBox="0 0 166 166">
  <defs>
    <clipPath id="clip-path">
      <rect id="Rectángulo_365650" data-name="Rectángulo 365650" width="134" height="131.388" fill="none"/>
    </clipPath>
    <clipPath id="clip-path-2">
      <rect id="Rectángulo_365649" data-name="Rectángulo 365649" width="134" height="131.389" fill="none"/>
    </clipPath>
    <clipPath id="clip-path-3">
      <rect id="Rectángulo_365640" data-name="Rectángulo 365640" width="81.814" height="48.695" fill="none"/>
    </clipPath>
    <clipPath id="clip-path-4">
      <rect id="Rectángulo_351805" data-name="Rectángulo 351805" width="45.765" height="39.45" fill="none"/>
    </clipPath>
    <clipPath id="clip-path-6">
      <rect id="Rectángulo_351798" data-name="Rectángulo 351798" width="19.725" height="39.45" fill="none"/>
    </clipPath>
    <clipPath id="clip-path-7">
      <rect id="Rectángulo_351800" data-name="Rectángulo 351800" width="12.373" height="12.375" fill="none"/>
    </clipPath>
  </defs>
  <g id="Grupo_1017666" data-name="Grupo 1017666" transform="translate(-304 -9375)">
    <circle id="Elipse_8441" data-name="Elipse 8441" cx="83" cy="83" r="83" transform="translate(304 9375)" fill="#fff" opacity="0.45"/>
    <circle id="Elipse_8442" data-name="Elipse 8442" cx="67" cy="67" r="67" transform="translate(320 9391)" fill="#fff"/>
    <g id="Grupo_1032024" data-name="Grupo 1032024" transform="translate(320 9397.525)">
      <g id="Grupo_1032023" data-name="Grupo 1032023" clip-path="url(#clip-path)">
        <path id="Trazado_778610" data-name="Trazado 778610" d="M42.4,59.615l-8.752-1.151L24.9,59.615,24.3,63.042H43.008Z" transform="translate(13.702 32.968)" fill="#90a4ae"/>
        <path id="Trazado_778611" data-name="Trazado 778611" d="M43.656,61.391H24.947L23.15,71.6h22.3Z" transform="translate(13.054 34.619)" fill="#b0bec5"/>
        <g id="Grupo_1032022" data-name="Grupo 1032022" transform="translate(0 0)">
          <g id="Grupo_1032021" data-name="Grupo 1032021" clip-path="url(#clip-path-2)">
            <path id="Trazado_778612" data-name="Trazado 778612" d="M58.593,71.324,57.529,69.7c-1.251-.824-8.42-1.286-8.42-1.286l-.039,0-.088-.494h-22.3l-.089.494-.036,0s-7.171.461-8.423,1.286l-1.063,1.625c-.436.289.009.777.705.777H57.889c.7,0,1.142-.488.7-.777" transform="translate(9.526 38.3)" fill="#cfd8dc"/>
            <path id="Trazado_778613" data-name="Trazado 778613" d="M94.343,21H.368A.367.367,0,0,0,0,21.364V80.689a.368.368,0,0,0,.368.369H94.344a.368.368,0,0,0,.368-.369V21.365A.368.368,0,0,0,94.343,21" transform="translate(0 11.84)" fill="#cfd8dc"/>
            <rect id="Rectángulo_365639" data-name="Rectángulo 365639" width="84.548" height="51.745" transform="translate(5.083 36.994)" fill="#68787a"/>
            <path id="Trazado_778614" data-name="Trazado 778614" d="M63.457,24.3H4.042V73.747H85.855V24.3Z" transform="translate(2.279 13.705)" fill="#373f51"/>
            <g id="Grupo_1032020" data-name="Grupo 1032020" transform="translate(6.321 38.757)" opacity="0.41" style="mix-blend-mode: overlay;isolation: isolate">
              <g id="Grupo_1032019" data-name="Grupo 1032019">
                <g id="Grupo_1032018" data-name="Grupo 1032018" clip-path="url(#clip-path-3)">
                  <path id="Trazado_778615" data-name="Trazado 778615" d="M4.042,24.782v48.7H85.856v-.352Z" transform="translate(-4.042 -24.782)" fill="#bdbdbd"/>
                </g>
              </g>
            </g>
            <path id="Trazado_778616" data-name="Trazado 778616" d="M48.521,47.446l0,44.989c0,2.9,2.019,5.275,4.485,5.275l26.185,0c2.468,0,4.485-2.374,4.485-5.275V47.444c0-2.9-2.019-5.275-4.487-5.275l-26.185,0c-2.466,0-4.485,2.374-4.485,5.275" transform="translate(27.361 23.78)" fill="#b0bec5"/>
            <path id="Trazado_778617" data-name="Trazado 778617" d="M51.77,46.079h-.547V84.241H77.929V46.079Z" transform="translate(28.885 25.985)" fill="#373f51"/>
            <path id="Trazado_778618" data-name="Trazado 778618" d="M60.6,73.308a2.473,2.473,0,1,1-2.473,2.473A2.473,2.473,0,0,1,60.6,73.308" transform="translate(32.779 41.34)" fill="#d8e0e7"/>
            <path id="Trazado_778619" data-name="Trazado 778619" d="M59.039,44.467a.486.486,0,0,1,.008-.971l4.571.023h0a.486.486,0,0,1-.008.971l-4.573-.023Z" transform="translate(33.022 24.528)" fill="#929497"/>
            <path id="Trazado_778620" data-name="Trazado 778620" d="M57.624,45.459a.486.486,0,0,1,.008-.971l8.157.041h0a.486.486,0,0,1-.008.971l-8.157-.041Z" transform="translate(32.223 25.088)" fill="#929497"/>
            <path id="Trazado_778621" data-name="Trazado 778621" d="M55.535,43.672a1.178,1.178,0,1,1-1.179,1.179,1.178,1.178,0,0,1,1.179-1.179" transform="translate(30.652 24.628)" fill="#929497"/>
            <path id="Trazado_778622" data-name="Trazado 778622" d="M53.275,28.449H12.442V67.337H41.2l12.073-9.512Z" transform="translate(7.016 16.043)" fill="#e6b046"/>
            <path id="Trazado_778623" data-name="Trazado 778623" d="M49.894,29.963H14.03V64.117H39.292l10.6-8.354Z" transform="translate(7.912 16.897)" fill="#fff"/>
            <rect id="Rectángulo_365641" data-name="Rectángulo 365641" width="30.792" height="4.091" transform="translate(23.901 63.686)" fill="#5573c6"/>
            <rect id="Rectángulo_365642" data-name="Rectángulo 365642" width="30.792" height="4.091" transform="translate(23.901 51.129)" fill="#5573c6"/>
            <rect id="Rectángulo_365643" data-name="Rectángulo 365643" width="30.792" height="4.09" transform="translate(23.901 57.408)" fill="#5573c6"/>
            <rect id="Rectángulo_365644" data-name="Rectángulo 365644" width="30.792" height="4.09" transform="translate(23.901 69.965)" fill="#5573c6"/>
            <path id="Trazado_778624" data-name="Trazado 778624" d="M42.905,47.233,30.832,56.745V47.233Z" transform="translate(17.386 26.636)" fill="#f4a338"/>
            <path id="Trazado_778625" data-name="Trazado 778625" d="M73.313,48.056H53.944V79.791H67.586l5.727-7.763Z" transform="translate(30.42 27.1)" fill="#f4a338"/>
            <path id="Trazado_778626" data-name="Trazado 778626" d="M71.709,49.292H54.7v27.87H66.679l5.03-6.817Z" transform="translate(30.845 27.797)" fill="#fff"/>
            <rect id="Rectángulo_365645" data-name="Rectángulo 365645" width="14.607" height="3.337" transform="translate(86.47 90.819)" fill="#373f51"/>
            <rect id="Rectángulo_365646" data-name="Rectángulo 365646" width="14.607" height="3.337" transform="translate(86.47 80.573)" fill="#373f51"/>
            <rect id="Rectángulo_365647" data-name="Rectángulo 365647" width="14.607" height="3.337" transform="translate(86.47 85.696)" fill="#373f51"/>
            <rect id="Rectángulo_365648" data-name="Rectángulo 365648" width="14.607" height="3.337" transform="translate(86.47 95.943)" fill="#373f51"/>
            <path id="Trazado_778627" data-name="Trazado 778627" d="M68.394,63.384l-5.727,7.762V63.384Z" transform="translate(35.339 35.744)" fill="#f4a338"/>
            <path id="Trazado_778628" data-name="Trazado 778628" d="M70.429,70.668l-9.884-5.705v4.21H9.526V50.262a1.533,1.533,0,0,0-3.067,0V70.705a1.532,1.532,0,0,0,1.533,1.533H60.545v4.137Z" transform="translate(3.642 27.479)" fill="#5573c6"/>
            <path id="Trazado_778629" data-name="Trazado 778629" d="M57.317,1.337l.006.174a1.086,1.086,0,0,0-.016-.174Z" transform="translate(32.317 0.754)" fill="#f66800"/>
            <path id="Trazado_778630" data-name="Trazado 778630" d="M53.448,17.82v5.724l7.43,6.184L63.246,27.3l3.841-3.941V17.081Z" transform="translate(30.14 9.632)" fill="#dfa479"/>
            <path id="Trazado_778631" data-name="Trazado 778631" d="M74.144,15.254a6.7,6.7,0,0,0-.4-1.132,2.677,2.677,0,0,0-.7-.812c-.246-.191-.669-.291-.762-.558s.192-.99.23-1.3a4.737,4.737,0,0,0,.016-1.19c-.263-1.953-2.275-3.28-4.169-3.941s-3.481-3.982-5.411-3.372a4.565,4.565,0,0,0-.586-.138,18.656,18.656,0,0,0-7.465.641c-1.894.662-3.037,4.856-3.3,6.809-.081.6.214,1.293.1,1.859-.122.591-.758.746-1.195,1.045-.788.541-.582,2.078-.582,2.078l.91,4.615s1.043,1.04,1.653,1.625c.674.647,1.687,4.13,1.687,4.13L59.83,30.5l5.811-.247,4.329-3.835,1.678-4.934L73.3,19.858Z" transform="translate(28.137 1.502)" fill="#efb683"/>
            <path id="Trazado_778632" data-name="Trazado 778632" d="M50.812,14.79a6.94,6.94,0,0,0,.963,2.315c.133-.744.363-3.553.435-4.2.191-1.734,4.2-6.837,5.383-6.678.7.094,6.855,3,6.855,3l7.286,2.2s.283,3.858.4,5.725c.006.1.03.222.125.247.113.03.2-.1.238-.213a31.115,31.115,0,0,0,1.128-3c.2-.765.011-8.054.011-8.054S66.883,0,63.118,0c-3.161,0-7.69,1.009-9.476,3.563-3.381.719-3.821,5.691-3.821,5.691s.762,4.567.99,5.536" transform="translate(28.095 0)" fill="#58595b"/>
            <path id="Trazado_778633" data-name="Trazado 778633" d="M61.088,44.725l6-14.552-6.259-6.335h-.845S53.4,30.11,53.448,30.565l6.5,14.16Z" transform="translate(30.14 13.442)" fill="#b9d0dc"/>
            <path id="Trazado_778634" data-name="Trazado 778634" d="M62.467,37.337,60.24,28.173a1.157,1.157,0,0,1,.13-.859l.846-1.442a.216.216,0,0,0-.058-.25q-.488-.441-.976-.88a2.44,2.44,0,0,1-.616-.647c-.092-.188-.344-.607-.638-.429-.256.155-.342.4-.508.607a5.528,5.528,0,0,1-.626.563l-.871.787a.216.216,0,0,0-.058.25l.846,1.442a1.149,1.149,0,0,1,.128.859l-2.225,9.165a.209.209,0,0,0,.011.138l3.082,7.186a.506.506,0,0,0,.666,0l3.082-7.186a.209.209,0,0,0,.011-.138" transform="translate(31.357 13.321)" fill="#373f51"/>
            <path id="Trazado_778635" data-name="Trazado 778635" d="M67.293,51.54c-.277,0-.563-.009-.84-.017-.627-.016-1.248-.048-1.867-.1a39.007,39.007,0,0,1-17.38-5.507c-.2-.114-.383-.228-.579-.358a39.309,39.309,0,0,1-6.351-4.944s4.174-13.864,4.312-13.953c2.923-1.454,6.572-2.216,11.446-3.559,1.533-.416,2.788-.757,3.464-.945.131-.033.238-.066.319-.081.155-.041.228-.066.228-.066l2.144,6.459.383,1.148.333,1.02L64.757,36.2l2.535,7.632.056,1.736.009.147.2,5.824Z" transform="translate(22.712 12.414)" fill="#78909c"/>
            <path id="Trazado_778636" data-name="Trazado 778636" d="M85.179,40.389a39.127,39.127,0,0,1-22.215,10.8c-.3.033-.611.074-.912.106-.344.041-.685.074-1.028.106-1.06.089-2.136.138-3.212.138h-.261V43.834l.3.9V44.6l2.959-8.652,1.769-5.187.074-.211.383-1.109,2.543-7.429s.075.025.23.066c.089.025.2.058.325.091.677.186,1.931.529,3.456.935,4.875,1.345,9.549,2.907,11.446,3.561.117.039,4.141,13.723,4.141,13.723" transform="translate(32.454 12.414)" fill="#78909c"/>
            <path id="Trazado_778637" data-name="Trazado 778637" d="M67.778,19.975,61.027,25.5a.289.289,0,0,1-.361,0l-6.751-5.524L52.4,23.983l2.917,8.758,5.3-6.765a.289.289,0,0,1,.443,0l5.3,6.765,2.917-8.758Z" transform="translate(29.552 11.265)" fill="#e3f3ff"/>
            <path id="Trazado_778638" data-name="Trazado 778638" d="M71.17,27.948,74.708,29.3,65.5,51.683c-1.06.089-2.135.139-3.212.139h-.26c-.278,0-.563-.009-.84-.017-.629-.016-1.248-.048-1.867-.1L50.137,29.3l3.539-1.353-4.069-1.816a25.059,25.059,0,0,1,1.167-2.745c1.817-.49,3.276-1.728,3.814-1.874l2.34,7.241.416,1.115.368.979,1.109,2.989.766,2.28,2.634,7.868,3.007-8.015.8-2.133,1.035-2.795.073-.211.375-1.115,2.754-8.195v-.008c.538.145,2,1.384,3.808,1.874a23.534,23.534,0,0,1,1.165,2.745Z" transform="translate(27.974 12.132)" fill="#90a4ae"/>
            <path id="Trazado_778639" data-name="Trazado 778639" d="M93.569,15.792a.942.942,0,0,0,.131-.46V1.8A.966.966,0,0,0,92.734.83H67.114a.966.966,0,1,0,0,1.933H91.768V15.332a.942.942,0,0,0,.131.46H88.285l4.208,7.288L96.7,15.792Z" transform="translate(37.3 0.468)" fill="#5573c6"/>
            <path id="Trazado_778640" data-name="Trazado 778640" d="M87.773,18.759a.965.965,0,0,0-.967.966V34.711H82.232v-3l-5.264,3.039a.941.941,0,0,0-.566.327l-1.458.841,7.288,4.208V36.644h5.541a.965.965,0,0,0,.966-.966V19.725a.965.965,0,0,0-.966-.966" transform="translate(42.262 10.579)" fill="#f4a338"/>
            <path id="Trazado_778641" data-name="Trazado 778641" d="M51.737,93.577c-.128.1-.621.081-.777.1l-1.5.194c-1.525.2-1.237.749-2.757.946-3.148.407-6.348.313-9.48.8-2.851.441-4.3-1.453-6.152-3.52-3.042-3.386-7.654-6.435-9.155-10.863a33.77,33.77,0,0,1-1.684-5.519,29.251,29.251,0,0,0-.621-4.521c-.443-1.439-2.122-4.121.424-4.04a5.622,5.622,0,0,1,2.285.5,6.5,6.5,0,0,1,2.322,3.214c.322.926.192,1.9.516,2.807a13.262,13.262,0,0,0,1.988,3.261,53.19,53.19,0,0,0-.851-8.864q-.493-3.8-.99-7.6-.706-5.417-1.412-10.83c0-.022,0-.044-.006-.066-.089-.687-.249-1.406-.271-2.1a1.205,1.205,0,0,1,.255-.73A1.744,1.744,0,0,1,24,46.572c0-.008.016-.016.019-.022a4.773,4.773,0,0,1,.339-.347,3.369,3.369,0,0,1,3.841-.533,3.632,3.632,0,0,1,.407.227l.023.016a1.94,1.94,0,0,1,.424.369,1.244,1.244,0,0,1,.269.593c.061.388.1.768.152,1.159.319,2.471.618,4.945.931,7.418.213,1.687.346,3.409.649,5.083.271,1.5.683,3.91,1.257,4.47-.078-.383.127-.993.063-1.453-.067-.488-.139-.976-.2-1.465a8.636,8.636,0,0,1-.231-2.887c.391-1.523,2.746-2.122,4.033-1.481,1.35.674,1.567,2.5,1.889,3.8.1.378.715,1.781.887,1.167.332-1.176.26-3.339.683-4.029a2.911,2.911,0,0,1,3.855-.791c1.83,1,1.852,3.96,2.061,5.755.316-.322.169-1.645.457-2.047a2.861,2.861,0,0,1,2-1.026c2.989-.2,2.882,3.4,3.353,5.442a54.814,54.814,0,0,1,1.384,11.235,35.234,35.234,0,0,1-.147,5.557c-.228,1.583-1.27,2.97-1.348,4.589a24.938,24.938,0,0,0,.5,4.155c.091.7.163,1.268.192,1.506.028.21.124.447,0,.552" transform="translate(10.519 25.544)" fill="#e6af87"/>
            <path id="Trazado_778642" data-name="Trazado 778642" d="M25.513,50.829c-1.242.349-2.513-.748-2.831-2.435l-.26-1.411c-.019-.114-.039-.241-.047-.357a4.443,4.443,0,0,1,.339-.346,3.366,3.366,0,0,1,3.841-.533,3.285,3.285,0,0,1,.405.227l.023.014.206,1.128c.313,1.692-.444,3.359-1.678,3.713" transform="translate(12.618 25.588)" fill="#f1c3a4"/>
            <path id="Trazado_778643" data-name="Trazado 778643" d="M47.349,74l-20.6,2.749,1.39,5.438L48.375,78.8Z" transform="translate(15.087 41.729)" fill="#fff"/>
            <path id="Trazado_778644" data-name="Trazado 778644" d="M49.906,83.763l-17.3,3.3-1.819-7.788L47.736,76.2Z" transform="translate(17.358 42.968)" fill="#373f51"/>
            <path id="Trazado_778645" data-name="Trazado 778645" d="M35.211,85.952l-7.127,1.359-1.931-7.843,7.241-1.3Z" transform="translate(14.748 44.078)" fill="#373f51"/>
          </g>
        </g>
      </g>
    </g>
    <g id="Grupo_1136914" data-name="Grupo 1136914" transform="translate(386.482 -284)">
      <g id="Grupo_1012789" data-name="Grupo 1012789" transform="translate(-50 9675)">
        <rect id="Rectángulo_351089" data-name="Rectángulo 351089" width="54" height="54" transform="translate(-0.482)" fill="none"/>
        <g id="Grupo_1012786" data-name="Grupo 1012786" transform="translate(4.032 6.965)">
          <g id="Grupo_1012785" data-name="Grupo 1012785" clip-path="url(#clip-path-4)">
            <rect id="Rectángulo_351776" data-name="Rectángulo 351776" width="39.45" height="39.45" transform="translate(0 0)" fill="#91b3fa"/>
            <rect id="Rectángulo_351777" data-name="Rectángulo 351777" width="0.188" height="6.377" transform="translate(25.758 13.593)"/>
            <rect id="Rectángulo_351778" data-name="Rectángulo 351778" width="0.19" height="6.377" transform="translate(26.386 13.593)"/>
            <rect id="Rectángulo_351779" data-name="Rectángulo 351779" width="0.377" height="5.446" transform="translate(26.888 13.593)"/>
            <rect id="Rectángulo_351780" data-name="Rectángulo 351780" width="0.376" height="5.446" transform="translate(27.408 13.593)"/>
            <rect id="Rectángulo_351781" data-name="Rectángulo 351781" width="0.188" height="5.446" transform="translate(28.131 13.593)"/>
            <rect id="Rectángulo_351782" data-name="Rectángulo 351782" width="0.377" height="5.446" transform="translate(28.569 13.593)"/>
            <rect id="Rectángulo_351783" data-name="Rectángulo 351783" width="0.189" height="5.446" transform="translate(29.197 13.593)"/>
            <rect id="Rectángulo_351784" data-name="Rectángulo 351784" width="0.188" height="5.446" transform="translate(29.826 13.593)"/>
            <rect id="Rectángulo_351785" data-name="Rectángulo 351785" width="0.377" height="5.446" transform="translate(30.234 13.593)"/>
            <rect id="Rectángulo_351786" data-name="Rectángulo 351786" width="0.378" height="5.446" transform="translate(30.754 13.593)"/>
            <rect id="Rectángulo_351787" data-name="Rectángulo 351787" width="0.188" height="5.446" transform="translate(31.365 13.593)"/>
            <rect id="Rectángulo_351788" data-name="Rectángulo 351788" width="0.188" height="5.446" transform="translate(31.994 13.593)"/>
            <rect id="Rectángulo_351789" data-name="Rectángulo 351789" width="0.377" height="5.446" transform="translate(32.496 13.593)"/>
            <rect id="Rectángulo_351790" data-name="Rectángulo 351790" width="0.376" height="6.377" transform="translate(35.843 13.593)"/>
            <rect id="Rectángulo_351791" data-name="Rectángulo 351791" width="0.188" height="5.446" transform="translate(35.309 13.593)"/>
            <rect id="Rectángulo_351792" data-name="Rectángulo 351792" width="0.377" height="5.446" transform="translate(34.68 13.593)"/>
            <rect id="Rectángulo_351793" data-name="Rectángulo 351793" width="0.188" height="5.446" transform="translate(34.242 13.593)"/>
            <rect id="Rectángulo_351794" data-name="Rectángulo 351794" width="0.188" height="5.446" transform="translate(33.612 13.593)"/>
            <rect id="Rectángulo_351795" data-name="Rectángulo 351795" width="0.377" height="5.446" transform="translate(33.015 13.593)"/>
            <g id="Grupo_1012784" data-name="Grupo 1012784">
              <g id="Grupo_1012783" data-name="Grupo 1012783" clip-path="url(#clip-path-4)">
                <path id="Trazado_730641" data-name="Trazado 730641" d="M80.442,61.56h.141v1.317H80.4V61.842h-.141V61.7a.321.321,0,0,0,.188-.141" transform="translate(-55.098 -42.263)"/>
                <path id="Trazado_730642" data-name="Trazado 730642" d="M86.072,62.154a.33.33,0,0,1-.124-.293c0-.212.1-.342.311-.342s.309.131.309.342a.33.33,0,0,1-.123.293.336.336,0,0,1,.142.32c0,.24-.089.389-.329.389s-.33-.149-.33-.389a.33.33,0,0,1,.143-.32m.187.554c.126,0,.14-.11.14-.234s-.024-.226-.14-.226-.142.11-.142.226.015.234.142.234m0-1.035c-.1,0-.119.091-.119.188s.015.207.119.207.118-.1.118-.207-.022-.188-.118-.188" transform="translate(-58.994 -42.235)"/>
                <path id="Trazado_730643" data-name="Trazado 730643" d="M89.692,62.394c0-.13-.01-.232-.14-.232a.158.158,0,0,0-.14.109h-.16v-.71h.582v.188h-.412l-.012.319a.356.356,0,0,1,.188-.047c.218,0,.282.168.282.386,0,.266-.065.484-.333.484-.245,0-.326-.148-.326-.39h.188v.029c0,.111.016.21.127.21.164,0,.155-.179.155-.347" transform="translate(-61.254 -42.263)"/>
                <path id="Trazado_730644" data-name="Trazado 730644" d="M92.805,61.518a.3.3,0,0,1,.329.343.268.268,0,0,1-.188.282.309.309,0,0,1,.188.329c0,.236-.093.39-.329.39a.3.3,0,0,1-.329-.343v-.047h.188c0,.131.015.235.141.235s.141-.1.141-.235-.047-.235-.188-.235v-.188c.137,0,.188-.05.188-.188,0-.115-.029-.188-.141-.188s-.141.1-.141.235h-.188v-.047a.305.305,0,0,1,.329-.343" transform="translate(-63.488 -42.235)"/>
                <path id="Trazado_730645" data-name="Trazado 730645" d="M96.119,61.519a.306.306,0,0,1,.329.342H96.26c0-.115-.028-.188-.141-.188q-.141,0-.141.282v.188a.2.2,0,0,1,.188-.094c.218,0,.282.16.282.376,0,.239-.091.437-.329.437s-.329-.2-.329-.437V62c0-.258.074-.484.329-.484m0,1.189c.113,0,.141-.12.141-.235,0-.141,0-.282-.141-.282a.158.158,0,0,0-.141.094v.188c0,.115.029.235.141.235" transform="translate(-65.764 -42.235)"/>
                <path id="Trazado_730646" data-name="Trazado 730646" d="M99.392,61.673c-.113,0-.141.121-.141.235v.047h-.188v-.047c0-.236.093-.389.329-.389a.3.3,0,0,1,.329.342.6.6,0,0,1-.141.376l-.329.423h.471v.188h-.66v-.188l.33-.471a.53.53,0,0,0,.141-.329c0-.1-.044-.188-.141-.188" transform="translate(-68.01 -42.235)"/>
                <path id="Trazado_730647" data-name="Trazado 730647" d="M102.624,61.518a.3.3,0,0,1,.329.343.268.268,0,0,1-.188.282.309.309,0,0,1,.188.329c0,.236-.093.39-.329.39a.3.3,0,0,1-.329-.343v-.047h.188c0,.131.015.235.141.235s.141-.1.141-.235-.047-.235-.188-.235v-.188c.137,0,.188-.05.188-.188,0-.115-.029-.188-.141-.188s-.141.1-.141.235h-.188v-.047a.305.305,0,0,1,.329-.343" transform="translate(-70.23 -42.235)"/>
                <path id="Trazado_730648" data-name="Trazado 730648" d="M105.64,62.154a.33.33,0,0,1-.124-.293c0-.212.1-.342.311-.342s.309.131.309.342a.33.33,0,0,1-.123.293.336.336,0,0,1,.142.32c0,.24-.089.389-.329.389s-.33-.149-.33-.389a.331.331,0,0,1,.143-.32m.187.554c.126,0,.14-.11.14-.234s-.024-.226-.14-.226-.142.11-.142.226.014.234.142.234m0-1.035c-.1,0-.119.091-.119.188s.015.207.119.207.118-.1.118-.207-.022-.188-.118-.188" transform="translate(-72.428 -42.235)"/>
                <path id="Trazado_730649" data-name="Trazado 730649" d="M108.768,62.538v-.209l.329-.77h.235v.8h.146v.178h-.146v.338h-.188v-.338Zm.376-.744-.188.566h.188Z" transform="translate(-74.674 -42.262)"/>
                <path id="Trazado_730650" data-name="Trazado 730650" d="M112.287,61.56h.141v1.317h-.188V61.842H112.1V61.7a.321.321,0,0,0,.188-.141" transform="translate(-76.96 -42.263)"/>
                <rect id="Rectángulo_351796" data-name="Rectángulo 351796" width="8.481" height="4.115" transform="translate(15.484 0)" fill="#7aa0e2"/>
                <g id="Grupo_1012779" data-name="Grupo 1012779" transform="translate(19.724)" opacity="0.25" style="mix-blend-mode: screen;isolation: isolate">
                  <g id="Grupo_1012778" data-name="Grupo 1012778">
                    <g id="Grupo_1012777" data-name="Grupo 1012777" clip-path="url(#clip-path-6)">
                      <rect id="Rectángulo_351797" data-name="Rectángulo 351797" width="19.725" height="39.45" transform="translate(0)" fill="#91b3fa"/>
                    </g>
                  </g>
                </g>
                <rect id="Rectángulo_351799" data-name="Rectángulo 351799" width="1.33" height="13.608" transform="translate(34.406 23.202) rotate(-45)" fill="#323232"/>
                <path id="Trazado_730651" data-name="Trazado 730651" d="M79.67,48.613a7.646,7.646,0,0,1-3.823-14.269,7.78,7.78,0,0,1,7.649,0A7.646,7.646,0,0,1,79.67,48.613m0-13.741a6.094,6.094,0,0,0-3.046,11.374,6.094,6.094,0,0,0,8.325-2.231,6.094,6.094,0,0,0-5.28-9.143" transform="translate(-49.447 -22.889)" fill="#323232"/>
                <path id="Trazado_730652" data-name="Trazado 730652" d="M124.972,86.548a.887.887,0,0,1-1.254,0l-7.379-7.379a.442.442,0,0,1,0-.627l.941-.94a.443.443,0,0,1,.626,0l7.379,7.379a.887.887,0,0,1,0,1.254Z" transform="translate(-79.782 -53.187)" fill="#1e466e"/>
                <g id="Grupo_1012782" data-name="Grupo 1012782" transform="translate(24.036 11.891)" opacity="0.5">
                  <g id="Grupo_1012781" data-name="Grupo 1012781">
                    <g id="Grupo_1012780" data-name="Grupo 1012780" clip-path="url(#clip-path-7)">
                      <path id="Trazado_730653" data-name="Trazado 730653" d="M89.053,44.121a6.183,6.183,0,1,1-.828-3.095,6.163,6.163,0,0,1,.828,3.095" transform="translate(-76.679 -37.933)" fill="#e6ffff"/>
                    </g>
                  </g>
                </g>
                <path id="Trazado_730654" data-name="Trazado 730654" d="M119.3,77.6a.444.444,0,0,0-.626,0l-.439.437,8.319,8.321.125-.125a.884.884,0,0,0,0-1.253Z" transform="translate(-81.17 -53.187)" fill="#325a82"/>
                <rect id="Rectángulo_351801" data-name="Rectángulo 351801" width="2.79" height="7.767" transform="translate(3.401 30.179)" fill="#0082aa"/>
                <path id="Trazado_730655" data-name="Trazado 730655" d="M9.052,89.968,6.2,93.577H11.9Z" transform="translate(-4.256 -61.766)" fill="#0082aa"/>
                <path id="Trazado_730656" data-name="Trazado 730656" d="M32.7,99.7a2.126,2.126,0,1,1-2.126-2.126A2.126,2.126,0,0,1,32.7,99.7" transform="translate(-19.531 -66.986)" fill="#0082aa"/>
                <rect id="Rectángulo_351802" data-name="Rectángulo 351802" width="4.251" height="4.555" transform="translate(8.918 28.156)" fill="#0082aa"/>
                <rect id="Rectángulo_351803" data-name="Rectángulo 351803" width="0.695" height="5.249" transform="translate(10.696 32.71)" fill="#0082aa"/>
                <path id="Trazado_730657" data-name="Trazado 730657" d="M33.191,119.579H29.763v-.26l1.713-.433,1.714.433Z" transform="translate(-20.433 -81.62)" fill="#0082aa"/>
                <path id="Trazado_730658" data-name="Trazado 730658" d="M90.3,101.5a.7.7,0,0,1-.695.693H77.149a.7.7,0,0,1-.695-.693V94.254a.7.7,0,0,1,.695-.694H89.61a.7.7,0,0,1,.695.694Z" transform="translate(-52.489 -64.233)" fill="#f4f4f4"/>
                <path id="Trazado_730659" data-name="Trazado 730659" d="M11.266,16.94a4.685,4.685,0,1,1,4.685-4.685,4.691,4.691,0,0,1-4.685,4.685m0-8.676a3.991,3.991,0,1,0,3.991,3.991,3.995,3.995,0,0,0-3.991-3.991" transform="translate(-4.517 -5.197)" fill="#f06400"/>
                <path id="Trazado_730660" data-name="Trazado 730660" d="M18.026,16.071a2.943,2.943,0,1,1-2.944-2.943,2.944,2.944,0,0,1,2.944,2.943" transform="translate(-8.334 -9.013)" fill="#f06400"/>
                <path id="Trazado_730661" data-name="Trazado 730661" d="M91.318,100.033H80.449a.347.347,0,0,1,0-.694h10.87a.347.347,0,0,1,0,.694" transform="translate(-54.993 -68.2)" fill="#c8c8c8"/>
                <path id="Trazado_730662" data-name="Trazado 730662" d="M91.318,106.916H80.449a.347.347,0,0,1,0-.694h10.87a.347.347,0,0,1,0,.694" transform="translate(-54.993 -72.926)" fill="#c8c8c8"/>
                <path id="Trazado_730663" data-name="Trazado 730663" d="M91.318,113.8H80.449a.347.347,0,1,1,0-.693h10.87a.347.347,0,1,1,0,.693" transform="translate(-54.993 -77.653)" fill="#c8c8c8"/>
              </g>
            </g>
          </g>
        </g>
      </g>
    </g>
  </g>
</svg>
