<svg xmlns="http://www.w3.org/2000/svg" xmlns:xlink="http://www.w3.org/1999/xlink" width="770.511" height="330" viewBox="0 0 770.511 330">
  <defs>
    <clipPath id="clip-path">
      <rect id="Rectángulo_360645" data-name="Rectángulo 360645" width="322.511" height="305.689" fill="#91b3fa"/>
    </clipPath>
    <clipPath id="clip-path-2">
      <path id="Trazado_762379" data-name="Trazado 762379" d="M150.286,107.932l-.2,70.122c9.974-11.411,14.863-23.485,14.9-35.4l.2-70.122c-.033,11.917-4.924,23.991-14.9,35.4" transform="translate(-150.088 -72.528)" fill="#28a29f"/>
    </clipPath>
    <clipPath id="clip-path-3">
      <path id="Trazado_913079" data-name="Trazado 913079" d="M0,0H313.511V307.689H0Z" fill="none"/>
    </clipPath>
    <filter id="Trazado_960512" x="377.511" y="17" width="393" height="99" filterUnits="userSpaceOnUse">
      <feOffset dx="3" dy="3" input="SourceAlpha"/>
      <feGaussianBlur stdDeviation="3" result="blur"/>
      <feFlood flood-opacity="0.161"/>
      <feComposite operator="in" in2="blur"/>
      <feComposite in="SourceGraphic"/>
    </filter>
    <filter id="Trazado_960513" x="377.511" y="124" width="393" height="99" filterUnits="userSpaceOnUse">
      <feOffset dx="3" dy="3" input="SourceAlpha"/>
      <feGaussianBlur stdDeviation="3" result="blur-2"/>
      <feFlood flood-opacity="0.161"/>
      <feComposite operator="in" in2="blur-2"/>
      <feComposite in="SourceGraphic"/>
    </filter>
    <filter id="Trazado_960527" x="377.511" y="231" width="393" height="99" filterUnits="userSpaceOnUse">
      <feOffset dx="3" dy="3" input="SourceAlpha"/>
      <feGaussianBlur stdDeviation="3" result="blur-3"/>
      <feFlood flood-opacity="0.161"/>
      <feComposite operator="in" in2="blur-3"/>
      <feComposite in="SourceGraphic"/>
    </filter>
  </defs>
  <g id="Grupo_1137115" data-name="Grupo 1137115" transform="translate(-661.489 -4382.7)">
    <g id="Grupo_1136720" data-name="Grupo 1136720" transform="translate(661.489 4382.7)">
      <path id="Trazado_762375" data-name="Trazado 762375" d="M115.387,102.778,20.66,157.828l-.2,70.122,94.727-55.05,94.736-55.054.2-70.124Z" transform="translate(19.221 44.827)" fill="#5988eb"/>
      <g id="Grupo_1024297" data-name="Grupo 1024297">
        <g id="Grupo_1024296" data-name="Grupo 1024296" clip-path="url(#clip-path)">
          <path id="Trazado_762376" data-name="Trazado 762376" d="M12.716,108.924a65.226,65.226,0,0,1-4.961-7.079A54.608,54.608,0,0,1,2.647,90.881,46.8,46.8,0,0,1,.2,75.909v0L0,146.031c-.058,20.055,13.18,40.142,39.683,55.442l.2-70.122c-11.593-6.695-20.65-14.3-27.164-22.426" transform="translate(0 71.304)" fill="#a6c2fc"/>
          <path id="Trazado_762377" data-name="Trazado 762377" d="M229.248,58.767l-94.736,55.056L39.786,168.871c-52.661-30.4-52.948-79.7-.63-110.1s137.433-30.4,190.093,0" transform="translate(0.097 33.781)" fill="#91b3fa"/>
        </g>
      </g>
      <g id="Grupo_1024299" data-name="Grupo 1024299" transform="translate(291.07 140.656)">
        <g id="Grupo_1024298" data-name="Grupo 1024298" clip-path="url(#clip-path-2)">
          <path id="Trazado_762378" data-name="Trazado 762378" d="M165.166,73.676a44.692,44.692,0,0,1-.861,7.513,48.647,48.647,0,0,1-2.151,7.488,55.474,55.474,0,0,1-3.646,7.773,66.9,66.9,0,0,1-5.669,8.407q-1.216,1.545-2.552,3.076l-.2,70.122q1.338-1.53,2.554-3.076a66.741,66.741,0,0,0,5.667-8.407,55.374,55.374,0,0,0,3.646-7.773,48.434,48.434,0,0,0,2.151-7.488,44.686,44.686,0,0,0,.861-7.513c.012-.382.017-.764.019-1.148l.2-70.122c0,.382-.006.766-.017,1.148" transform="translate(-150.088 -72.528)" fill="#28a29f"/>
        </g>
      </g>
      <g id="Grupo_1024301" data-name="Grupo 1024301">
        <g id="Enmascarar_grupo_1115075" data-name="Enmascarar grupo 1115075" clip-path="url(#clip-path-3)">
          <path id="Trazado_762380" data-name="Trazado 762380" d="M183.072,44.174c42.126,24.321,52,59.747,25.221,90.392L88.336,99.23Z" transform="translate(82.977 41.494)" fill="#57dbd8"/>
          <path id="Trazado_762381" data-name="Trazado 762381" d="M208.389,107.9l-.2,70.122L88.232,142.685l.2-70.122Z" transform="translate(82.879 68.161)" fill="#47ccc9"/>
          <path id="Trazado_762382" data-name="Trazado 762382" d="M232.223,97.691c-.357.363-.739.714-1.1,1.074-.731.718-1.466,1.433-2.232,2.133-.673.615-1.381,1.214-2.079,1.815-.584.5-1.154,1.008-1.755,1.5-.731.6-1.5,1.175-2.25,1.757-.613.471-1.208.95-1.837,1.41-.8.586-1.625,1.15-2.445,1.718-.628.434-1.239.879-1.879,1.3-.879.58-1.79,1.138-2.694,1.7-.63.394-1.245.8-1.889,1.185-.237.142-.483.277-.721.417q-1.74,1.024-3.537,2.007c-.44.24-.888.479-1.334.716q-1.644.876-3.332,1.712c-.4.2-.785.4-1.185.591q-2.243,1.088-4.557,2.118c-.273.122-.555.237-.83.355q-1.943.849-3.937,1.654c-.493.2-.989.4-1.487.591q-1.827.716-3.694,1.4c-.432.157-.863.32-1.3.475q-2.449.873-4.955,1.683-2.944.951-5.961,1.815c-.114.033-.231.06-.345.093q-2.854.809-5.77,1.54c-.7.175-1.406.33-2.106.5-1.373.328-2.746.656-4.137.958-.838.18-1.685.343-2.529.516-1.272.258-2.546.518-3.83.754-.686.126-1.379.239-2.067.359q-2.961.515-5.963.952c-.725.107-1.449.213-2.178.312-2.583.351-5.182.669-7.8.931-.25.025-.5.041-.756.064q-3.066.3-6.157.512c-.787.054-1.581.089-2.37.136-1.54.091-3.084.175-4.631.235-.991.037-1.986.062-2.979.087-1.2.029-2.4.058-3.605.07-1.028.01-2.058.008-3.087,0-1.2,0-2.4-.014-3.6-.037-1.069-.019-2.137-.05-3.206-.085-1.092-.037-2.184-.078-3.274-.128s-2.18-.114-3.268-.182-2.18-.14-3.268-.221-2.188-.178-3.281-.277c-1.074-.1-2.147-.2-3.219-.312q-1.638-.175-3.27-.374-1.609-.192-3.217-.407c-1.057-.144-2.112-.3-3.167-.458q-1.731-.259-3.458-.545-1.559-.259-3.115-.547-1.716-.311-3.425-.652-1.481-.3-2.956-.615-2.028-.436-4.044-.913c-.927-.219-1.854-.44-2.777-.671-1.375-.345-2.742-.714-4.106-1.088-1.171-.322-2.349-.628-3.512-.972-1.524-.45-3-.906-4.453-1.369-.456-.145-.9-.295-1.348-.44q-1.489-.489-2.938-.985c-.5-.175-1-.351-1.5-.529-.91-.324-1.8-.652-2.69-.985-.471-.178-.943-.355-1.408-.533-.617-.24-1.218-.489-1.825-.733q-1.5-.605-2.979-1.235-.876-.375-1.742-.764-1.428-.637-2.837-1.305c-.553-.262-1.107-.522-1.656-.791-1-.491-2-1-2.989-1.515-.465-.242-.935-.475-1.4-.723-1.447-.774-2.89-1.569-4.336-2.4l-.2,70.122c1.447.834,2.892,1.631,4.338,2.4.464.248.931.481,1.394.723.993.516,1.99,1.026,2.99,1.515.549.27,1.1.529,1.656.791.939.444,1.887.882,2.841,1.307.574.256,1.156.512,1.738.762.979.421,1.978.832,2.983,1.237.382.153.749.318,1.135.471.225.087.46.171.687.26.465.18.939.357,1.41.533q1.326.5,2.688.987.745.265,1.5.527c.962.334,1.945.661,2.936.985.45.147.894.295,1.35.44,1.451.464,2.928.921,4.453,1.371q.817.239,1.641.475c.619.176,1.249.324,1.87.495,1.365.374,2.731.743,4.106,1.088.923.233,1.85.452,2.777.671q2.016.474,4.044.913c.485.1.964.227,1.451.328s1,.186,1.507.287q1.708.34,3.423.652,1.556.285,3.117.547,1.725.288,3.458.547c.6.089,1.2.2,1.811.285.45.064.9.111,1.356.171q1.606.218,3.217.407,1.632.2,3.268.374,1.609.169,3.221.312c.626.056,1.253.13,1.881.182.465.039.933.06,1.4.1,1.09.083,2.18.155,3.268.221s2.178.13,3.268.182,2.184.091,3.274.128c.628.021,1.255.058,1.881.074.442.01.882,0,1.325.014q1.8.032,3.6.035c1.03,0,2.058.006,3.087,0,1.2-.012,2.4-.039,3.6-.07.681-.017,1.361-.017,2.04-.041.314-.01.624-.035.941-.047,1.548-.06,3.089-.143,4.631-.235.789-.047,1.581-.081,2.368-.136q3.1-.212,6.161-.51c.231-.023.465-.035.7-.058l.056-.008c2.62-.26,5.217-.58,7.8-.929.729-.1,1.453-.208,2.18-.314q3-.436,5.963-.952c.438-.078.888-.134,1.325-.211.25-.047.493-.1.741-.147,1.286-.237,2.558-.5,3.83-.754.844-.173,1.693-.335,2.529-.516,1.392-.3,2.764-.628,4.137-.958.7-.167,1.41-.32,2.106-.495q2.924-.733,5.787-1.546c.109-.031.219-.056.328-.087q3.02-.864,5.963-1.817c.072-.023.145-.043.217-.066q2.4-.777,4.736-1.615c.438-.157.867-.32,1.3-.477q1.865-.681,3.693-1.4c.5-.2,1-.392,1.489-.592q1.987-.8,3.927-1.648c.277-.122.564-.239.842-.361q2.316-1.027,4.556-2.118c.4-.194.789-.4,1.185-.591q1.687-.838,3.332-1.711c.446-.239.892-.475,1.334-.718q1.8-.983,3.535-2.005c.239-.142.485-.277.721-.417.064-.039.132-.076.2-.114.58-.347,1.127-.718,1.695-1.072.9-.562,1.815-1.121,2.692-1.7.64-.425,1.251-.867,1.877-1.3.822-.57,1.652-1.135,2.449-1.72.624-.458,1.22-.935,1.829-1.4.758-.586,1.524-1.164,2.257-1.765.6-.489,1.167-.995,1.747-1.493.7-.605,1.412-1.2,2.087-1.821.12-.111.252-.215.372-.326.638-.59,1.239-1.2,1.852-1.8.368-.361.752-.716,1.111-1.08,1.078-1.1,2.124-2.217,3.12-3.359l.2-70.122c-1,1.142-2.042,2.259-3.122,3.359" transform="translate(19.221 88.609)" fill="#f7cd85"/>
          <path id="Trazado_762383" data-name="Trazado 762383" d="M235.248,111.448C201.763,149.767,120.915,165,54.663,145.473a149.523,149.523,0,0,1-34.1-14.314l94.729-55.048Z" transform="translate(19.316 71.493)" fill="#efbf6d"/>
        </g>
      </g>
    </g>
    <g transform="matrix(1, 0, 0, 1, 661.49, 4382.7)" filter="url(#Trazado_960512)">
      <g id="Trazado_960512-2" data-name="Trazado 960512" transform="translate(383.51 23)" fill="#fff">
        <path d="M 365 79.5 L 10 79.5 C 5.31309986114502 79.5 1.5 75.68689727783203 1.5 71 L 1.5 10 C 1.5 5.31309986114502 5.31309986114502 1.5 10 1.5 L 365 1.5 C 369.6868896484375 1.5 373.5 5.31309986114502 373.5 10 L 373.5 71 C 373.5 75.68689727783203 369.6868896484375 79.5 365 79.5 Z" stroke="none"/>
        <path d="M 10 3 C 6.14019775390625 3 3 6.14019775390625 3 10 L 3 71 C 3 74.85980224609375 6.14019775390625 78 10 78 L 365 78 C 368.8598022460938 78 372 74.85980224609375 372 71 L 372 10 C 372 6.14019775390625 368.8598022460938 3 365 3 L 10 3 M 10 0 L 365 0 C 370.5228576660156 0 375 4.477149963378906 375 10 L 375 71 C 375 76.52285003662109 370.5228576660156 81 365 81 L 10 81 C 4.477142333984375 81 0 76.52285003662109 0 71 L 0 10 C 0 4.477149963378906 4.477142333984375 0 10 0 Z" stroke="none" fill="#91b3fa"/>
      </g>
    </g>
    <g transform="matrix(1, 0, 0, 1, 661.49, 4382.7)" filter="url(#Trazado_960513)">
      <g id="Trazado_960513-2" data-name="Trazado 960513" transform="translate(383.51 130)" fill="#fff">
        <path d="M 365 79.5 L 10 79.5 C 5.31309986114502 79.5 1.5 75.68689727783203 1.5 71 L 1.5 10 C 1.5 5.31309986114502 5.31309986114502 1.5 10 1.5 L 365 1.5 C 369.6868896484375 1.5 373.5 5.31309986114502 373.5 10 L 373.5 71 C 373.5 75.68689727783203 369.6868896484375 79.5 365 79.5 Z" stroke="none"/>
        <path d="M 10 3 C 6.14019775390625 3 3 6.14019775390625 3 10 L 3 71 C 3 74.85980224609375 6.14019775390625 78 10 78 L 365 78 C 368.8598022460938 78 372 74.85980224609375 372 71 L 372 10 C 372 6.14019775390625 368.8598022460938 3 365 3 L 10 3 M 10 0 L 365 0 C 370.5228576660156 0 375 4.477149963378906 375 10 L 375 71 C 375 76.52285003662109 370.5228576660156 81 365 81 L 10 81 C 4.477142333984375 81 0 76.52285003662109 0 71 L 0 10 C 0 4.477149963378906 4.477142333984375 0 10 0 Z" stroke="none" fill="#57dbd8"/>
      </g>
    </g>
    <g transform="matrix(1, 0, 0, 1, 661.49, 4382.7)" filter="url(#Trazado_960527)">
      <g id="Trazado_960527-2" data-name="Trazado 960527" transform="translate(383.51 237)" fill="#fff">
        <path d="M 365 79.5 L 10 79.5 C 5.31309986114502 79.5 1.5 75.68689727783203 1.5 71 L 1.5 10 C 1.5 5.31309986114502 5.31309986114502 1.5 10 1.5 L 365 1.5 C 369.6868896484375 1.5 373.5 5.31309986114502 373.5 10 L 373.5 71 C 373.5 75.68689727783203 369.6868896484375 79.5 365 79.5 Z" stroke="none"/>
        <path d="M 10 3 C 6.14019775390625 3 3 6.14019775390625 3 10 L 3 71 C 3 74.85980224609375 6.14019775390625 78 10 78 L 365 78 C 368.8598022460938 78 372 74.85980224609375 372 71 L 372 10 C 372 6.14019775390625 368.8598022460938 3 365 3 L 10 3 M 10 0 L 365 0 C 370.5228576660156 0 375 4.477149963378906 375 10 L 375 71 C 375 76.52285003662109 370.5228576660156 81 365 81 L 10 81 C 4.477142333984375 81 0 76.52285003662109 0 71 L 0 10 C 0 4.477149963378906 4.477142333984375 0 10 0 Z" stroke="none" fill="#e6b046"/>
      </g>
    </g>
    <path id="Trazado_960510" data-name="Trazado 960510" d="M25,0A25,25,0,1,1,0,25,25,25,0,0,1,25,0Z" transform="translate(1020 4421.7)" fill="#91b3fa"/>
    <path id="Trazado_960515" data-name="Trazado 960515" d="M25,0A25,25,0,1,1,0,25,25,25,0,0,1,25,0Z" transform="translate(1020 4528.7)" fill="#57dbd8"/>
    <path id="Trazado_960529" data-name="Trazado 960529" d="M25,0A25,25,0,1,1,0,25,25,25,0,0,1,25,0Z" transform="translate(1020 4635.7)" fill="#e6b046"/>
    <path id="Trazado_960511" data-name="Trazado 960511" d="M21.91,15.189a6.789,6.789,0,0,1-1.294,4.443A4.471,4.471,0,0,1,16.969,21.2,4.5,4.5,0,0,1,13.3,19.623,6.779,6.779,0,0,1,12,15.189v-2.6a6.789,6.789,0,0,1,1.294-4.443,4.483,4.483,0,0,1,3.657-1.562,4.484,4.484,0,0,1,3.662,1.572,6.8,6.8,0,0,1,1.3,4.443Zm-3.291-3.018a5.071,5.071,0,0,0-.4-2.29,1.338,1.338,0,0,0-1.27-.757,1.307,1.307,0,0,0-1.235.7,4.777,4.777,0,0,0-.415,2.129V15.59a5.109,5.109,0,0,0,.4,2.329,1.343,1.343,0,0,0,1.27.737,1.325,1.325,0,0,0,1.24-.718,4.878,4.878,0,0,0,.41-2.251ZM30.914,21h-3.3V10.492l-3.242.947v-2.5l6.24-2.158h.3Z" transform="translate(1022 4432.7)" fill="#5d87dd"/>
    <path id="Trazado_960516" data-name="Trazado 960516" d="M21.91,15.189a6.789,6.789,0,0,1-1.294,4.443A4.471,4.471,0,0,1,16.969,21.2,4.5,4.5,0,0,1,13.3,19.623,6.779,6.779,0,0,1,12,15.189v-2.6a6.789,6.789,0,0,1,1.294-4.443,4.483,4.483,0,0,1,3.657-1.562,4.484,4.484,0,0,1,3.662,1.572,6.8,6.8,0,0,1,1.3,4.443Zm-3.291-3.018a5.071,5.071,0,0,0-.4-2.29,1.338,1.338,0,0,0-1.27-.757,1.307,1.307,0,0,0-1.235.7,4.777,4.777,0,0,0-.415,2.129V15.59a5.109,5.109,0,0,0,.4,2.329,1.343,1.343,0,0,0,1.27.737,1.325,1.325,0,0,0,1.24-.718,4.878,4.878,0,0,0,.41-2.251ZM33.541,21H23.619V18.852l4.57-4.8q1.689-1.924,1.689-3.057a2.126,2.126,0,0,0-.4-1.4,1.43,1.43,0,0,0-1.162-.479,1.447,1.447,0,0,0-1.221.64,2.629,2.629,0,0,0-.469,1.6h-3.3a4.67,4.67,0,0,1,.654-2.417A4.588,4.588,0,0,1,25.8,7.2a5.4,5.4,0,0,1,2.6-.625,5.308,5.308,0,0,1,3.55,1.064A3.8,3.8,0,0,1,33.189,10.7a4.439,4.439,0,0,1-.312,1.636A7.173,7.173,0,0,1,31.905,14a24.476,24.476,0,0,1-2.124,2.339l-1.836,2.119h5.6Z" transform="translate(1022 4539.7)" fill="#179592"/>
    <path id="Trazado_960530" data-name="Trazado 960530" d="M21.91,15.189a6.789,6.789,0,0,1-1.294,4.443A4.471,4.471,0,0,1,16.969,21.2,4.5,4.5,0,0,1,13.3,19.623,6.779,6.779,0,0,1,12,15.189v-2.6a6.789,6.789,0,0,1,1.294-4.443,4.483,4.483,0,0,1,3.657-1.562,4.484,4.484,0,0,1,3.662,1.572,6.8,6.8,0,0,1,1.3,4.443Zm-3.291-3.018a5.071,5.071,0,0,0-.4-2.29,1.338,1.338,0,0,0-1.27-.757,1.307,1.307,0,0,0-1.235.7,4.777,4.777,0,0,0-.415,2.129V15.59a5.109,5.109,0,0,0,.4,2.329,1.343,1.343,0,0,0,1.27.737,1.325,1.325,0,0,0,1.24-.718,4.878,4.878,0,0,0,.41-2.251Zm8.008.342H28.18a1.614,1.614,0,0,0,1.846-1.807,1.562,1.562,0,0,0-.439-1.147,1.666,1.666,0,0,0-1.24-.444,1.784,1.784,0,0,0-1.138.381,1.162,1.162,0,0,0-.483.947H23.434a3.369,3.369,0,0,1,.625-2,4.127,4.127,0,0,1,1.733-1.372,5.926,5.926,0,0,1,2.437-.493,5.823,5.823,0,0,1,3.73,1.084,3.6,3.6,0,0,1,1.357,2.979,3,3,0,0,1-.562,1.733A4,4,0,0,1,31.119,13.7,3.823,3.823,0,0,1,32.9,14.94a3.279,3.279,0,0,1,.645,2.065,3.669,3.669,0,0,1-1.465,3.047A6.08,6.08,0,0,1,28.229,21.2a6.306,6.306,0,0,1-2.593-.532,4.062,4.062,0,0,1-1.812-1.475,3.834,3.834,0,0,1-.615-2.144H26.52a1.482,1.482,0,0,0,.527,1.133,1.862,1.862,0,0,0,1.3.479,1.95,1.95,0,0,0,1.387-.483,1.616,1.616,0,0,0,.518-1.235,1.889,1.889,0,0,0-.537-1.523,2.245,2.245,0,0,0-1.484-.449h-1.6Z" transform="translate(1022 4646.7)" fill="#ad7c1b"/>
    <path id="Trazado_960508" data-name="Trazado 960508" d="M10.029-5.664H4.5V0H1.074V-14.219h9.512v2.646H4.5V-8.3h5.527ZM15.449,0H12.139V-10.566h3.311Zm-1.23-14.8H17.7L14.98-11.738l-2.686,0ZM23.1-2.969a.76.76,0,0,0-.439-.674,6.685,6.685,0,0,0-1.67-.527,7.615,7.615,0,0,1-2.031-.718,3.4,3.4,0,0,1-1.221-1.079,2.577,2.577,0,0,1-.42-1.455,2.92,2.92,0,0,1,1.2-2.4,4.948,4.948,0,0,1,3.145-.942,5.482,5.482,0,0,1,3.359.947,2.962,2.962,0,0,1,1.27,2.49h-3.3q0-1.27-1.338-1.27a1.326,1.326,0,0,0-.869.288.892.892,0,0,0-.352.718.819.819,0,0,0,.43.713,4.06,4.06,0,0,0,1.372.449,11.857,11.857,0,0,1,1.655.42A3.007,3.007,0,0,1,26.27-3.066,2.767,2.767,0,0,1,24.985-.713,5.631,5.631,0,0,1,21.66.2a5.747,5.747,0,0,1-2.422-.488,4.05,4.05,0,0,1-1.66-1.328,3.007,3.007,0,0,1-.6-1.768h3.076a1.272,1.272,0,0,0,.488,1.069,2.009,2.009,0,0,0,1.2.337,1.58,1.58,0,0,0,1.011-.273A.875.875,0,0,0,23.1-2.969ZM31.279,0h-3.3V-10.566h3.3Zm-3.5-13.291a1.469,1.469,0,0,1,.508-1.152,1.916,1.916,0,0,1,1.318-.449,1.916,1.916,0,0,1,1.318.449,1.469,1.469,0,0,1,.508,1.152,1.469,1.469,0,0,1-.508,1.152,1.916,1.916,0,0,1-1.318.449,1.916,1.916,0,0,1-1.318-.449A1.469,1.469,0,0,1,27.783-13.291Zm9.99,10.947a1.464,1.464,0,0,0,1.074-.376,1.379,1.379,0,0,0,.371-1.05H42.3A3.653,3.653,0,0,1,41.06-.918,4.631,4.631,0,0,1,37.852.2,4.689,4.689,0,0,1,34.219-1.25a5.7,5.7,0,0,1-1.328-4v-.137a6.436,6.436,0,0,1,.591-2.827,4.3,4.3,0,0,1,1.7-1.885,5.081,5.081,0,0,1,2.637-.659,4.573,4.573,0,0,1,3.271,1.143,4.053,4.053,0,0,1,1.211,3.1H39.219a1.807,1.807,0,0,0-.4-1.26,1.382,1.382,0,0,0-1.074-.439q-1.279,0-1.494,1.631a11.507,11.507,0,0,0-.068,1.426,4.52,4.52,0,0,0,.381,2.207A1.319,1.319,0,0,0,37.773-2.344ZM49.648,0a3.716,3.716,0,0,1-.312-.947A3.06,3.06,0,0,1,46.8.2a3.749,3.749,0,0,1-2.539-.9,2.875,2.875,0,0,1-1.045-2.271,2.955,2.955,0,0,1,1.27-2.6,6.468,6.468,0,0,1,3.691-.879h1.016v-.559q0-1.462-1.26-1.462a1.03,1.03,0,0,0-1.172,1.158H43.467a2.95,2.95,0,0,1,1.3-2.487,5.479,5.479,0,0,1,3.325-.956,4.8,4.8,0,0,1,3.193.986,3.429,3.429,0,0,1,1.2,2.705v4.678a4.79,4.79,0,0,0,.449,2.227V0ZM47.588-2.148a1.836,1.836,0,0,0,1.021-.264,1.653,1.653,0,0,0,.581-.6V-4.7h-.957q-1.719,0-1.719,1.543a.942.942,0,0,0,.3.728A1.1,1.1,0,0,0,47.588-2.148Zm12.256-.82a.76.76,0,0,0-.439-.674,6.685,6.685,0,0,0-1.67-.527A7.615,7.615,0,0,1,55.7-4.888a3.4,3.4,0,0,1-1.221-1.079,2.577,2.577,0,0,1-.42-1.455,2.92,2.92,0,0,1,1.2-2.4,4.948,4.948,0,0,1,3.145-.942,5.482,5.482,0,0,1,3.359.947,2.962,2.962,0,0,1,1.27,2.49h-3.3q0-1.27-1.338-1.27a1.326,1.326,0,0,0-.869.288.892.892,0,0,0-.352.718.819.819,0,0,0,.43.713,4.06,4.06,0,0,0,1.372.449,11.857,11.857,0,0,1,1.655.42,3.007,3.007,0,0,1,2.383,2.939A2.767,2.767,0,0,1,61.733-.713,5.632,5.632,0,0,1,58.408.2a5.747,5.747,0,0,1-2.422-.488,4.05,4.05,0,0,1-1.66-1.328,3.007,3.007,0,0,1-.6-1.768h3.076a1.272,1.272,0,0,0,.488,1.069,2.009,2.009,0,0,0,1.2.337,1.58,1.58,0,0,0,1.011-.273A.875.875,0,0,0,59.844-2.969Z" transform="translate(700 4442.7)" fill="#5988eb"/>
    <path id="Trazado_960514" data-name="Trazado 960514" d="M10.029-5.664H4.5V0H1.074V-14.219h9.512v2.646H4.5V-8.3h5.527ZM15.449,0H12.139V-10.566h3.311Zm-1.23-14.8H17.7L14.98-11.738l-2.686,0ZM23.1-2.969a.76.76,0,0,0-.439-.674,6.685,6.685,0,0,0-1.67-.527,7.615,7.615,0,0,1-2.031-.718,3.4,3.4,0,0,1-1.221-1.079,2.577,2.577,0,0,1-.42-1.455,2.92,2.92,0,0,1,1.2-2.4,4.948,4.948,0,0,1,3.145-.942,5.482,5.482,0,0,1,3.359.947,2.962,2.962,0,0,1,1.27,2.49h-3.3q0-1.27-1.338-1.27a1.326,1.326,0,0,0-.869.288.892.892,0,0,0-.352.718.819.819,0,0,0,.43.713,4.06,4.06,0,0,0,1.372.449,11.857,11.857,0,0,1,1.655.42A3.007,3.007,0,0,1,26.27-3.066,2.767,2.767,0,0,1,24.985-.713,5.631,5.631,0,0,1,21.66.2a5.747,5.747,0,0,1-2.422-.488,4.05,4.05,0,0,1-1.66-1.328,3.007,3.007,0,0,1-.6-1.768h3.076a1.272,1.272,0,0,0,.488,1.069,2.009,2.009,0,0,0,1.2.337,1.58,1.58,0,0,0,1.011-.273A.875.875,0,0,0,23.1-2.969ZM31.279,0h-3.3V-10.566h3.3Zm-3.5-13.291a1.469,1.469,0,0,1,.508-1.152,1.916,1.916,0,0,1,1.318-.449,1.916,1.916,0,0,1,1.318.449,1.469,1.469,0,0,1,.508,1.152,1.469,1.469,0,0,1-.508,1.152,1.916,1.916,0,0,1-1.318.449,1.916,1.916,0,0,1-1.318-.449A1.469,1.469,0,0,1,27.783-13.291Zm9.99,10.947a1.464,1.464,0,0,0,1.074-.376,1.379,1.379,0,0,0,.371-1.05H42.3A3.653,3.653,0,0,1,41.06-.918,4.631,4.631,0,0,1,37.852.2,4.689,4.689,0,0,1,34.219-1.25a5.7,5.7,0,0,1-1.328-4v-.137a6.436,6.436,0,0,1,.591-2.827,4.3,4.3,0,0,1,1.7-1.885,5.081,5.081,0,0,1,2.637-.659,4.573,4.573,0,0,1,3.271,1.143,4.053,4.053,0,0,1,1.211,3.1H39.219a1.807,1.807,0,0,0-.4-1.26,1.382,1.382,0,0,0-1.074-.439q-1.279,0-1.494,1.631a11.507,11.507,0,0,0-.068,1.426,4.52,4.52,0,0,0,.381,2.207A1.319,1.319,0,0,0,37.773-2.344ZM49.648,0a3.716,3.716,0,0,1-.312-.947A3.06,3.06,0,0,1,46.8.2a3.749,3.749,0,0,1-2.539-.9,2.875,2.875,0,0,1-1.045-2.271,2.955,2.955,0,0,1,1.27-2.6,6.468,6.468,0,0,1,3.691-.879h1.016v-.559q0-1.462-1.26-1.462a1.03,1.03,0,0,0-1.172,1.158H43.467a2.95,2.95,0,0,1,1.3-2.487,5.479,5.479,0,0,1,3.325-.956,4.8,4.8,0,0,1,3.193.986,3.429,3.429,0,0,1,1.2,2.705v4.678a4.79,4.79,0,0,0,.449,2.227V0ZM47.588-2.148a1.836,1.836,0,0,0,1.021-.264,1.653,1.653,0,0,0,.581-.6V-4.7h-.957q-1.719,0-1.719,1.543a.942.942,0,0,0,.3.728A1.1,1.1,0,0,0,47.588-2.148Zm12.256-.82a.76.76,0,0,0-.439-.674,6.685,6.685,0,0,0-1.67-.527A7.615,7.615,0,0,1,55.7-4.888a3.4,3.4,0,0,1-1.221-1.079,2.577,2.577,0,0,1-.42-1.455,2.92,2.92,0,0,1,1.2-2.4,4.948,4.948,0,0,1,3.145-.942,5.482,5.482,0,0,1,3.359.947,2.962,2.962,0,0,1,1.27,2.49h-3.3q0-1.27-1.338-1.27a1.326,1.326,0,0,0-.869.288.892.892,0,0,0-.352.718.819.819,0,0,0,.43.713,4.06,4.06,0,0,0,1.372.449,11.857,11.857,0,0,1,1.655.42,3.007,3.007,0,0,1,2.383,2.939A2.767,2.767,0,0,1,61.733-.713,5.632,5.632,0,0,1,58.408.2a5.747,5.747,0,0,1-2.422-.488,4.05,4.05,0,0,1-1.66-1.328,3.007,3.007,0,0,1-.6-1.768h3.076a1.272,1.272,0,0,0,.488,1.069,2.009,2.009,0,0,0,1.2.337,1.58,1.58,0,0,0,1.011-.273A.875.875,0,0,0,59.844-2.969Z" transform="translate(1079 4453.7)" fill="#5988eb"/>
    <path id="Trazado_960517" data-name="Trazado 960517" d="M13.135-6.816a8.4,8.4,0,0,1-.654,3.442,5.984,5.984,0,0,1-1.807,2.358L12.969.8,10.85,2.6,7.793.137A6.353,6.353,0,0,1,6.934.2a6.163,6.163,0,0,1-3.223-.84,5.712,5.712,0,0,1-2.192-2.4A8.159,8.159,0,0,1,.7-6.641v-.752a8.414,8.414,0,0,1,.767-3.691,5.713,5.713,0,0,1,2.188-2.461,6.115,6.115,0,0,1,3.257-.869,6.087,6.087,0,0,1,3.223.859,5.79,5.79,0,0,1,2.2,2.446,8.18,8.18,0,0,1,.8,3.638Zm-3.486-.6A5.979,5.979,0,0,0,8.94-10.63a2.271,2.271,0,0,0-2.026-1.1,2.256,2.256,0,0,0-2.041,1.084A6.057,6.057,0,0,0,4.18-7.471v.654A6.145,6.145,0,0,0,4.873-3.6,2.27,2.27,0,0,0,6.934-2.48a2.237,2.237,0,0,0,2.007-1.1,6.016,6.016,0,0,0,.708-3.174Zm11.377,6.27A3.393,3.393,0,0,1,18.2.2,3.328,3.328,0,0,1,15.571-.815a4.251,4.251,0,0,1-.894-2.905v-6.846h3.291V-3.7a1.183,1.183,0,0,0,1.318,1.357A1.72,1.72,0,0,0,20.9-3.154v-7.412h3.311V0H21.123ZM29.6,0H26.289V-10.566H29.6Zm-1.23-14.8h3.477l-2.715,3.066-2.686,0Zm6.455,4.238.107,1.24a3.633,3.633,0,0,1,3.018-1.436A2.675,2.675,0,0,1,40.654-9.17a3.516,3.516,0,0,1,3.105-1.592q3.213,0,3.3,3.887V0h-3.3V-6.67a2.014,2.014,0,0,0-.273-1.182,1.164,1.164,0,0,0-1-.371,1.559,1.559,0,0,0-1.455.869l.01.137V0h-3.3V-6.65a2.117,2.117,0,0,0-.264-1.2,1.161,1.161,0,0,0-1.006-.371,1.578,1.578,0,0,0-1.445.869V0H31.738V-10.566ZM52.412,0h-3.3V-10.566h3.3Zm-3.5-13.291a1.469,1.469,0,0,1,.508-1.152,1.916,1.916,0,0,1,1.318-.449,1.916,1.916,0,0,1,1.318.449,1.469,1.469,0,0,1,.508,1.152,1.469,1.469,0,0,1-.508,1.152,1.916,1.916,0,0,1-1.318.449,1.916,1.916,0,0,1-1.318-.449A1.469,1.469,0,0,1,48.916-13.291Zm9.99,10.947A1.464,1.464,0,0,0,59.98-2.72a1.379,1.379,0,0,0,.371-1.05h3.086A3.653,3.653,0,0,1,62.192-.918,4.631,4.631,0,0,1,58.984.2,4.689,4.689,0,0,1,55.352-1.25a5.7,5.7,0,0,1-1.328-4v-.137a6.436,6.436,0,0,1,.591-2.827,4.3,4.3,0,0,1,1.7-1.885,5.081,5.081,0,0,1,2.637-.659,4.573,4.573,0,0,1,3.271,1.143,4.053,4.053,0,0,1,1.211,3.1H60.352a1.807,1.807,0,0,0-.4-1.26,1.382,1.382,0,0,0-1.074-.439q-1.279,0-1.494,1.631a11.507,11.507,0,0,0-.068,1.426A4.52,4.52,0,0,0,57.7-2.959,1.319,1.319,0,0,0,58.906-2.344ZM70.781,0a3.716,3.716,0,0,1-.312-.947A3.06,3.06,0,0,1,67.93.2a3.749,3.749,0,0,1-2.539-.9,2.875,2.875,0,0,1-1.045-2.271,2.955,2.955,0,0,1,1.27-2.6,6.468,6.468,0,0,1,3.691-.879h1.016v-.559q0-1.462-1.26-1.462a1.03,1.03,0,0,0-1.172,1.158H64.6a2.95,2.95,0,0,1,1.3-2.487,5.479,5.479,0,0,1,3.325-.956,4.8,4.8,0,0,1,3.193.986,3.429,3.429,0,0,1,1.2,2.705v4.678a4.79,4.79,0,0,0,.449,2.227V0ZM68.721-2.148a1.836,1.836,0,0,0,1.021-.264,1.653,1.653,0,0,0,.581-.6V-4.7h-.957q-1.719,0-1.719,1.543a.942.942,0,0,0,.3.728A1.1,1.1,0,0,0,68.721-2.148Zm12.256-.82a.76.76,0,0,0-.439-.674,6.685,6.685,0,0,0-1.67-.527,7.615,7.615,0,0,1-2.031-.718,3.4,3.4,0,0,1-1.221-1.079,2.577,2.577,0,0,1-.42-1.455,2.92,2.92,0,0,1,1.2-2.4,4.948,4.948,0,0,1,3.145-.942,5.482,5.482,0,0,1,3.359.947,2.962,2.962,0,0,1,1.27,2.49h-3.3q0-1.27-1.338-1.27a1.326,1.326,0,0,0-.869.288.892.892,0,0,0-.352.718.819.819,0,0,0,.43.713,4.06,4.06,0,0,0,1.372.449,11.857,11.857,0,0,1,1.655.42A3.007,3.007,0,0,1,84.15-3.066,2.767,2.767,0,0,1,82.866-.713,5.631,5.631,0,0,1,79.541.2a5.747,5.747,0,0,1-2.422-.488,4.05,4.05,0,0,1-1.66-1.328,3.007,3.007,0,0,1-.6-1.768h3.076a1.272,1.272,0,0,0,.488,1.069,2.009,2.009,0,0,0,1.2.337,1.58,1.58,0,0,0,1.011-.273A.875.875,0,0,0,80.977-2.969Z" transform="translate(1079 4561.7)" fill="#28a29f"/>
    <path id="Trazado_960531" data-name="Trazado 960531" d="M13.135-6.816a8.4,8.4,0,0,1-.654,3.442,5.984,5.984,0,0,1-1.807,2.358L12.969.8,10.85,2.6,7.793.137A6.353,6.353,0,0,1,6.934.2a6.163,6.163,0,0,1-3.223-.84,5.712,5.712,0,0,1-2.192-2.4A8.159,8.159,0,0,1,.7-6.641v-.752a8.414,8.414,0,0,1,.767-3.691,5.713,5.713,0,0,1,2.188-2.461,6.115,6.115,0,0,1,3.257-.869,6.087,6.087,0,0,1,3.223.859,5.79,5.79,0,0,1,2.2,2.446,8.18,8.18,0,0,1,.8,3.638Zm-3.486-.6A5.979,5.979,0,0,0,8.94-10.63a2.271,2.271,0,0,0-2.026-1.1,2.256,2.256,0,0,0-2.041,1.084A6.057,6.057,0,0,0,4.18-7.471v.654A6.145,6.145,0,0,0,4.873-3.6,2.27,2.27,0,0,0,6.934-2.48a2.237,2.237,0,0,0,2.007-1.1,6.016,6.016,0,0,0,.708-3.174Zm11.377,6.27A3.393,3.393,0,0,1,18.2.2,3.328,3.328,0,0,1,15.571-.815a4.251,4.251,0,0,1-.894-2.905v-6.846h3.291V-3.7a1.183,1.183,0,0,0,1.318,1.357A1.72,1.72,0,0,0,20.9-3.154v-7.412h3.311V0H21.123ZM29.6,0H26.289V-10.566H29.6Zm-1.23-14.8h3.477l-2.715,3.066-2.686,0Zm6.455,4.238.107,1.24a3.633,3.633,0,0,1,3.018-1.436A2.675,2.675,0,0,1,40.654-9.17a3.516,3.516,0,0,1,3.105-1.592q3.213,0,3.3,3.887V0h-3.3V-6.67a2.014,2.014,0,0,0-.273-1.182,1.164,1.164,0,0,0-1-.371,1.559,1.559,0,0,0-1.455.869l.01.137V0h-3.3V-6.65a2.117,2.117,0,0,0-.264-1.2,1.161,1.161,0,0,0-1.006-.371,1.578,1.578,0,0,0-1.445.869V0H31.738V-10.566ZM52.412,0h-3.3V-10.566h3.3Zm-3.5-13.291a1.469,1.469,0,0,1,.508-1.152,1.916,1.916,0,0,1,1.318-.449,1.916,1.916,0,0,1,1.318.449,1.469,1.469,0,0,1,.508,1.152,1.469,1.469,0,0,1-.508,1.152,1.916,1.916,0,0,1-1.318.449,1.916,1.916,0,0,1-1.318-.449A1.469,1.469,0,0,1,48.916-13.291Zm9.99,10.947A1.464,1.464,0,0,0,59.98-2.72a1.379,1.379,0,0,0,.371-1.05h3.086A3.653,3.653,0,0,1,62.192-.918,4.631,4.631,0,0,1,58.984.2,4.689,4.689,0,0,1,55.352-1.25a5.7,5.7,0,0,1-1.328-4v-.137a6.436,6.436,0,0,1,.591-2.827,4.3,4.3,0,0,1,1.7-1.885,5.081,5.081,0,0,1,2.637-.659,4.573,4.573,0,0,1,3.271,1.143,4.053,4.053,0,0,1,1.211,3.1H60.352a1.807,1.807,0,0,0-.4-1.26,1.382,1.382,0,0,0-1.074-.439q-1.279,0-1.494,1.631a11.507,11.507,0,0,0-.068,1.426A4.52,4.52,0,0,0,57.7-2.959,1.319,1.319,0,0,0,58.906-2.344ZM70.781,0a3.716,3.716,0,0,1-.312-.947A3.06,3.06,0,0,1,67.93.2a3.749,3.749,0,0,1-2.539-.9,2.875,2.875,0,0,1-1.045-2.271,2.955,2.955,0,0,1,1.27-2.6,6.468,6.468,0,0,1,3.691-.879h1.016v-.559q0-1.462-1.26-1.462a1.03,1.03,0,0,0-1.172,1.158H64.6a2.95,2.95,0,0,1,1.3-2.487,5.479,5.479,0,0,1,3.325-.956,4.8,4.8,0,0,1,3.193.986,3.429,3.429,0,0,1,1.2,2.705v4.678a4.79,4.79,0,0,0,.449,2.227V0ZM68.721-2.148a1.836,1.836,0,0,0,1.021-.264,1.653,1.653,0,0,0,.581-.6V-4.7h-.957q-1.719,0-1.719,1.543a.942.942,0,0,0,.3.728A1.1,1.1,0,0,0,68.721-2.148Zm12.256-.82a.76.76,0,0,0-.439-.674,6.685,6.685,0,0,0-1.67-.527,7.615,7.615,0,0,1-2.031-.718,3.4,3.4,0,0,1-1.221-1.079,2.577,2.577,0,0,1-.42-1.455,2.92,2.92,0,0,1,1.2-2.4,4.948,4.948,0,0,1,3.145-.942,5.482,5.482,0,0,1,3.359.947,2.962,2.962,0,0,1,1.27,2.49h-3.3q0-1.27-1.338-1.27a1.326,1.326,0,0,0-.869.288.892.892,0,0,0-.352.718.819.819,0,0,0,.43.713,4.06,4.06,0,0,0,1.372.449,11.857,11.857,0,0,1,1.655.42A3.007,3.007,0,0,1,84.15-3.066,2.767,2.767,0,0,1,82.866-.713,5.631,5.631,0,0,1,79.541.2a5.747,5.747,0,0,1-2.422-.488,4.05,4.05,0,0,1-1.66-1.328,3.007,3.007,0,0,1-.6-1.768h3.076a1.272,1.272,0,0,0,.488,1.069,2.009,2.009,0,0,0,1.2.337,1.58,1.58,0,0,0,1.011-.273A.875.875,0,0,0,80.977-2.969Z" transform="translate(1079 4667.677)" fill="#e6ab45"/>
    <path id="Trazado_960509" data-name="Trazado 960509" d="M13.135-6.816a8.4,8.4,0,0,1-.654,3.442,5.984,5.984,0,0,1-1.807,2.358L12.969.8,10.85,2.6,7.793.137A6.353,6.353,0,0,1,6.934.2a6.163,6.163,0,0,1-3.223-.84,5.712,5.712,0,0,1-2.192-2.4A8.159,8.159,0,0,1,.7-6.641v-.752a8.414,8.414,0,0,1,.767-3.691,5.713,5.713,0,0,1,2.188-2.461,6.115,6.115,0,0,1,3.257-.869,6.087,6.087,0,0,1,3.223.859,5.79,5.79,0,0,1,2.2,2.446,8.18,8.18,0,0,1,.8,3.638Zm-3.486-.6A5.979,5.979,0,0,0,8.94-10.63a2.271,2.271,0,0,0-2.026-1.1,2.256,2.256,0,0,0-2.041,1.084A6.057,6.057,0,0,0,4.18-7.471v.654A6.145,6.145,0,0,0,4.873-3.6,2.27,2.27,0,0,0,6.934-2.48a2.237,2.237,0,0,0,2.007-1.1,6.016,6.016,0,0,0,.708-3.174Zm11.377,6.27A3.393,3.393,0,0,1,18.2.2,3.328,3.328,0,0,1,15.571-.815a4.251,4.251,0,0,1-.894-2.905v-6.846h3.291V-3.7a1.183,1.183,0,0,0,1.318,1.357A1.72,1.72,0,0,0,20.9-3.154v-7.412h3.311V0H21.123ZM29.6,0H26.289V-10.566H29.6Zm-1.23-14.8h3.477l-2.715,3.066-2.686,0Zm6.455,4.238.107,1.24a3.633,3.633,0,0,1,3.018-1.436A2.675,2.675,0,0,1,40.654-9.17a3.516,3.516,0,0,1,3.105-1.592q3.213,0,3.3,3.887V0h-3.3V-6.67a2.014,2.014,0,0,0-.273-1.182,1.164,1.164,0,0,0-1-.371,1.559,1.559,0,0,0-1.455.869l.01.137V0h-3.3V-6.65a2.117,2.117,0,0,0-.264-1.2,1.161,1.161,0,0,0-1.006-.371,1.578,1.578,0,0,0-1.445.869V0H31.738V-10.566ZM52.412,0h-3.3V-10.566h3.3Zm-3.5-13.291a1.469,1.469,0,0,1,.508-1.152,1.916,1.916,0,0,1,1.318-.449,1.916,1.916,0,0,1,1.318.449,1.469,1.469,0,0,1,.508,1.152,1.469,1.469,0,0,1-.508,1.152,1.916,1.916,0,0,1-1.318.449,1.916,1.916,0,0,1-1.318-.449A1.469,1.469,0,0,1,48.916-13.291Zm9.99,10.947A1.464,1.464,0,0,0,59.98-2.72a1.379,1.379,0,0,0,.371-1.05h3.086A3.653,3.653,0,0,1,62.192-.918,4.631,4.631,0,0,1,58.984.2,4.689,4.689,0,0,1,55.352-1.25a5.7,5.7,0,0,1-1.328-4v-.137a6.436,6.436,0,0,1,.591-2.827,4.3,4.3,0,0,1,1.7-1.885,5.081,5.081,0,0,1,2.637-.659,4.573,4.573,0,0,1,3.271,1.143,4.053,4.053,0,0,1,1.211,3.1H60.352a1.807,1.807,0,0,0-.4-1.26,1.382,1.382,0,0,0-1.074-.439q-1.279,0-1.494,1.631a11.507,11.507,0,0,0-.068,1.426A4.52,4.52,0,0,0,57.7-2.959,1.319,1.319,0,0,0,58.906-2.344ZM70.781,0a3.716,3.716,0,0,1-.312-.947A3.06,3.06,0,0,1,67.93.2a3.749,3.749,0,0,1-2.539-.9,2.875,2.875,0,0,1-1.045-2.271,2.955,2.955,0,0,1,1.27-2.6,6.468,6.468,0,0,1,3.691-.879h1.016v-.559q0-1.462-1.26-1.462a1.03,1.03,0,0,0-1.172,1.158H64.6a2.95,2.95,0,0,1,1.3-2.487,5.479,5.479,0,0,1,3.325-.956,4.8,4.8,0,0,1,3.193.986,3.429,3.429,0,0,1,1.2,2.705v4.678a4.79,4.79,0,0,0,.449,2.227V0ZM68.721-2.148a1.836,1.836,0,0,0,1.021-.264,1.653,1.653,0,0,0,.581-.6V-4.7h-.957q-1.719,0-1.719,1.543a.942.942,0,0,0,.3.728A1.1,1.1,0,0,0,68.721-2.148Zm12.256-.82a.76.76,0,0,0-.439-.674,6.685,6.685,0,0,0-1.67-.527,7.615,7.615,0,0,1-2.031-.718,3.4,3.4,0,0,1-1.221-1.079,2.577,2.577,0,0,1-.42-1.455,2.92,2.92,0,0,1,1.2-2.4,4.948,4.948,0,0,1,3.145-.942,5.482,5.482,0,0,1,3.359.947,2.962,2.962,0,0,1,1.27,2.49h-3.3q0-1.27-1.338-1.27a1.326,1.326,0,0,0-.869.288.892.892,0,0,0-.352.718.819.819,0,0,0,.43.713,4.06,4.06,0,0,0,1.372.449,11.857,11.857,0,0,1,1.655.42A3.007,3.007,0,0,1,84.15-3.066,2.767,2.767,0,0,1,82.866-.713,5.631,5.631,0,0,1,79.541.2a5.747,5.747,0,0,1-2.422-.488,4.05,4.05,0,0,1-1.66-1.328,3.007,3.007,0,0,1-.6-1.768h3.076a1.272,1.272,0,0,0,.488,1.069,2.009,2.009,0,0,0,1.2.337,1.58,1.58,0,0,0,1.011-.273A.875.875,0,0,0,80.977-2.969Z" transform="translate(894 4457.7)" fill="#28a29f"/>
    <path id="Trazado_960534" data-name="Trazado 960534" d="M1.074,0V-14.219H6.182a7.232,7.232,0,0,1,4.175,1.006,3.347,3.347,0,0,1,1.431,2.92,3.383,3.383,0,0,1-.508,1.885A2.959,2.959,0,0,1,9.785-7.256a3,3,0,0,1,1.709,1.094,3.18,3.18,0,0,1,.6,1.953,3.765,3.765,0,0,1-1.323,3.14A6.3,6.3,0,0,1,6.846,0ZM4.5-6.045v3.408H6.748a2.136,2.136,0,0,0,1.426-.425,1.487,1.487,0,0,0,.5-1.2A1.576,1.576,0,0,0,6.9-6.045Zm0-2.246H6.289a2.539,2.539,0,0,0,1.6-.411,1.46,1.46,0,0,0,.479-1.185,1.533,1.533,0,0,0-.518-1.3,2.77,2.77,0,0,0-1.67-.4H4.5ZM17.295,0h-3.3V-10.566h3.3ZM13.8-13.291a1.469,1.469,0,0,1,.508-1.152,1.916,1.916,0,0,1,1.318-.449,1.916,1.916,0,0,1,1.318.449,1.469,1.469,0,0,1,.508,1.152,1.469,1.469,0,0,1-.508,1.152,1.916,1.916,0,0,1-1.318.449,1.916,1.916,0,0,1-1.318-.449A1.469,1.469,0,0,1,13.8-13.291Zm5.107,7.91A6.236,6.236,0,0,1,19.521-8.2a4.4,4.4,0,0,1,1.768-1.9,5.323,5.323,0,0,1,2.705-.664,4.858,4.858,0,0,1,3.74,1.47,5.64,5.64,0,0,1,1.367,4v.117a5.472,5.472,0,0,1-1.372,3.921A4.871,4.871,0,0,1,24.014.2a4.927,4.927,0,0,1-3.623-1.353,5.29,5.29,0,0,1-1.475-3.667Zm3.291.205a3.932,3.932,0,0,0,.459,2.148,1.529,1.529,0,0,0,1.357.684q1.758,0,1.8-2.705v-.332q0-2.842-1.816-2.842-1.65,0-1.787,2.451ZM34.023,0h-3.3V-15h3.3Zm1.611-5.381A6.236,6.236,0,0,1,36.25-8.2a4.4,4.4,0,0,1,1.768-1.9,5.323,5.323,0,0,1,2.705-.664,4.858,4.858,0,0,1,3.74,1.47,5.64,5.64,0,0,1,1.367,4v.117a5.472,5.472,0,0,1-1.372,3.921A4.871,4.871,0,0,1,40.742.2a4.927,4.927,0,0,1-3.623-1.353,5.29,5.29,0,0,1-1.475-3.667Zm3.291.205a3.932,3.932,0,0,0,.459,2.148,1.529,1.529,0,0,0,1.357.684q1.758,0,1.8-2.705v-.332q0-2.842-1.816-2.842-1.65,0-1.787,2.451ZM41.172-15h3.477l-2.715,3.066-2.686,0Zm5.723,9.639a7.134,7.134,0,0,1,.527-2.832,4.245,4.245,0,0,1,1.514-1.9,3.99,3.99,0,0,1,2.295-.669,3.173,3.173,0,0,1,2.578,1.113l.117-.918h2.988V-.4a4.455,4.455,0,0,1-.649,2.427,4.167,4.167,0,0,1-1.88,1.582,6.91,6.91,0,0,1-2.852.552,5.961,5.961,0,0,1-2.251-.439,4.063,4.063,0,0,1-1.665-1.143L48.994.645a3.018,3.018,0,0,0,2.422,1.084A1.96,1.96,0,0,0,53.6-.518V-.85A3.09,3.09,0,0,1,51.211.2a3.819,3.819,0,0,1-3.125-1.479,6.13,6.13,0,0,1-1.191-3.96Zm3.3.205A3.759,3.759,0,0,0,50.684-3.1a1.541,1.541,0,0,0,1.367.757A1.748,1.748,0,0,0,53.6-3.057V-7.5a1.7,1.7,0,0,0-1.533-.723,1.551,1.551,0,0,0-1.377.786A4.287,4.287,0,0,0,50.2-5.156ZM62.256,0h-3.3V-10.566h3.3Zm-3.5-13.291a1.469,1.469,0,0,1,.508-1.152,1.916,1.916,0,0,1,1.318-.449,1.916,1.916,0,0,1,1.318.449,1.469,1.469,0,0,1,.508,1.152,1.469,1.469,0,0,1-.508,1.152,1.916,1.916,0,0,1-1.318.449,1.916,1.916,0,0,1-1.318-.449A1.469,1.469,0,0,1,58.76-13.291ZM68.75-2.344a1.464,1.464,0,0,0,1.074-.376A1.379,1.379,0,0,0,70.2-3.77h3.086A3.653,3.653,0,0,1,72.036-.918,4.631,4.631,0,0,1,68.828.2,4.689,4.689,0,0,1,65.2-1.25a5.7,5.7,0,0,1-1.328-4v-.137a6.436,6.436,0,0,1,.591-2.827,4.3,4.3,0,0,1,1.7-1.885,5.081,5.081,0,0,1,2.637-.659A4.573,4.573,0,0,1,72.07-9.619a4.053,4.053,0,0,1,1.211,3.1H70.2a1.806,1.806,0,0,0-.4-1.26,1.382,1.382,0,0,0-1.074-.439q-1.279,0-1.494,1.631a11.508,11.508,0,0,0-.068,1.426,4.52,4.52,0,0,0,.381,2.207A1.319,1.319,0,0,0,68.75-2.344ZM80.625,0a3.716,3.716,0,0,1-.312-.947A3.06,3.06,0,0,1,77.773.2a3.749,3.749,0,0,1-2.539-.9,2.875,2.875,0,0,1-1.045-2.271,2.955,2.955,0,0,1,1.27-2.6,6.468,6.468,0,0,1,3.691-.879h1.016v-.559q0-1.462-1.26-1.462a1.03,1.03,0,0,0-1.172,1.158H74.443a2.95,2.95,0,0,1,1.3-2.487,5.479,5.479,0,0,1,3.325-.956,4.8,4.8,0,0,1,3.193.986,3.429,3.429,0,0,1,1.2,2.705v4.678a4.79,4.79,0,0,0,.449,2.227V0ZM78.564-2.148a1.836,1.836,0,0,0,1.021-.264,1.653,1.653,0,0,0,.581-.6V-4.7h-.957q-1.719,0-1.719,1.543a.942.942,0,0,0,.3.728A1.1,1.1,0,0,0,78.564-2.148Zm12.256-.82a.76.76,0,0,0-.439-.674,6.685,6.685,0,0,0-1.67-.527,7.615,7.615,0,0,1-2.031-.718,3.4,3.4,0,0,1-1.221-1.079,2.577,2.577,0,0,1-.42-1.455,2.92,2.92,0,0,1,1.2-2.4,4.948,4.948,0,0,1,3.145-.942,5.482,5.482,0,0,1,3.359.947,2.962,2.962,0,0,1,1.27,2.49h-3.3q0-1.27-1.338-1.27a1.326,1.326,0,0,0-.869.288.892.892,0,0,0-.352.718.819.819,0,0,0,.43.713,4.06,4.06,0,0,0,1.372.449,11.857,11.857,0,0,1,1.655.42,3.007,3.007,0,0,1,2.383,2.939A2.767,2.767,0,0,1,92.71-.713,5.631,5.631,0,0,1,89.385.2a5.747,5.747,0,0,1-2.422-.488A4.05,4.05,0,0,1,85.3-1.621a3.007,3.007,0,0,1-.6-1.768h3.076a1.272,1.272,0,0,0,.488,1.069,2.009,2.009,0,0,0,1.2.337,1.58,1.58,0,0,0,1.011-.273A.875.875,0,0,0,90.82-2.969Z" transform="translate(765 4702.7)" fill="#e6ab45"/>
    <path id="Trazado_960519" data-name="Trazado 960519" d="M2.82,12.547V17H1.32V5.625h4.2a4.215,4.215,0,0,1,2.926.953A3.231,3.231,0,0,1,9.5,9.1a3.189,3.189,0,0,1-1.035,2.551,4.4,4.4,0,0,1-2.965.895Zm0-1.227h2.7a2.7,2.7,0,0,0,1.844-.567A2.075,2.075,0,0,0,8,9.113a2.143,2.143,0,0,0-.641-1.628A2.525,2.525,0,0,0,5.6,6.852H2.82ZM14.7,17.156a3.693,3.693,0,0,1-2.8-1.129,4.19,4.19,0,0,1-1.078-3.02v-.266A5.073,5.073,0,0,1,11.3,10.5a3.748,3.748,0,0,1,1.344-1.547,3.378,3.378,0,0,1,1.871-.559,3.166,3.166,0,0,1,2.563,1.086,4.7,4.7,0,0,1,.914,3.109v.6H12.266a3,3,0,0,0,.73,2.02,2.3,2.3,0,0,0,1.777.77,2.517,2.517,0,0,0,1.3-.312,3.259,3.259,0,0,0,.93-.828l.883.688A3.55,3.55,0,0,1,14.7,17.156Zm-.18-7.578a1.928,1.928,0,0,0-1.469.637A3.1,3.1,0,0,0,12.313,12h4.234v-.109a2.753,2.753,0,0,0-.594-1.707A1.815,1.815,0,0,0,14.516,9.578Zm10.07,5.18a1.064,1.064,0,0,0-.441-.91,4.249,4.249,0,0,0-1.539-.559,7.277,7.277,0,0,1-1.742-.562,2.479,2.479,0,0,1-.953-.781,1.869,1.869,0,0,1-.309-1.078,2.193,2.193,0,0,1,.879-1.758,3.432,3.432,0,0,1,2.246-.719,3.532,3.532,0,0,1,2.332.742,2.357,2.357,0,0,1,.895,1.9H24.5a1.3,1.3,0,0,0-.5-1.023,1.888,1.888,0,0,0-1.27-.43,1.976,1.976,0,0,0-1.234.344,1.082,1.082,0,0,0-.445.9.877.877,0,0,0,.414.789,5.1,5.1,0,0,0,1.5.508,7.8,7.8,0,0,1,1.754.578,2.558,2.558,0,0,1,1,.809,1.988,1.988,0,0,1,.324,1.152,2.163,2.163,0,0,1-.906,1.816,3.8,3.8,0,0,1-2.352.684,4.257,4.257,0,0,1-1.8-.359,2.922,2.922,0,0,1-1.223-1,2.42,2.42,0,0,1-.441-1.395h1.445a1.5,1.5,0,0,0,.582,1.152,2.258,2.258,0,0,0,1.434.426,2.331,2.331,0,0,0,1.316-.332A1.02,1.02,0,0,0,24.586,14.758ZM27.531,12.7a4.993,4.993,0,0,1,.488-2.234A3.643,3.643,0,0,1,29.379,8.93a3.7,3.7,0,0,1,1.988-.539,3.565,3.565,0,0,1,2.793,1.2,4.6,4.6,0,0,1,1.066,3.18v.1a5.036,5.036,0,0,1-.473,2.215A3.589,3.589,0,0,1,33.4,16.609a3.743,3.743,0,0,1-2.02.547,3.556,3.556,0,0,1-2.785-1.2A4.575,4.575,0,0,1,27.531,12.8Zm1.453.172a3.616,3.616,0,0,0,.652,2.258,2.211,2.211,0,0,0,3.5-.012,3.955,3.955,0,0,0,.648-2.418,3.61,3.61,0,0,0-.66-2.254,2.1,2.1,0,0,0-1.754-.863,2.075,2.075,0,0,0-1.727.852A3.925,3.925,0,0,0,28.984,12.867Z" transform="translate(1182.102 4419.7)" fill="#12263f"/>
    <path id="Trazado_960521" data-name="Trazado 960521" d="M5.492,12.4H2.82V17H1.313V5.625H5.078A4.457,4.457,0,0,1,8.035,6.5,3.148,3.148,0,0,1,9.07,9.047,3.062,3.062,0,0,1,8.5,10.9a3.428,3.428,0,0,1-1.6,1.18L9.57,16.906V17H7.961ZM2.82,11.172h2.3A2.6,2.6,0,0,0,6.9,10.593a1.959,1.959,0,0,0,.66-1.55,2.062,2.062,0,0,0-.629-1.62,2.663,2.663,0,0,0-1.816-.571H2.82Zm11.633,5.984a3.693,3.693,0,0,1-2.8-1.129,4.19,4.19,0,0,1-1.078-3.02v-.266a5.073,5.073,0,0,1,.48-2.246A3.748,3.748,0,0,1,12.4,8.949a3.378,3.378,0,0,1,1.871-.559,3.166,3.166,0,0,1,2.563,1.086,4.7,4.7,0,0,1,.914,3.109v.6H12.023a3,3,0,0,0,.73,2.02,2.3,2.3,0,0,0,1.777.77,2.517,2.517,0,0,0,1.3-.312,3.259,3.259,0,0,0,.93-.828l.883.688A3.55,3.55,0,0,1,14.453,17.156Zm-.18-7.578a1.928,1.928,0,0,0-1.469.637A3.1,3.1,0,0,0,12.07,12H16.3v-.109a2.753,2.753,0,0,0-.594-1.707A1.815,1.815,0,0,0,14.273,9.578ZM24.641,17a3.036,3.036,0,0,1-.2-.891,3.225,3.225,0,0,1-2.406,1.047,2.984,2.984,0,0,1-2.051-.707,2.287,2.287,0,0,1-.8-1.793,2.39,2.39,0,0,1,1-2.051,4.733,4.733,0,0,1,2.824-.73h1.406v-.664A1.623,1.623,0,0,0,23.961,10a1.821,1.821,0,0,0-1.336-.449,2.107,2.107,0,0,0-1.3.391,1.151,1.151,0,0,0-.523.945H19.352A2,2,0,0,1,19.8,9.668a3.066,3.066,0,0,1,1.219-.934,4.1,4.1,0,0,1,1.691-.344A3.342,3.342,0,0,1,25,9.121a2.635,2.635,0,0,1,.859,2.012v3.891a4.757,4.757,0,0,0,.3,1.852V17Zm-2.4-1.1a2.54,2.54,0,0,0,1.289-.352,2.127,2.127,0,0,0,.883-.914V12.9H23.281q-2.656,0-2.656,1.555a1.316,1.316,0,0,0,.453,1.063A1.742,1.742,0,0,0,22.242,15.9Zm9.273.078a2.082,2.082,0,0,0,1.352-.469,1.649,1.649,0,0,0,.641-1.172h1.367a2.621,2.621,0,0,1-.5,1.383,3.293,3.293,0,0,1-1.23,1.047,3.55,3.55,0,0,1-1.629.391A3.482,3.482,0,0,1,28.77,16a4.59,4.59,0,0,1-1.02-3.152v-.242a5.089,5.089,0,0,1,.453-2.2,3.451,3.451,0,0,1,1.3-1.492,3.7,3.7,0,0,1,2-.531,3.39,3.39,0,0,1,2.363.852,3.043,3.043,0,0,1,1,2.211H33.508a1.992,1.992,0,0,0-.621-1.348,1.932,1.932,0,0,0-1.379-.527,2.023,2.023,0,0,0-1.707.793,3.724,3.724,0,0,0-.605,2.293v.273a3.65,3.65,0,0,0,.6,2.25A2.033,2.033,0,0,0,31.516,15.977ZM38.461,6.5V8.547h1.578V9.664H38.461v5.249a1.173,1.173,0,0,0,.211.763.888.888,0,0,0,.719.254,3.5,3.5,0,0,0,.688-.094V17a4.215,4.215,0,0,1-1.109.155,1.8,1.8,0,0,1-1.461-.586,2.517,2.517,0,0,1-.492-1.664V9.664H35.477V8.547h1.539V6.5ZM43.3,17H41.852V8.547H43.3ZM41.734,6.3a.863.863,0,0,1,.215-.594.807.807,0,0,1,.637-.242.819.819,0,0,1,.641.242.854.854,0,0,1,.219.594.826.826,0,0,1-.219.586.834.834,0,0,1-.641.234.821.821,0,0,1-.637-.234A.834.834,0,0,1,41.734,6.3ZM48.4,15.039l2.094-6.492h1.477L48.938,17h-1.1L44.773,8.547H46.25ZM54.93,17H53.484V8.547H54.93ZM53.367,6.3a.863.863,0,0,1,.215-.594.807.807,0,0,1,.637-.242.819.819,0,0,1,.641.242.854.854,0,0,1,.219.594.826.826,0,0,1-.219.586.834.834,0,0,1-.641.234.821.821,0,0,1-.637-.234A.834.834,0,0,1,53.367,6.3Zm3.523,6.4a4.952,4.952,0,0,1,.922-3.129,3.137,3.137,0,0,1,4.766-.168V5h1.445V17H62.7l-.07-.906a2.943,2.943,0,0,1-2.414,1.063,2.887,2.887,0,0,1-2.395-1.2,5.008,5.008,0,0,1-.926-3.141Zm1.445.164a3.749,3.749,0,0,0,.594,2.25,1.92,1.92,0,0,0,1.641.813A2.108,2.108,0,0,0,62.578,14.7V10.813a2.125,2.125,0,0,0-1.992-1.2,1.929,1.929,0,0,0-1.656.82A4.128,4.128,0,0,0,58.336,12.867ZM71.484,17a3.036,3.036,0,0,1-.2-.891,3.225,3.225,0,0,1-2.406,1.047,2.984,2.984,0,0,1-2.051-.707,2.288,2.288,0,0,1-.8-1.793,2.39,2.39,0,0,1,1-2.051,4.733,4.733,0,0,1,2.824-.73h1.406v-.664A1.623,1.623,0,0,0,70.8,10a1.821,1.821,0,0,0-1.336-.449,2.108,2.108,0,0,0-1.3.391,1.151,1.151,0,0,0-.523.945H66.2a2,2,0,0,1,.449-1.223,3.066,3.066,0,0,1,1.219-.934,4.1,4.1,0,0,1,1.691-.344,3.342,3.342,0,0,1,2.289.73,2.635,2.635,0,0,1,.859,2.012v3.891a4.757,4.757,0,0,0,.3,1.852V17Zm-2.4-1.1a2.54,2.54,0,0,0,1.289-.352,2.127,2.127,0,0,0,.883-.914V12.9H70.125q-2.656,0-2.656,1.555a1.316,1.316,0,0,0,.453,1.063A1.742,1.742,0,0,0,69.086,15.9Zm5.531-3.2a4.952,4.952,0,0,1,.922-3.129A3.137,3.137,0,0,1,80.3,9.406V5H81.75V17H80.422l-.07-.906a2.943,2.943,0,0,1-2.414,1.063,2.887,2.887,0,0,1-2.395-1.2,5.008,5.008,0,0,1-.926-3.141Zm1.445.164a3.749,3.749,0,0,0,.594,2.25,1.92,1.92,0,0,0,1.641.813A2.108,2.108,0,0,0,80.3,14.7V10.813a2.125,2.125,0,0,0-1.992-1.2,1.929,1.929,0,0,0-1.656.82A4.128,4.128,0,0,0,76.063,12.867Z" transform="translate(1202.102 4527.7)" fill="#12263f"/>
    <path id="Trazado_960528" data-name="Trazado 960528" d="M9.18,6.852H5.523V17H4.031V6.852H.383V5.625h8.8ZM14.977,17a3.036,3.036,0,0,1-.2-.891,3.225,3.225,0,0,1-2.406,1.047,2.984,2.984,0,0,1-2.051-.707,2.287,2.287,0,0,1-.8-1.793,2.39,2.39,0,0,1,1-2.051,4.733,4.733,0,0,1,2.824-.73H14.75v-.664A1.623,1.623,0,0,0,14.3,10a1.821,1.821,0,0,0-1.336-.449,2.107,2.107,0,0,0-1.3.391,1.151,1.151,0,0,0-.523.945H9.688a2,2,0,0,1,.449-1.223,3.066,3.066,0,0,1,1.219-.934,4.1,4.1,0,0,1,1.691-.344,3.342,3.342,0,0,1,2.289.73,2.635,2.635,0,0,1,.859,2.012v3.891a4.757,4.757,0,0,0,.3,1.852V17Zm-2.4-1.1a2.54,2.54,0,0,0,1.289-.352,2.127,2.127,0,0,0,.883-.914V12.9H13.617q-2.656,0-2.656,1.555a1.316,1.316,0,0,0,.453,1.063A1.742,1.742,0,0,0,12.578,15.9Zm10.8-1.141a1.064,1.064,0,0,0-.441-.91,4.249,4.249,0,0,0-1.539-.559,7.277,7.277,0,0,1-1.742-.562,2.479,2.479,0,0,1-.953-.781,1.869,1.869,0,0,1-.309-1.078,2.193,2.193,0,0,1,.879-1.758,3.432,3.432,0,0,1,2.246-.719,3.532,3.532,0,0,1,2.332.742,2.357,2.357,0,0,1,.895,1.9H23.3a1.3,1.3,0,0,0-.5-1.023,1.888,1.888,0,0,0-1.27-.43,1.976,1.976,0,0,0-1.234.344,1.082,1.082,0,0,0-.445.9.877.877,0,0,0,.414.789,5.1,5.1,0,0,0,1.5.508,7.8,7.8,0,0,1,1.754.578,2.558,2.558,0,0,1,1,.809,1.988,1.988,0,0,1,.324,1.152,2.163,2.163,0,0,1-.906,1.816,3.8,3.8,0,0,1-2.352.684,4.257,4.257,0,0,1-1.8-.359,2.922,2.922,0,0,1-1.223-1,2.42,2.42,0,0,1-.441-1.395h1.445a1.5,1.5,0,0,0,.582,1.152,2.258,2.258,0,0,0,1.434.426,2.331,2.331,0,0,0,1.316-.332A1.02,1.02,0,0,0,23.383,14.758ZM31.93,17a3.036,3.036,0,0,1-.2-.891,3.225,3.225,0,0,1-2.406,1.047,2.984,2.984,0,0,1-2.051-.707,2.287,2.287,0,0,1-.8-1.793,2.39,2.39,0,0,1,1-2.051,4.733,4.733,0,0,1,2.824-.73H31.7v-.664A1.623,1.623,0,0,0,31.25,10a1.821,1.821,0,0,0-1.336-.449,2.107,2.107,0,0,0-1.3.391,1.151,1.151,0,0,0-.523.945H26.641a2,2,0,0,1,.449-1.223,3.066,3.066,0,0,1,1.219-.934A4.1,4.1,0,0,1,30,8.391a3.342,3.342,0,0,1,2.289.73,2.635,2.635,0,0,1,.859,2.012v3.891a4.757,4.757,0,0,0,.3,1.852V17Zm-2.4-1.1a2.54,2.54,0,0,0,1.289-.352,2.127,2.127,0,0,0,.883-.914V12.9H30.57q-2.656,0-2.656,1.555a1.316,1.316,0,0,0,.453,1.063A1.742,1.742,0,0,0,29.531,15.9Zm11.2-7.352.039.938a3.122,3.122,0,0,1,2.508-1.094A2.417,2.417,0,0,1,45.7,9.75a3.2,3.2,0,0,1,1.1-.984,3.242,3.242,0,0,1,1.6-.375q2.781,0,2.828,2.945V17H49.773V11.422a1.941,1.941,0,0,0-.414-1.355,1.823,1.823,0,0,0-1.391-.449,1.917,1.917,0,0,0-1.336.48,1.949,1.949,0,0,0-.617,1.293V17H44.563V11.461a1.613,1.613,0,0,0-1.8-1.844,1.934,1.934,0,0,0-1.945,1.211V17H39.367V8.547Zm16.172,8.609a3.693,3.693,0,0,1-2.8-1.129,4.19,4.19,0,0,1-1.078-3.02v-.266a5.073,5.073,0,0,1,.48-2.246,3.748,3.748,0,0,1,1.344-1.547,3.378,3.378,0,0,1,1.871-.559,3.166,3.166,0,0,1,2.563,1.086,4.7,4.7,0,0,1,.914,3.109v.6H54.477a3,3,0,0,0,.73,2.02,2.3,2.3,0,0,0,1.777.77,2.517,2.517,0,0,0,1.3-.312,3.259,3.259,0,0,0,.93-.828l.883.688A3.55,3.55,0,0,1,56.906,17.156Zm-.18-7.578a1.928,1.928,0,0,0-1.469.637A3.1,3.1,0,0,0,54.523,12h4.234v-.109a2.753,2.753,0,0,0-.594-1.707A1.815,1.815,0,0,0,56.727,9.578ZM63.836,6.5V8.547h1.578V9.664H63.836v5.249a1.173,1.173,0,0,0,.211.763.888.888,0,0,0,.719.254,3.5,3.5,0,0,0,.688-.094V17a4.215,4.215,0,0,1-1.109.155,1.8,1.8,0,0,1-1.461-.586,2.517,2.517,0,0,1-.492-1.664V9.664H60.852V8.547h1.539V6.5ZM72.32,17a3.036,3.036,0,0,1-.2-.891,3.225,3.225,0,0,1-2.406,1.047,2.984,2.984,0,0,1-2.051-.707,2.288,2.288,0,0,1-.8-1.793,2.39,2.39,0,0,1,1-2.051,4.733,4.733,0,0,1,2.824-.73h1.406v-.664A1.623,1.623,0,0,0,71.641,10,1.821,1.821,0,0,0,70.3,9.555a2.108,2.108,0,0,0-1.3.391,1.151,1.151,0,0,0-.523.945H67.031a2,2,0,0,1,.449-1.223A3.066,3.066,0,0,1,68.7,8.734a4.1,4.1,0,0,1,1.691-.344,3.342,3.342,0,0,1,2.289.73,2.635,2.635,0,0,1,.859,2.012v3.891a4.757,4.757,0,0,0,.3,1.852V17Zm-2.4-1.1a2.54,2.54,0,0,0,1.289-.352,2.127,2.127,0,0,0,.883-.914V12.9H70.961q-2.656,0-2.656,1.555a1.316,1.316,0,0,0,.453,1.063A1.742,1.742,0,0,0,69.922,15.9Zm13.039-3.031a5.026,5.026,0,0,1-.891,3.113,2.846,2.846,0,0,1-2.391,1.176A2.947,2.947,0,0,1,77.2,16.023l-.07.977H75.8V5H77.25V9.477a2.93,2.93,0,0,1,2.414-1.086,2.863,2.863,0,0,1,2.418,1.164,5.177,5.177,0,0,1,.879,3.188ZM81.516,12.7a3.906,3.906,0,0,0-.57-2.281,1.888,1.888,0,0,0-1.641-.8,2.122,2.122,0,0,0-2.055,1.328V14.6a2.181,2.181,0,0,0,2.07,1.328,1.878,1.878,0,0,0,1.617-.8A4.153,4.153,0,0,0,81.516,12.7ZM84.4,12.7a4.993,4.993,0,0,1,.488-2.234A3.643,3.643,0,0,1,86.246,8.93a3.7,3.7,0,0,1,1.988-.539,3.565,3.565,0,0,1,2.793,1.2,4.6,4.6,0,0,1,1.066,3.18v.1a5.036,5.036,0,0,1-.473,2.215,3.589,3.589,0,0,1-1.352,1.527,3.743,3.743,0,0,1-2.02.547,3.556,3.556,0,0,1-2.785-1.2A4.575,4.575,0,0,1,84.4,12.8Zm1.453.172a3.616,3.616,0,0,0,.652,2.258,2.211,2.211,0,0,0,3.5-.012,3.955,3.955,0,0,0,.648-2.418,3.61,3.61,0,0,0-.66-2.254,2.1,2.1,0,0,0-1.754-.863,2.075,2.075,0,0,0-1.727.852A3.925,3.925,0,0,0,85.852,12.867ZM88.891,5h1.75L88.547,7.3l-1.164,0Zm6.586,12H94.031V5h1.445Zm3.883,0H97.914V8.547h1.445ZM97.8,6.3a.863.863,0,0,1,.215-.594.807.807,0,0,1,.637-.242.819.819,0,0,1,.641.242.854.854,0,0,1,.219.594.826.826,0,0,1-.219.586.834.834,0,0,1-.641.234.821.821,0,0,1-.637-.234A.834.834,0,0,1,97.8,6.3Zm7.266,9.672a2.082,2.082,0,0,0,1.352-.469,1.649,1.649,0,0,0,.641-1.172h1.367a2.621,2.621,0,0,1-.5,1.383,3.293,3.293,0,0,1-1.23,1.047,3.55,3.55,0,0,1-1.629.391A3.482,3.482,0,0,1,102.316,16a4.59,4.59,0,0,1-1.02-3.152v-.242a5.089,5.089,0,0,1,.453-2.2,3.451,3.451,0,0,1,1.3-1.492,3.7,3.7,0,0,1,2-.531,3.39,3.39,0,0,1,2.363.852,3.043,3.043,0,0,1,1,2.211h-1.367a1.992,1.992,0,0,0-.621-1.348,1.932,1.932,0,0,0-1.379-.527,2.023,2.023,0,0,0-1.707.793,3.724,3.724,0,0,0-.605,2.293v.273a3.65,3.65,0,0,0,.6,2.25A2.033,2.033,0,0,0,105.063,15.977ZM115.266,17a3.036,3.036,0,0,1-.2-.891,3.225,3.225,0,0,1-2.406,1.047,2.984,2.984,0,0,1-2.051-.707,2.288,2.288,0,0,1-.8-1.793,2.39,2.39,0,0,1,1-2.051,4.733,4.733,0,0,1,2.824-.73h1.406v-.664A1.623,1.623,0,0,0,114.586,10a1.821,1.821,0,0,0-1.336-.449,2.108,2.108,0,0,0-1.3.391,1.151,1.151,0,0,0-.523.945h-1.453a2,2,0,0,1,.449-1.223,3.066,3.066,0,0,1,1.219-.934,4.1,4.1,0,0,1,1.691-.344,3.342,3.342,0,0,1,2.289.73,2.635,2.635,0,0,1,.859,2.012v3.891a4.757,4.757,0,0,0,.3,1.852V17Zm-2.4-1.1a2.54,2.54,0,0,0,1.289-.352,2.127,2.127,0,0,0,.883-.914V12.9h-1.133q-2.656,0-2.656,1.555a1.316,1.316,0,0,0,.453,1.063A1.742,1.742,0,0,0,112.867,15.9Z" transform="translate(1202.102 4633.677)" fill="#12263f"/>
    <path id="Trazado_960525" data-name="Trazado 960525" d="M1.32,17V5.625H4.531a5.169,5.169,0,0,1,2.625.656A4.438,4.438,0,0,1,8.918,8.148a6.078,6.078,0,0,1,.629,2.781v.727a6.1,6.1,0,0,1-.621,2.82,4.369,4.369,0,0,1-1.773,1.859A5.5,5.5,0,0,1,4.469,17ZM2.82,6.852v8.922H4.4a3.434,3.434,0,0,0,2.7-1.079,4.458,4.458,0,0,0,.965-3.073v-.665a4.529,4.529,0,0,0-.91-3.014A3.239,3.239,0,0,0,4.57,6.852Zm12.273,10.3a3.693,3.693,0,0,1-2.8-1.129,4.19,4.19,0,0,1-1.078-3.02v-.266A5.073,5.073,0,0,1,11.7,10.5a3.748,3.748,0,0,1,1.344-1.547,3.378,3.378,0,0,1,1.871-.559,3.166,3.166,0,0,1,2.563,1.086,4.7,4.7,0,0,1,.914,3.109v.6H12.664a3,3,0,0,0,.73,2.02,2.3,2.3,0,0,0,1.777.77,2.517,2.517,0,0,0,1.3-.312,3.259,3.259,0,0,0,.93-.828l.883.688A3.55,3.55,0,0,1,15.094,17.156Zm-.18-7.578a1.928,1.928,0,0,0-1.469.637A3.1,3.1,0,0,0,12.711,12h4.234v-.109a2.753,2.753,0,0,0-.594-1.707A1.815,1.815,0,0,0,14.914,9.578ZM21.43,8.547l.047,1.063a3.08,3.08,0,0,1,2.531-1.219q2.68,0,2.7,3.023V17H25.266V11.406a1.946,1.946,0,0,0-.418-1.352,1.675,1.675,0,0,0-1.277-.437,2.086,2.086,0,0,0-1.234.375,2.546,2.546,0,0,0-.828.984V17H20.063V8.547Zm12.383,6.211a1.064,1.064,0,0,0-.441-.91,4.249,4.249,0,0,0-1.539-.559,7.277,7.277,0,0,1-1.742-.562,2.479,2.479,0,0,1-.953-.781,1.869,1.869,0,0,1-.309-1.078,2.193,2.193,0,0,1,.879-1.758,3.432,3.432,0,0,1,2.246-.719,3.532,3.532,0,0,1,2.332.742,2.357,2.357,0,0,1,.895,1.9H33.727a1.3,1.3,0,0,0-.5-1.023,1.888,1.888,0,0,0-1.27-.43,1.976,1.976,0,0,0-1.234.344,1.082,1.082,0,0,0-.445.9.877.877,0,0,0,.414.789,5.1,5.1,0,0,0,1.5.508,7.8,7.8,0,0,1,1.754.578,2.558,2.558,0,0,1,1,.809,1.988,1.988,0,0,1,.324,1.152,2.163,2.163,0,0,1-.906,1.816A3.8,3.8,0,0,1,32,17.156a4.257,4.257,0,0,1-1.8-.359,2.922,2.922,0,0,1-1.223-1,2.42,2.42,0,0,1-.441-1.395h1.445a1.5,1.5,0,0,0,.582,1.152A2.258,2.258,0,0,0,32,15.977a2.331,2.331,0,0,0,1.316-.332A1.02,1.02,0,0,0,33.813,14.758ZM38.711,17H37.266V8.547h1.445ZM37.148,6.3a.863.863,0,0,1,.215-.594A.807.807,0,0,1,38,5.469a.819.819,0,0,1,.641.242.854.854,0,0,1,.219.594.826.826,0,0,1-.219.586A.834.834,0,0,1,38,7.125a.821.821,0,0,1-.637-.234A.834.834,0,0,1,37.148,6.3Zm3.523,6.4a4.952,4.952,0,0,1,.922-3.129,3.137,3.137,0,0,1,4.766-.168V5H47.8V17H46.477l-.07-.906a2.943,2.943,0,0,1-2.414,1.063,2.887,2.887,0,0,1-2.395-1.2,5.008,5.008,0,0,1-.926-3.141Zm1.445.164a3.749,3.749,0,0,0,.594,2.25,1.92,1.92,0,0,0,1.641.813A2.108,2.108,0,0,0,46.359,14.7V10.813a2.125,2.125,0,0,0-1.992-1.2,1.929,1.929,0,0,0-1.656.82A4.128,4.128,0,0,0,42.117,12.867ZM55.266,17a3.036,3.036,0,0,1-.2-.891,3.225,3.225,0,0,1-2.406,1.047,2.984,2.984,0,0,1-2.051-.707,2.287,2.287,0,0,1-.8-1.793,2.39,2.39,0,0,1,1-2.051,4.733,4.733,0,0,1,2.824-.73h1.406v-.664A1.623,1.623,0,0,0,54.586,10a1.821,1.821,0,0,0-1.336-.449,2.107,2.107,0,0,0-1.3.391,1.151,1.151,0,0,0-.523.945H49.977a2,2,0,0,1,.449-1.223,3.066,3.066,0,0,1,1.219-.934,4.1,4.1,0,0,1,1.691-.344,3.342,3.342,0,0,1,2.289.73,2.635,2.635,0,0,1,.859,2.012v3.891a4.757,4.757,0,0,0,.3,1.852V17Zm-2.4-1.1a2.54,2.54,0,0,0,1.289-.352,2.127,2.127,0,0,0,.883-.914V12.9H53.906q-2.656,0-2.656,1.555a1.316,1.316,0,0,0,.453,1.063A1.742,1.742,0,0,0,52.867,15.9ZM58.4,12.7a4.952,4.952,0,0,1,.922-3.129,3.137,3.137,0,0,1,4.766-.168V5h1.445V17H64.2l-.07-.906a2.943,2.943,0,0,1-2.414,1.063,2.887,2.887,0,0,1-2.395-1.2,5.008,5.008,0,0,1-.926-3.141Zm1.445.164a3.749,3.749,0,0,0,.594,2.25,1.92,1.92,0,0,0,1.641.813A2.108,2.108,0,0,0,64.086,14.7V10.813a2.125,2.125,0,0,0-1.992-1.2,1.929,1.929,0,0,0-1.656.82A4.128,4.128,0,0,0,59.844,12.867Z" transform="translate(1311.051 4419.7)" fill="#12263f"/>
    <path id="Trazado_960520" data-name="Trazado 960520" d="M5.086,15.008l3.25-9.383H9.977L5.758,17H4.43L.219,5.625H1.852ZM10.531,12.7a4.993,4.993,0,0,1,.488-2.234A3.643,3.643,0,0,1,12.379,8.93a3.7,3.7,0,0,1,1.988-.539,3.565,3.565,0,0,1,2.793,1.2,4.6,4.6,0,0,1,1.066,3.18v.1a5.036,5.036,0,0,1-.473,2.215A3.589,3.589,0,0,1,16.4,16.609a3.743,3.743,0,0,1-2.02.547,3.556,3.556,0,0,1-2.785-1.2A4.575,4.575,0,0,1,10.531,12.8Zm1.453.172a3.616,3.616,0,0,0,.652,2.258,2.211,2.211,0,0,0,3.5-.012,3.955,3.955,0,0,0,.648-2.418,3.61,3.61,0,0,0-.66-2.254,2.1,2.1,0,0,0-1.754-.863,2.075,2.075,0,0,0-1.727.852A3.925,3.925,0,0,0,11.984,12.867ZM21.609,17H20.164V5h1.445Zm7.531-.836a3.07,3.07,0,0,1-2.477.992,2.628,2.628,0,0,1-2.059-.785,3.4,3.4,0,0,1-.715-2.324v-5.5h1.445v5.461q0,1.922,1.563,1.922A2.163,2.163,0,0,0,29.1,14.7V8.547h1.445V17H29.172ZM34.1,8.547l.039.938a3.122,3.122,0,0,1,2.508-1.094A2.417,2.417,0,0,1,39.063,9.75a3.2,3.2,0,0,1,1.1-.984,3.242,3.242,0,0,1,1.6-.375q2.781,0,2.828,2.945V17H43.141V11.422a1.941,1.941,0,0,0-.414-1.355,1.823,1.823,0,0,0-1.391-.449A1.917,1.917,0,0,0,40,10.1a1.949,1.949,0,0,0-.617,1.293V17H37.93V11.461a1.613,1.613,0,0,0-1.8-1.844,1.934,1.934,0,0,0-1.945,1.211V17H32.734V8.547Zm16.172,8.609a3.693,3.693,0,0,1-2.8-1.129,4.19,4.19,0,0,1-1.078-3.02v-.266a5.073,5.073,0,0,1,.48-2.246,3.748,3.748,0,0,1,1.344-1.547,3.378,3.378,0,0,1,1.871-.559,3.166,3.166,0,0,1,2.563,1.086,4.7,4.7,0,0,1,.914,3.109v.6H47.844a3,3,0,0,0,.73,2.02,2.3,2.3,0,0,0,1.777.77,2.517,2.517,0,0,0,1.3-.312,3.259,3.259,0,0,0,.93-.828l.883.688A3.55,3.55,0,0,1,50.273,17.156Zm-.18-7.578a1.928,1.928,0,0,0-1.469.637A3.1,3.1,0,0,0,47.891,12h4.234v-.109a2.753,2.753,0,0,0-.594-1.707A1.815,1.815,0,0,0,50.094,9.578Zm6.516-1.031.047,1.063a3.08,3.08,0,0,1,2.531-1.219q2.68,0,2.7,3.023V17H60.445V11.406a1.946,1.946,0,0,0-.418-1.352,1.675,1.675,0,0,0-1.277-.437,2.086,2.086,0,0,0-1.234.375,2.546,2.546,0,0,0-.828.984V17H55.242V8.547Z" transform="translate(1182.102 4450.747)" fill="#12263f"/>
    <path id="Trazado_960523" data-name="Trazado 960523" d="M9.688,13.391a4.185,4.185,0,0,1-1.332,2.785,4.365,4.365,0,0,1-2.98.98,4.008,4.008,0,0,1-3.23-1.445A5.815,5.815,0,0,1,.93,11.844V10.75A6.481,6.481,0,0,1,1.5,7.961,4.231,4.231,0,0,1,3.1,6.113a4.47,4.47,0,0,1,2.406-.645A4.11,4.11,0,0,1,8.414,6.48a4.235,4.235,0,0,1,1.273,2.8H8.18a3.268,3.268,0,0,0-.848-1.975A2.565,2.565,0,0,0,5.508,6.7,2.684,2.684,0,0,0,3.254,7.759a4.882,4.882,0,0,0-.816,3.026v1.1a5.018,5.018,0,0,0,.773,2.948A2.5,2.5,0,0,0,5.375,15.93a2.887,2.887,0,0,0,1.918-.566,3.143,3.143,0,0,0,.887-1.973Zm1.438-.7a4.993,4.993,0,0,1,.488-2.234A3.643,3.643,0,0,1,12.973,8.93a3.7,3.7,0,0,1,1.988-.539,3.565,3.565,0,0,1,2.793,1.2,4.6,4.6,0,0,1,1.066,3.18v.1a5.036,5.036,0,0,1-.473,2.215A3.589,3.589,0,0,1,17,16.609a3.743,3.743,0,0,1-2.02.547,3.556,3.556,0,0,1-2.785-1.2A4.575,4.575,0,0,1,11.125,12.8Zm1.453.172a3.616,3.616,0,0,0,.652,2.258,2.211,2.211,0,0,0,3.5-.012,3.955,3.955,0,0,0,.648-2.418,3.61,3.61,0,0,0-.66-2.254,2.1,2.1,0,0,0-1.754-.863,2.075,2.075,0,0,0-1.727.852A3.925,3.925,0,0,0,12.578,12.867Zm9.414-4.32.039.938a3.122,3.122,0,0,1,2.508-1.094A2.417,2.417,0,0,1,26.953,9.75a3.2,3.2,0,0,1,1.1-.984,3.242,3.242,0,0,1,1.6-.375q2.781,0,2.828,2.945V17H31.031V11.422a1.941,1.941,0,0,0-.414-1.355,1.823,1.823,0,0,0-1.391-.449,1.916,1.916,0,0,0-1.336.48,1.949,1.949,0,0,0-.617,1.293V17H25.82V11.461a1.613,1.613,0,0,0-1.8-1.844,1.934,1.934,0,0,0-1.945,1.211V17H20.625V8.547Zm19.8,4.32a5.062,5.062,0,0,1-.883,3.109,2.829,2.829,0,0,1-2.391,1.18A3.1,3.1,0,0,1,36.1,16.18v4.07H34.656V8.547h1.32l.07.938A2.977,2.977,0,0,1,38.5,8.391a2.882,2.882,0,0,1,2.41,1.148,5.117,5.117,0,0,1,.887,3.2ZM40.352,12.7a3.735,3.735,0,0,0-.609-2.258,1.963,1.963,0,0,0-1.672-.828A2.125,2.125,0,0,0,36.1,10.781V14.82a2.129,2.129,0,0,0,1.984,1.156,1.954,1.954,0,0,0,1.652-.824A4.077,4.077,0,0,0,40.352,12.7Zm8.5,4.3a3.036,3.036,0,0,1-.2-.891,3.225,3.225,0,0,1-2.406,1.047,2.984,2.984,0,0,1-2.051-.707,2.287,2.287,0,0,1-.8-1.793,2.39,2.39,0,0,1,1-2.051,4.733,4.733,0,0,1,2.824-.73h1.406v-.664A1.623,1.623,0,0,0,48.172,10a1.821,1.821,0,0,0-1.336-.449,2.107,2.107,0,0,0-1.3.391,1.151,1.151,0,0,0-.523.945H43.563a2,2,0,0,1,.449-1.223,3.066,3.066,0,0,1,1.219-.934,4.1,4.1,0,0,1,1.691-.344,3.342,3.342,0,0,1,2.289.73,2.635,2.635,0,0,1,.859,2.012v3.891a4.757,4.757,0,0,0,.3,1.852V17Zm-2.4-1.1a2.54,2.54,0,0,0,1.289-.352,2.127,2.127,0,0,0,.883-.914V12.9H47.492q-2.656,0-2.656,1.555a1.316,1.316,0,0,0,.453,1.063A1.742,1.742,0,0,0,46.453,15.9ZM54.3,6.5V8.547h1.578V9.664H54.3v5.249a1.173,1.173,0,0,0,.211.763.888.888,0,0,0,.719.254,3.5,3.5,0,0,0,.688-.094V17a4.215,4.215,0,0,1-1.109.155,1.8,1.8,0,0,1-1.461-.586,2.517,2.517,0,0,1-.492-1.664V9.664H51.313V8.547h1.539V6.5ZM59.133,17H57.688V8.547h1.445ZM57.57,6.3a.863.863,0,0,1,.215-.594.807.807,0,0,1,.637-.242.819.819,0,0,1,.641.242.854.854,0,0,1,.219.594.826.826,0,0,1-.219.586.834.834,0,0,1-.641.234.821.821,0,0,1-.637-.234A.834.834,0,0,1,57.57,6.3ZM68.6,12.867a5.026,5.026,0,0,1-.891,3.113,2.846,2.846,0,0,1-2.391,1.176,2.947,2.947,0,0,1-2.477-1.133l-.07.977H61.445V5h1.445V9.477A2.93,2.93,0,0,1,65.3,8.391a2.863,2.863,0,0,1,2.418,1.164,5.177,5.177,0,0,1,.879,3.188ZM67.156,12.7a3.906,3.906,0,0,0-.57-2.281,1.888,1.888,0,0,0-1.641-.8,2.122,2.122,0,0,0-2.055,1.328V14.6a2.181,2.181,0,0,0,2.07,1.328,1.878,1.878,0,0,0,1.617-.8A4.153,4.153,0,0,0,67.156,12.7ZM71.992,17H70.547V8.547h1.445ZM70.43,6.3a.863.863,0,0,1,.215-.594.807.807,0,0,1,.637-.242.819.819,0,0,1,.641.242.854.854,0,0,1,.219.594.826.826,0,0,1-.219.586.834.834,0,0,1-.641.234.821.821,0,0,1-.637-.234A.834.834,0,0,1,70.43,6.3ZM75.875,17H74.43V5h1.445Zm3.883,0H78.313V8.547h1.445ZM78.2,6.3a.863.863,0,0,1,.215-.594.807.807,0,0,1,.637-.242.819.819,0,0,1,.641.242.854.854,0,0,1,.219.594.826.826,0,0,1-.219.586.834.834,0,0,1-.641.234.821.821,0,0,1-.637-.234A.834.834,0,0,1,78.2,6.3Zm3.523,6.4a4.952,4.952,0,0,1,.922-3.129,3.137,3.137,0,0,1,4.766-.168V5h1.445V17H87.523l-.07-.906a2.943,2.943,0,0,1-2.414,1.063,2.887,2.887,0,0,1-2.395-1.2,5.008,5.008,0,0,1-.926-3.141Zm1.445.164a3.749,3.749,0,0,0,.594,2.25,1.92,1.92,0,0,0,1.641.813A2.108,2.108,0,0,0,87.406,14.7V10.813a2.125,2.125,0,0,0-1.992-1.2,1.929,1.929,0,0,0-1.656.82A4.128,4.128,0,0,0,83.164,12.867ZM96.313,17a3.036,3.036,0,0,1-.2-.891A3.225,3.225,0,0,1,93.7,17.156a2.984,2.984,0,0,1-2.051-.707,2.288,2.288,0,0,1-.8-1.793,2.39,2.39,0,0,1,1-2.051,4.733,4.733,0,0,1,2.824-.73h1.406v-.664A1.623,1.623,0,0,0,95.633,10,1.821,1.821,0,0,0,94.3,9.555a2.108,2.108,0,0,0-1.3.391,1.151,1.151,0,0,0-.523.945H91.023a2,2,0,0,1,.449-1.223,3.066,3.066,0,0,1,1.219-.934,4.1,4.1,0,0,1,1.691-.344,3.342,3.342,0,0,1,2.289.73,2.635,2.635,0,0,1,.859,2.012v3.891a4.757,4.757,0,0,0,.3,1.852V17Zm-2.4-1.1a2.54,2.54,0,0,0,1.289-.352,2.127,2.127,0,0,0,.883-.914V12.9H94.953q-2.656,0-2.656,1.555a1.316,1.316,0,0,0,.453,1.063A1.742,1.742,0,0,0,93.914,15.9Zm5.531-3.2a4.952,4.952,0,0,1,.922-3.129,3.137,3.137,0,0,1,4.766-.168V5h1.445V17H105.25l-.07-.906a2.943,2.943,0,0,1-2.414,1.063,2.887,2.887,0,0,1-2.395-1.2,5.008,5.008,0,0,1-.926-3.141Zm1.445.164a3.749,3.749,0,0,0,.594,2.25,1.92,1.92,0,0,0,1.641.813,2.108,2.108,0,0,0,2.008-1.234V10.813a2.125,2.125,0,0,0-1.992-1.2,1.929,1.929,0,0,0-1.656.82A4.128,4.128,0,0,0,100.891,12.867Z" transform="translate(1202.102 4558.747)" fill="#12263f"/>
    <path id="Trazado_960532" data-name="Trazado 960532" d="M7.6,14.023H2.836L1.766,17H.219L4.563,5.625H5.875L10.227,17H8.688ZM3.289,12.8H7.156L5.219,7.477Zm11.633,3.18a2.082,2.082,0,0,0,1.352-.469,1.649,1.649,0,0,0,.641-1.172h1.367a2.621,2.621,0,0,1-.5,1.383,3.293,3.293,0,0,1-1.23,1.047,3.55,3.55,0,0,1-1.629.391A3.482,3.482,0,0,1,12.176,16a4.59,4.59,0,0,1-1.02-3.152v-.242a5.089,5.089,0,0,1,.453-2.2,3.451,3.451,0,0,1,1.3-1.492,3.7,3.7,0,0,1,2-.531,3.39,3.39,0,0,1,2.363.852,3.043,3.043,0,0,1,1,2.211H16.914a1.992,1.992,0,0,0-.621-1.348,1.932,1.932,0,0,0-1.379-.527,2.023,2.023,0,0,0-1.707.793,3.724,3.724,0,0,0-.605,2.293v.273a3.65,3.65,0,0,0,.6,2.25A2.033,2.033,0,0,0,14.922,15.977ZM21.867,6.5V8.547h1.578V9.664H21.867v5.249a1.173,1.173,0,0,0,.211.763.888.888,0,0,0,.719.254,3.5,3.5,0,0,0,.688-.094V17a4.215,4.215,0,0,1-1.109.155,1.8,1.8,0,0,1-1.461-.586,2.517,2.517,0,0,1-.492-1.664V9.664H18.883V8.547h1.539V6.5ZM26.7,17H25.258V8.547H26.7ZM25.141,6.3a.863.863,0,0,1,.215-.594.807.807,0,0,1,.637-.242.819.819,0,0,1,.641.242.854.854,0,0,1,.219.594.826.826,0,0,1-.219.586.834.834,0,0,1-.641.234.821.821,0,0,1-.637-.234A.834.834,0,0,1,25.141,6.3ZM31.8,15.039,33.9,8.547h1.477L32.344,17h-1.1L28.18,8.547h1.477ZM38.336,17H36.891V8.547h1.445ZM36.773,6.3a.863.863,0,0,1,.215-.594.807.807,0,0,1,.637-.242.819.819,0,0,1,.641.242.854.854,0,0,1,.219.594.826.826,0,0,1-.219.586.834.834,0,0,1-.641.234.821.821,0,0,1-.637-.234A.834.834,0,0,1,36.773,6.3ZM40.3,12.7a4.952,4.952,0,0,1,.922-3.129,3.137,3.137,0,0,1,4.766-.168V5H47.43V17H46.1l-.07-.906a2.943,2.943,0,0,1-2.414,1.063,2.887,2.887,0,0,1-2.395-1.2,5.008,5.008,0,0,1-.926-3.141Zm1.445.164a3.749,3.749,0,0,0,.594,2.25,1.92,1.92,0,0,0,1.641.813A2.108,2.108,0,0,0,45.984,14.7V10.813a2.125,2.125,0,0,0-1.992-1.2,1.929,1.929,0,0,0-1.656.82A4.128,4.128,0,0,0,41.742,12.867ZM54.891,17a3.036,3.036,0,0,1-.2-.891,3.225,3.225,0,0,1-2.406,1.047,2.984,2.984,0,0,1-2.051-.707,2.287,2.287,0,0,1-.8-1.793,2.39,2.39,0,0,1,1-2.051,4.733,4.733,0,0,1,2.824-.73h1.406v-.664A1.623,1.623,0,0,0,54.211,10a1.821,1.821,0,0,0-1.336-.449,2.107,2.107,0,0,0-1.3.391,1.151,1.151,0,0,0-.523.945H49.6a2,2,0,0,1,.449-1.223,3.066,3.066,0,0,1,1.219-.934,4.1,4.1,0,0,1,1.691-.344,3.342,3.342,0,0,1,2.289.73,2.635,2.635,0,0,1,.859,2.012v3.891a4.757,4.757,0,0,0,.3,1.852V17Zm-2.4-1.1a2.54,2.54,0,0,0,1.289-.352,2.127,2.127,0,0,0,.883-.914V12.9H53.531q-2.656,0-2.656,1.555a1.316,1.316,0,0,0,.453,1.063A1.742,1.742,0,0,0,52.492,15.9Zm5.531-3.2a4.952,4.952,0,0,1,.922-3.129,3.137,3.137,0,0,1,4.766-.168V5h1.445V17H63.828l-.07-.906a2.943,2.943,0,0,1-2.414,1.063,2.887,2.887,0,0,1-2.395-1.2,5.008,5.008,0,0,1-.926-3.141Zm1.445.164a3.749,3.749,0,0,0,.594,2.25,1.92,1.92,0,0,0,1.641.813A2.108,2.108,0,0,0,63.711,14.7V10.813a2.125,2.125,0,0,0-1.992-1.2,1.929,1.929,0,0,0-1.656.82A4.128,4.128,0,0,0,59.469,12.867ZM76.578,17a3.036,3.036,0,0,1-.2-.891,3.225,3.225,0,0,1-2.406,1.047,2.984,2.984,0,0,1-2.051-.707,2.288,2.288,0,0,1-.8-1.793,2.39,2.39,0,0,1,1-2.051,4.733,4.733,0,0,1,2.824-.73h1.406v-.664A1.623,1.623,0,0,0,75.9,10a1.821,1.821,0,0,0-1.336-.449,2.108,2.108,0,0,0-1.3.391,1.151,1.151,0,0,0-.523.945H71.289a2,2,0,0,1,.449-1.223,3.066,3.066,0,0,1,1.219-.934,4.1,4.1,0,0,1,1.691-.344,3.342,3.342,0,0,1,2.289.73,2.635,2.635,0,0,1,.859,2.012v3.891a4.757,4.757,0,0,0,.3,1.852V17Zm-2.4-1.1a2.54,2.54,0,0,0,1.289-.352,2.127,2.127,0,0,0,.883-.914V12.9H75.219q-2.656,0-2.656,1.555a1.316,1.316,0,0,0,.453,1.063A1.742,1.742,0,0,0,74.18,15.9Zm9.273.078a2.082,2.082,0,0,0,1.352-.469,1.649,1.649,0,0,0,.641-1.172h1.367a2.621,2.621,0,0,1-.5,1.383,3.293,3.293,0,0,1-1.23,1.047,3.55,3.55,0,0,1-1.629.391A3.482,3.482,0,0,1,80.707,16a4.59,4.59,0,0,1-1.02-3.152v-.242a5.089,5.089,0,0,1,.453-2.2,3.451,3.451,0,0,1,1.3-1.492,3.7,3.7,0,0,1,2-.531,3.39,3.39,0,0,1,2.363.852,3.043,3.043,0,0,1,1,2.211H85.445a1.992,1.992,0,0,0-.621-1.348,1.932,1.932,0,0,0-1.379-.527,2.023,2.023,0,0,0-1.707.793,3.724,3.724,0,0,0-.605,2.293v.273a3.65,3.65,0,0,0,.6,2.25A2.033,2.033,0,0,0,83.453,15.977Zm10.2.188a3.07,3.07,0,0,1-2.477.992,2.628,2.628,0,0,1-2.059-.785,3.4,3.4,0,0,1-.715-2.324v-5.5h1.445v5.461q0,1.922,1.563,1.922a2.163,2.163,0,0,0,2.2-1.234V8.547h1.445V17H93.688ZM96.875,12.7a4.993,4.993,0,0,1,.488-2.234A3.643,3.643,0,0,1,98.723,8.93a3.7,3.7,0,0,1,1.988-.539,3.565,3.565,0,0,1,2.793,1.2,4.6,4.6,0,0,1,1.066,3.18v.1a5.036,5.036,0,0,1-.473,2.215,3.589,3.589,0,0,1-1.352,1.527,3.743,3.743,0,0,1-2.02.547,3.556,3.556,0,0,1-2.785-1.2A4.575,4.575,0,0,1,96.875,12.8Zm1.453.172a3.616,3.616,0,0,0,.652,2.258,2.211,2.211,0,0,0,3.5-.012,3.955,3.955,0,0,0,.648-2.418,3.61,3.61,0,0,0-.66-2.254,2.1,2.1,0,0,0-1.754-.863,2.075,2.075,0,0,0-1.727.852A3.925,3.925,0,0,0,98.328,12.867ZM111.3,14.758a1.064,1.064,0,0,0-.441-.91,4.249,4.249,0,0,0-1.539-.559,7.277,7.277,0,0,1-1.742-.562,2.479,2.479,0,0,1-.953-.781,1.869,1.869,0,0,1-.309-1.078,2.193,2.193,0,0,1,.879-1.758,3.432,3.432,0,0,1,2.246-.719,3.532,3.532,0,0,1,2.332.742,2.357,2.357,0,0,1,.895,1.9h-1.453a1.3,1.3,0,0,0-.5-1.023,1.888,1.888,0,0,0-1.27-.43,1.976,1.976,0,0,0-1.234.344,1.082,1.082,0,0,0-.445.9.877.877,0,0,0,.414.789,5.1,5.1,0,0,0,1.5.508,7.8,7.8,0,0,1,1.754.578,2.558,2.558,0,0,1,1,.809,1.988,1.988,0,0,1,.324,1.152,2.163,2.163,0,0,1-.906,1.816,3.8,3.8,0,0,1-2.352.684,4.257,4.257,0,0,1-1.8-.359,2.922,2.922,0,0,1-1.223-1,2.42,2.42,0,0,1-.441-1.395h1.445a1.5,1.5,0,0,0,.582,1.152,2.258,2.258,0,0,0,1.434.426,2.331,2.331,0,0,0,1.316-.332A1.02,1.02,0,0,0,111.3,14.758ZM119.852,17a3.036,3.036,0,0,1-.2-.891,3.225,3.225,0,0,1-2.406,1.047,2.984,2.984,0,0,1-2.051-.707,2.288,2.288,0,0,1-.8-1.793,2.39,2.39,0,0,1,1-2.051,4.733,4.733,0,0,1,2.824-.73h1.406v-.664A1.623,1.623,0,0,0,119.172,10a1.821,1.821,0,0,0-1.336-.449,2.108,2.108,0,0,0-1.3.391,1.151,1.151,0,0,0-.523.945h-1.453a2,2,0,0,1,.449-1.223,3.066,3.066,0,0,1,1.219-.934,4.1,4.1,0,0,1,1.691-.344,3.342,3.342,0,0,1,2.289.73,2.635,2.635,0,0,1,.859,2.012v3.891a4.757,4.757,0,0,0,.3,1.852V17Zm-2.4-1.1a2.54,2.54,0,0,0,1.289-.352,2.127,2.127,0,0,0,.883-.914V12.9h-1.133q-2.656,0-2.656,1.555a1.316,1.316,0,0,0,.453,1.063A1.742,1.742,0,0,0,117.453,15.9Z" transform="translate(1202.102 4664.724)" fill="#12263f"/>
    <path id="Trazado_960526" data-name="Trazado 960526" d="M5.492,12.4H2.82V17H1.313V5.625H5.078A4.457,4.457,0,0,1,8.035,6.5,3.148,3.148,0,0,1,9.07,9.047,3.062,3.062,0,0,1,8.5,10.9a3.428,3.428,0,0,1-1.6,1.18L9.57,16.906V17H7.961ZM2.82,11.172h2.3A2.6,2.6,0,0,0,6.9,10.593a1.959,1.959,0,0,0,.66-1.55,2.062,2.062,0,0,0-.629-1.62,2.663,2.663,0,0,0-1.816-.571H2.82Zm11.633,5.984a3.693,3.693,0,0,1-2.8-1.129,4.19,4.19,0,0,1-1.078-3.02v-.266a5.073,5.073,0,0,1,.48-2.246A3.748,3.748,0,0,1,12.4,8.949a3.378,3.378,0,0,1,1.871-.559,3.166,3.166,0,0,1,2.563,1.086,4.7,4.7,0,0,1,.914,3.109v.6H12.023a3,3,0,0,0,.73,2.02,2.3,2.3,0,0,0,1.777.77,2.517,2.517,0,0,0,1.3-.312,3.259,3.259,0,0,0,.93-.828l.883.688A3.55,3.55,0,0,1,14.453,17.156Zm-.18-7.578a1.928,1.928,0,0,0-1.469.637A3.1,3.1,0,0,0,12.07,12H16.3v-.109a2.753,2.753,0,0,0-.594-1.707A1.815,1.815,0,0,0,14.273,9.578Zm10.07,5.18a1.064,1.064,0,0,0-.441-.91,4.249,4.249,0,0,0-1.539-.559,7.277,7.277,0,0,1-1.742-.562,2.479,2.479,0,0,1-.953-.781,1.869,1.869,0,0,1-.309-1.078,2.193,2.193,0,0,1,.879-1.758,3.432,3.432,0,0,1,2.246-.719,3.532,3.532,0,0,1,2.332.742,2.357,2.357,0,0,1,.895,1.9H24.258a1.3,1.3,0,0,0-.5-1.023,1.888,1.888,0,0,0-1.27-.43,1.976,1.976,0,0,0-1.234.344,1.082,1.082,0,0,0-.445.9.877.877,0,0,0,.414.789,5.1,5.1,0,0,0,1.5.508,7.8,7.8,0,0,1,1.754.578,2.558,2.558,0,0,1,1,.809,1.988,1.988,0,0,1,.324,1.152,2.163,2.163,0,0,1-.906,1.816,3.8,3.8,0,0,1-2.352.684,4.257,4.257,0,0,1-1.8-.359,2.922,2.922,0,0,1-1.223-1A2.42,2.42,0,0,1,19.07,14.4h1.445a1.5,1.5,0,0,0,.582,1.152,2.258,2.258,0,0,0,1.434.426,2.331,2.331,0,0,0,1.316-.332A1.02,1.02,0,0,0,24.344,14.758ZM29.242,17H27.8V8.547h1.445ZM27.68,6.3a.863.863,0,0,1,.215-.594.807.807,0,0,1,.637-.242.819.819,0,0,1,.641.242.854.854,0,0,1,.219.594.826.826,0,0,1-.219.586.834.834,0,0,1-.641.234.821.821,0,0,1-.637-.234A.834.834,0,0,1,27.68,6.3Zm8.8,8.453a1.064,1.064,0,0,0-.441-.91,4.249,4.249,0,0,0-1.539-.559,7.277,7.277,0,0,1-1.742-.562,2.479,2.479,0,0,1-.953-.781,1.869,1.869,0,0,1-.309-1.078,2.193,2.193,0,0,1,.879-1.758,3.432,3.432,0,0,1,2.246-.719,3.532,3.532,0,0,1,2.332.742,2.357,2.357,0,0,1,.895,1.9H36.391a1.3,1.3,0,0,0-.5-1.023,1.888,1.888,0,0,0-1.27-.43,1.976,1.976,0,0,0-1.234.344,1.082,1.082,0,0,0-.445.9.877.877,0,0,0,.414.789,5.1,5.1,0,0,0,1.5.508A7.8,7.8,0,0,1,36.6,12.7a2.558,2.558,0,0,1,1,.809,1.988,1.988,0,0,1,.324,1.152,2.163,2.163,0,0,1-.906,1.816,3.8,3.8,0,0,1-2.352.684,4.257,4.257,0,0,1-1.8-.359,2.922,2.922,0,0,1-1.223-1A2.42,2.42,0,0,1,31.2,14.4h1.445a1.5,1.5,0,0,0,.582,1.152,2.258,2.258,0,0,0,1.434.426,2.331,2.331,0,0,0,1.316-.332A1.02,1.02,0,0,0,36.477,14.758ZM41.766,6.5V8.547h1.578V9.664H41.766v5.249a1.173,1.173,0,0,0,.211.763.888.888,0,0,0,.719.254,3.5,3.5,0,0,0,.688-.094V17a4.215,4.215,0,0,1-1.109.155,1.8,1.8,0,0,1-1.461-.586,2.517,2.517,0,0,1-.492-1.664V9.664H38.781V8.547H40.32V6.5Zm6.773,10.656a3.693,3.693,0,0,1-2.8-1.129,4.19,4.19,0,0,1-1.078-3.02v-.266a5.073,5.073,0,0,1,.48-2.246,3.748,3.748,0,0,1,1.344-1.547,3.378,3.378,0,0,1,1.871-.559,3.166,3.166,0,0,1,2.563,1.086,4.7,4.7,0,0,1,.914,3.109v.6H46.109a3,3,0,0,0,.73,2.02,2.3,2.3,0,0,0,1.777.77,2.517,2.517,0,0,0,1.3-.312,3.259,3.259,0,0,0,.93-.828l.883.688A3.55,3.55,0,0,1,48.539,17.156Zm-.18-7.578a1.928,1.928,0,0,0-1.469.637A3.1,3.1,0,0,0,46.156,12h4.234v-.109a2.753,2.753,0,0,0-.594-1.707A1.815,1.815,0,0,0,48.359,9.578Zm6.516-1.031.047,1.063a3.08,3.08,0,0,1,2.531-1.219q2.68,0,2.7,3.023V17H58.711V11.406a1.946,1.946,0,0,0-.418-1.352,1.675,1.675,0,0,0-1.277-.437,2.086,2.086,0,0,0-1.234.375,2.546,2.546,0,0,0-.828.984V17H53.508V8.547Zm10.852,7.43a2.082,2.082,0,0,0,1.352-.469,1.649,1.649,0,0,0,.641-1.172h1.367a2.621,2.621,0,0,1-.5,1.383,3.293,3.293,0,0,1-1.23,1.047,3.55,3.55,0,0,1-1.629.391A3.482,3.482,0,0,1,62.98,16a4.59,4.59,0,0,1-1.02-3.152v-.242a5.089,5.089,0,0,1,.453-2.2,3.451,3.451,0,0,1,1.3-1.492,3.7,3.7,0,0,1,2-.531,3.39,3.39,0,0,1,2.363.852,3.043,3.043,0,0,1,1,2.211H67.719a1.992,1.992,0,0,0-.621-1.348,1.932,1.932,0,0,0-1.379-.527,2.023,2.023,0,0,0-1.707.793,3.724,3.724,0,0,0-.605,2.293v.273a3.65,3.65,0,0,0,.6,2.25A2.033,2.033,0,0,0,65.727,15.977ZM72.281,17H70.836V8.547h1.445ZM70.719,6.3a.863.863,0,0,1,.215-.594.807.807,0,0,1,.637-.242.819.819,0,0,1,.641.242.854.854,0,0,1,.219.594.826.826,0,0,1-.219.586.834.834,0,0,1-.641.234.821.821,0,0,1-.637-.234A.834.834,0,0,1,70.719,6.3ZM79.813,17a3.036,3.036,0,0,1-.2-.891A3.225,3.225,0,0,1,77.2,17.156a2.984,2.984,0,0,1-2.051-.707,2.288,2.288,0,0,1-.8-1.793,2.39,2.39,0,0,1,1-2.051,4.733,4.733,0,0,1,2.824-.73h1.406v-.664A1.623,1.623,0,0,0,79.133,10,1.821,1.821,0,0,0,77.8,9.555a2.108,2.108,0,0,0-1.3.391,1.151,1.151,0,0,0-.523.945H74.523a2,2,0,0,1,.449-1.223,3.066,3.066,0,0,1,1.219-.934,4.1,4.1,0,0,1,1.691-.344,3.342,3.342,0,0,1,2.289.73,2.635,2.635,0,0,1,.859,2.012v3.891a4.757,4.757,0,0,0,.3,1.852V17Zm-2.4-1.1a2.54,2.54,0,0,0,1.289-.352,2.127,2.127,0,0,0,.883-.914V12.9H78.453q-2.656,0-2.656,1.555a1.316,1.316,0,0,0,.453,1.063A1.742,1.742,0,0,0,77.414,15.9Z" transform="translate(1311.051 4450.747)" fill="#12263f"/>
    <path id="Trazado_960518" data-name="Trazado 960518" d="M0,0,108.5.047" transform="translate(1165.102 4450.7)" fill="none" stroke="#afafaf" stroke-linecap="round" stroke-width="2" stroke-dasharray="0 4"/>
    <path id="Trazado_960522" data-name="Trazado 960522" d="M0,0H129.449" transform="translate(1185.102 4558.7)" fill="none" stroke="#afafaf" stroke-linecap="round" stroke-width="2" stroke-dasharray="0 4"/>
    <path id="Trazado_960533" data-name="Trazado 960533" d="M0,0H156.449" transform="translate(1185.102 4664.677)" fill="none" stroke="#afafaf" stroke-linecap="round" stroke-width="2" stroke-dasharray="0 4"/>
    <path id="Trazado_960524" data-name="Trazado 960524" d="M0,0,108.5.047" transform="translate(1294.051 4450.7)" fill="none" stroke="#afafaf" stroke-linecap="round" stroke-width="2" stroke-dasharray="0 4"/>
    <g id="Grupo_1136721" data-name="Grupo 1136721" transform="translate(1165.53 4426.7)">
      <path id="Trazado_902148" data-name="Trazado 902148" d="M11,5.34A5.5,5.5,0,1,0,5.495,11,5.486,5.486,0,0,0,11,5.34" transform="translate(0 0)" fill="#91b3fa"/>
      <path id="Trazado_902149" data-name="Trazado 902149" d="M8.912,4.364c-.241.247-.487.49-.732.733-.149.149-.3.3-.452.443a.212.212,0,0,1-.08.08,8.091,8.091,0,0,1-.595.591.04.04,0,0,1-.021.009.145.145,0,0,1-.105.105.04.04,0,0,1-.009.021h0a8.322,8.322,0,0,1-.592.6.163.163,0,0,1-.1.084.032.032,0,0,1-.008.021,7.331,7.331,0,0,1-.617.617l-.083.083a9.5,9.5,0,0,1-.676.685c-.158.148-.372.1-.538-.084a1.448,1.448,0,0,1-.232-.231L3.6,7.647a1.59,1.59,0,0,1-.232-.232l-.495-.494a1.248,1.248,0,0,1-.206-.2L2.646,6.69l-.468-.47-.026-.027c-.273-.231-.273-.444,0-.675.009-.009.017-.018.026-.026a2.979,2.979,0,0,1,.466-.446c.012-.023.033-.02.054-.018a.387.387,0,0,1,.416.132c.087.094.177.185.267.277L4.467,6.514c.136.135.136.135.279.016l.364-.364A3.265,3.265,0,0,1,5.472,5.8l.312-.312.027-.026L6.2,5.076h0l.313-.309A3.689,3.689,0,0,1,6.876,4.4a3.759,3.759,0,0,1,.362-.363A3.9,3.9,0,0,1,7.6,3.676c.117-.12.23-.246.353-.36a.344.344,0,0,1,.48.009c.172.164.34.331.5.5a.345.345,0,0,1-.026.536" transform="translate(0 0)" fill="#5d87dd"/>
    </g>
    <g id="Grupo_1136727" data-name="Grupo 1136727" transform="translate(1185.53 4534.7)">
      <path id="Trazado_902148-2" data-name="Trazado 902148" d="M11,5.34A5.5,5.5,0,1,0,5.495,11,5.486,5.486,0,0,0,11,5.34" transform="translate(0 0)" fill="#57dbd8"/>
      <path id="Trazado_902149-2" data-name="Trazado 902149" d="M8.912,4.364c-.241.247-.487.49-.732.733-.149.149-.3.3-.452.443a.212.212,0,0,1-.08.08,8.091,8.091,0,0,1-.595.591.04.04,0,0,1-.021.009.145.145,0,0,1-.105.105.04.04,0,0,1-.009.021h0a8.322,8.322,0,0,1-.592.6.163.163,0,0,1-.1.084.032.032,0,0,1-.008.021,7.331,7.331,0,0,1-.617.617l-.083.083a9.5,9.5,0,0,1-.676.685c-.158.148-.372.1-.538-.084a1.448,1.448,0,0,1-.232-.231L3.6,7.647a1.59,1.59,0,0,1-.232-.232l-.495-.494a1.248,1.248,0,0,1-.206-.2L2.646,6.69l-.468-.47-.026-.027c-.273-.231-.273-.444,0-.675.009-.009.017-.018.026-.026a2.979,2.979,0,0,1,.466-.446c.012-.023.033-.02.054-.018a.387.387,0,0,1,.416.132c.087.094.177.185.267.277L4.467,6.514c.136.135.136.135.279.016l.364-.364A3.265,3.265,0,0,1,5.472,5.8l.312-.312.027-.026L6.2,5.076h0l.313-.309A3.689,3.689,0,0,1,6.876,4.4a3.759,3.759,0,0,1,.362-.363A3.9,3.9,0,0,1,7.6,3.676c.117-.12.23-.246.353-.36a.344.344,0,0,1,.48.009c.172.164.34.331.5.5a.345.345,0,0,1-.026.536" transform="translate(0 0)" fill="#179592"/>
    </g>
    <g id="Grupo_1136730" data-name="Grupo 1136730" transform="translate(1185.53 4640.677)">
      <path id="Trazado_902148-3" data-name="Trazado 902148" d="M11,5.34A5.5,5.5,0,1,0,5.495,11,5.486,5.486,0,0,0,11,5.34" transform="translate(0 0)" fill="#e6b046"/>
      <path id="Trazado_902149-3" data-name="Trazado 902149" d="M8.912,4.364c-.241.247-.487.49-.732.733-.149.149-.3.3-.452.443a.212.212,0,0,1-.08.08,8.091,8.091,0,0,1-.595.591.04.04,0,0,1-.021.009.145.145,0,0,1-.105.105.04.04,0,0,1-.009.021h0a8.322,8.322,0,0,1-.592.6.163.163,0,0,1-.1.084.032.032,0,0,1-.008.021,7.331,7.331,0,0,1-.617.617l-.083.083a9.5,9.5,0,0,1-.676.685c-.158.148-.372.1-.538-.084a1.448,1.448,0,0,1-.232-.231L3.6,7.647a1.59,1.59,0,0,1-.232-.232l-.495-.494a1.248,1.248,0,0,1-.206-.2L2.646,6.69l-.468-.47-.026-.027c-.273-.231-.273-.444,0-.675.009-.009.017-.018.026-.026a2.979,2.979,0,0,1,.466-.446c.012-.023.033-.02.054-.018a.387.387,0,0,1,.416.132c.087.094.177.185.267.277L4.467,6.514c.136.135.136.135.279.016l.364-.364A3.265,3.265,0,0,1,5.472,5.8l.312-.312.027-.026L6.2,5.076h0l.313-.309A3.689,3.689,0,0,1,6.876,4.4a3.759,3.759,0,0,1,.362-.363A3.9,3.9,0,0,1,7.6,3.676c.117-.12.23-.246.353-.36a.344.344,0,0,1,.48.009c.172.164.34.331.5.5a.345.345,0,0,1-.026.536" transform="translate(0 0)" fill="#ad7c1b"/>
    </g>
    <g id="Grupo_1136723" data-name="Grupo 1136723" transform="translate(1294.479 4426.7)">
      <path id="Trazado_902148-4" data-name="Trazado 902148" d="M11,5.34A5.5,5.5,0,1,0,5.495,11,5.486,5.486,0,0,0,11,5.34" transform="translate(0 0)" fill="#91b3fa"/>
      <path id="Trazado_902149-4" data-name="Trazado 902149" d="M8.912,4.364c-.241.247-.487.49-.732.733-.149.149-.3.3-.452.443a.212.212,0,0,1-.08.08,8.091,8.091,0,0,1-.595.591.04.04,0,0,1-.021.009.145.145,0,0,1-.105.105.04.04,0,0,1-.009.021h0a8.322,8.322,0,0,1-.592.6.163.163,0,0,1-.1.084.032.032,0,0,1-.008.021,7.331,7.331,0,0,1-.617.617l-.083.083a9.5,9.5,0,0,1-.676.685c-.158.148-.372.1-.538-.084a1.448,1.448,0,0,1-.232-.231L3.6,7.647a1.59,1.59,0,0,1-.232-.232l-.495-.494a1.248,1.248,0,0,1-.206-.2L2.646,6.69l-.468-.47-.026-.027c-.273-.231-.273-.444,0-.675.009-.009.017-.018.026-.026a2.979,2.979,0,0,1,.466-.446c.012-.023.033-.02.054-.018a.387.387,0,0,1,.416.132c.087.094.177.185.267.277L4.467,6.514c.136.135.136.135.279.016l.364-.364A3.265,3.265,0,0,1,5.472,5.8l.312-.312.027-.026L6.2,5.076h0l.313-.309A3.689,3.689,0,0,1,6.876,4.4a3.759,3.759,0,0,1,.362-.363A3.9,3.9,0,0,1,7.6,3.676c.117-.12.23-.246.353-.36a.344.344,0,0,1,.48.009c.172.164.34.331.5.5a.345.345,0,0,1-.026.536" transform="translate(0 0)" fill="#5d87dd"/>
    </g>
    <g id="Grupo_1136722" data-name="Grupo 1136722" transform="translate(1165.53 4457.747)">
      <path id="Trazado_902148-5" data-name="Trazado 902148" d="M11,5.34A5.5,5.5,0,1,0,5.495,11,5.486,5.486,0,0,0,11,5.34" transform="translate(0 0)" fill="#91b3fa"/>
      <path id="Trazado_902149-5" data-name="Trazado 902149" d="M8.912,4.364c-.241.247-.487.49-.732.733-.149.149-.3.3-.452.443a.212.212,0,0,1-.08.08,8.091,8.091,0,0,1-.595.591.04.04,0,0,1-.021.009.145.145,0,0,1-.105.105.04.04,0,0,1-.009.021h0a8.322,8.322,0,0,1-.592.6.163.163,0,0,1-.1.084.032.032,0,0,1-.008.021,7.331,7.331,0,0,1-.617.617l-.083.083a9.5,9.5,0,0,1-.676.685c-.158.148-.372.1-.538-.084a1.448,1.448,0,0,1-.232-.231L3.6,7.647a1.59,1.59,0,0,1-.232-.232l-.495-.494a1.248,1.248,0,0,1-.206-.2L2.646,6.69l-.468-.47-.026-.027c-.273-.231-.273-.444,0-.675.009-.009.017-.018.026-.026a2.979,2.979,0,0,1,.466-.446c.012-.023.033-.02.054-.018a.387.387,0,0,1,.416.132c.087.094.177.185.267.277L4.467,6.514c.136.135.136.135.279.016l.364-.364A3.265,3.265,0,0,1,5.472,5.8l.312-.312.027-.026L6.2,5.076h0l.313-.309A3.689,3.689,0,0,1,6.876,4.4a3.759,3.759,0,0,1,.362-.363A3.9,3.9,0,0,1,7.6,3.676c.117-.12.23-.246.353-.36a.344.344,0,0,1,.48.009c.172.164.34.331.5.5a.345.345,0,0,1-.026.536" transform="translate(0 0)" fill="#5d87dd"/>
    </g>
    <g id="Grupo_1136728" data-name="Grupo 1136728" transform="translate(1185.53 4565.747)">
      <path id="Trazado_902148-6" data-name="Trazado 902148" d="M11,5.34A5.5,5.5,0,1,0,5.495,11,5.486,5.486,0,0,0,11,5.34" transform="translate(0 0)" fill="#57dbd8"/>
      <path id="Trazado_902149-6" data-name="Trazado 902149" d="M8.912,4.364c-.241.247-.487.49-.732.733-.149.149-.3.3-.452.443a.212.212,0,0,1-.08.08,8.091,8.091,0,0,1-.595.591.04.04,0,0,1-.021.009.145.145,0,0,1-.105.105.04.04,0,0,1-.009.021h0a8.322,8.322,0,0,1-.592.6.163.163,0,0,1-.1.084.032.032,0,0,1-.008.021,7.331,7.331,0,0,1-.617.617l-.083.083a9.5,9.5,0,0,1-.676.685c-.158.148-.372.1-.538-.084a1.448,1.448,0,0,1-.232-.231L3.6,7.647a1.59,1.59,0,0,1-.232-.232l-.495-.494a1.248,1.248,0,0,1-.206-.2L2.646,6.69l-.468-.47-.026-.027c-.273-.231-.273-.444,0-.675.009-.009.017-.018.026-.026a2.979,2.979,0,0,1,.466-.446c.012-.023.033-.02.054-.018a.387.387,0,0,1,.416.132c.087.094.177.185.267.277L4.467,6.514c.136.135.136.135.279.016l.364-.364A3.265,3.265,0,0,1,5.472,5.8l.312-.312.027-.026L6.2,5.076h0l.313-.309A3.689,3.689,0,0,1,6.876,4.4a3.759,3.759,0,0,1,.362-.363A3.9,3.9,0,0,1,7.6,3.676c.117-.12.23-.246.353-.36a.344.344,0,0,1,.48.009c.172.164.34.331.5.5a.345.345,0,0,1-.026.536" transform="translate(0 0)" fill="#179592"/>
    </g>
    <g id="Grupo_1136729" data-name="Grupo 1136729" transform="translate(1185.53 4671.724)">
      <path id="Trazado_902148-7" data-name="Trazado 902148" d="M11,5.34A5.5,5.5,0,1,0,5.495,11,5.486,5.486,0,0,0,11,5.34" transform="translate(0 0)" fill="#e6b046"/>
      <path id="Trazado_902149-7" data-name="Trazado 902149" d="M8.912,4.364c-.241.247-.487.49-.732.733-.149.149-.3.3-.452.443a.212.212,0,0,1-.08.08,8.091,8.091,0,0,1-.595.591.04.04,0,0,1-.021.009.145.145,0,0,1-.105.105.04.04,0,0,1-.009.021h0a8.322,8.322,0,0,1-.592.6.163.163,0,0,1-.1.084.032.032,0,0,1-.008.021,7.331,7.331,0,0,1-.617.617l-.083.083a9.5,9.5,0,0,1-.676.685c-.158.148-.372.1-.538-.084a1.448,1.448,0,0,1-.232-.231L3.6,7.647a1.59,1.59,0,0,1-.232-.232l-.495-.494a1.248,1.248,0,0,1-.206-.2L2.646,6.69l-.468-.47-.026-.027c-.273-.231-.273-.444,0-.675.009-.009.017-.018.026-.026a2.979,2.979,0,0,1,.466-.446c.012-.023.033-.02.054-.018a.387.387,0,0,1,.416.132c.087.094.177.185.267.277L4.467,6.514c.136.135.136.135.279.016l.364-.364A3.265,3.265,0,0,1,5.472,5.8l.312-.312.027-.026L6.2,5.076h0l.313-.309A3.689,3.689,0,0,1,6.876,4.4a3.759,3.759,0,0,1,.362-.363A3.9,3.9,0,0,1,7.6,3.676c.117-.12.23-.246.353-.36a.344.344,0,0,1,.48.009c.172.164.34.331.5.5a.345.345,0,0,1-.026.536" transform="translate(0 0)" fill="#ad7c1b"/>
    </g>
    <g id="Grupo_1136724" data-name="Grupo 1136724" transform="translate(1294.479 4457.747)">
      <path id="Trazado_902148-8" data-name="Trazado 902148" d="M11,5.34A5.5,5.5,0,1,0,5.495,11,5.486,5.486,0,0,0,11,5.34" transform="translate(0 0)" fill="#91b3fa"/>
      <path id="Trazado_902149-8" data-name="Trazado 902149" d="M8.912,4.364c-.241.247-.487.49-.732.733-.149.149-.3.3-.452.443a.212.212,0,0,1-.08.08,8.091,8.091,0,0,1-.595.591.04.04,0,0,1-.021.009.145.145,0,0,1-.105.105.04.04,0,0,1-.009.021h0a8.322,8.322,0,0,1-.592.6.163.163,0,0,1-.1.084.032.032,0,0,1-.008.021,7.331,7.331,0,0,1-.617.617l-.083.083a9.5,9.5,0,0,1-.676.685c-.158.148-.372.1-.538-.084a1.448,1.448,0,0,1-.232-.231L3.6,7.647a1.59,1.59,0,0,1-.232-.232l-.495-.494a1.248,1.248,0,0,1-.206-.2L2.646,6.69l-.468-.47-.026-.027c-.273-.231-.273-.444,0-.675.009-.009.017-.018.026-.026a2.979,2.979,0,0,1,.466-.446c.012-.023.033-.02.054-.018a.387.387,0,0,1,.416.132c.087.094.177.185.267.277L4.467,6.514c.136.135.136.135.279.016l.364-.364A3.265,3.265,0,0,1,5.472,5.8l.312-.312.027-.026L6.2,5.076h0l.313-.309A3.689,3.689,0,0,1,6.876,4.4a3.759,3.759,0,0,1,.362-.363A3.9,3.9,0,0,1,7.6,3.676c.117-.12.23-.246.353-.36a.344.344,0,0,1,.48.009c.172.164.34.331.5.5a.345.345,0,0,1-.026.536" transform="translate(0 0)" fill="#5d87dd"/>
    </g>
  </g>
</svg>
